<svg width="184" height="184" viewBox="0 0 184 184" fill="none" xmlns="http://www.w3.org/2000/svg">
<circle cx="132" cy="90" r="4" transform="rotate(90 132 90)" fill="white"/>
<circle cx="121.698" cy="118.87" r="4" transform="rotate(135 121.698 118.87)" fill="white"/>
<circle cx="94" cy="132" r="4" transform="rotate(180 94 132)" fill="white"/>
<circle cx="65.1299" cy="121.699" r="4" transform="rotate(-135 65.1299 121.699)" fill="white"/>
<circle cx="52" cy="94.0002" r="4" transform="rotate(-90 52 94.0002)" fill="white"/>
<circle cx="62.3015" cy="65.1301" r="4" transform="rotate(-45 62.3015 65.1301)" fill="white"/>
<circle cx="90" cy="52.0002" r="4" fill="white"/>
<circle cx="118.87" cy="62.3016" r="4" transform="rotate(45 118.87 62.3016)" fill="white"/>
<circle cx="135.841" cy="45.3317" r="3.5" transform="rotate(45 135.841 45.3317)" stroke="white"/>
<circle cx="150.363" cy="65.6611" r="3.5" transform="rotate(67.5 150.363 65.6611)" stroke="white"/>
<circle cx="156" cy="90.0005" r="3.5" transform="rotate(90 156 90.0005)" stroke="white"/>
<circle cx="151.894" cy="114.644" r="3.5" transform="rotate(112.5 151.894 114.644)" stroke="white"/>
<circle cx="138.669" cy="135.841" r="3.5" transform="rotate(135 138.669 135.841)" stroke="white"/>
<circle cx="118.34" cy="150.363" r="3.5" transform="rotate(157.5 118.34 150.363)" stroke="white"/>
<circle cx="94.0001" cy="156" r="3.5" transform="rotate(180 94.0001 156)" stroke="white"/>
<circle cx="69.3561" cy="151.894" r="3.5" transform="rotate(-157.5 69.3561 151.894)" stroke="white"/>
<circle cx="48.1593" cy="138.669" r="3.5" transform="rotate(-135 48.1593 138.669)" stroke="white"/>
<circle cx="33.6371" cy="118.34" r="3.5" transform="rotate(-112.5 33.6371 118.34)" stroke="white"/>
<circle cx="28" cy="94.0002" r="3.5" transform="rotate(-90 28 94.0002)" stroke="white"/>
<circle cx="32.1064" cy="69.3562" r="3.5" transform="rotate(-67.5 32.1064 69.3562)" stroke="white"/>
<circle cx="45.3309" cy="48.1597" r="3.5" transform="rotate(-45 45.3309 48.1597)" stroke="white"/>
<circle cx="65.6605" cy="33.6374" r="3.5" transform="rotate(-22.5 65.6605 33.6374)" stroke="white"/>
<circle cx="90" cy="28.0002" r="3.5" stroke="white"/>
<circle cx="114.644" cy="32.1071" r="3.5" transform="rotate(22.5 114.644 32.1071)" stroke="white"/>
<circle cx="134.268" cy="14.79" r="4" transform="rotate(30 134.268 14.79)" fill="white"/>
<circle cx="152.812" cy="28.3605" r="4" transform="rotate(45 152.812 28.3605)" fill="white"/>
<circle cx="167.21" cy="46.2681" r="4" transform="rotate(60 167.21 46.2681)" fill="white"/>
<circle cx="176.484" cy="67.292" r="4" transform="rotate(75 176.484 67.292)" fill="white"/>
<circle cx="180" cy="90" r="4" transform="rotate(90 180 90)" fill="white"/>
<circle cx="177.519" cy="112.844" r="4" transform="rotate(105 177.519 112.844)" fill="white"/>
<circle cx="169.211" cy="134.268" r="4" transform="rotate(120 169.211 134.268)" fill="white"/>
<circle cx="155.64" cy="152.811" r="4" transform="rotate(135 155.64 152.811)" fill="white"/>
<circle cx="137.732" cy="167.21" r="4" transform="rotate(150 137.732 167.21)" fill="white"/>
<circle cx="116.708" cy="176.484" r="4" transform="rotate(165 116.708 176.484)" fill="white"/>
<circle cx="94.0002" cy="180" r="4" transform="rotate(180 94.0002 180)" fill="white"/>
<circle cx="71.1559" cy="177.519" r="4" transform="rotate(-165 71.1559 177.519)" fill="white"/>
<circle cx="49.7322" cy="169.21" r="4" transform="rotate(-150 49.7322 169.21)" fill="white"/>
<circle cx="31.1888" cy="155.64" r="4" transform="rotate(-135 31.1888 155.64)" fill="white"/>
<circle cx="16.7898" cy="137.732" r="4" transform="rotate(-120 16.7898 137.732)" fill="white"/>
<circle cx="7.51617" cy="116.708" r="4" transform="rotate(-105 7.51617 116.708)" fill="white"/>
<circle cx="4" cy="94" r="4" transform="rotate(-90 4 94)" fill="white"/>
<circle cx="6.48089" cy="71.1557" r="4" transform="rotate(-75 6.48089 71.1557)" fill="white"/>
<circle cx="14.7898" cy="49.7319" r="4" transform="rotate(-60 14.7898 49.7319)" fill="white"/>
<circle cx="28.3603" cy="31.1887" r="4" transform="rotate(-45 28.3603 31.1887)" fill="white"/>
<circle cx="46.2679" cy="16.7898" r="4" transform="rotate(-30 46.2679 16.7898)" fill="white"/>
<circle cx="67.292" cy="7.51617" r="4" transform="rotate(-15 67.292 7.51617)" fill="white"/>
<circle cx="90" cy="4" r="4" fill="white"/>
<circle cx="112.845" cy="6.48125" r="4" transform="rotate(15 112.845 6.48125)" fill="white"/>
</svg>
