<svg width="168" height="168" viewBox="0 0 168 168" fill="none" xmlns="http://www.w3.org/2000/svg">
<circle cx="164" cy="82.0002" r="4" transform="rotate(90 164 82.0002)" fill="white"/>
<circle cx="140" cy="82.0002" r="4" transform="rotate(90 140 82.0002)" fill="white"/>
<circle cx="116" cy="82.0002" r="4" transform="rotate(90 116 82.0002)" fill="white"/>
<circle cx="141.983" cy="139.155" r="4" transform="rotate(135 141.983 139.155)" fill="white"/>
<circle cx="125.012" cy="122.184" r="4" transform="rotate(135 125.012 122.184)" fill="white"/>
<circle cx="108.042" cy="105.213" r="4" transform="rotate(135 108.042 105.213)" fill="white"/>
<circle cx="86" cy="164" r="4" transform="rotate(180 86 164)" fill="white"/>
<circle cx="86" cy="140" r="4" transform="rotate(180 86 140)" fill="white"/>
<circle cx="86" cy="116" r="4" transform="rotate(180 86 116)" fill="white"/>
<circle cx="28.8456" cy="141.983" r="4" transform="rotate(-135 28.8456 141.983)" fill="white"/>
<circle cx="45.8162" cy="125.012" r="4" transform="rotate(-135 45.8162 125.012)" fill="white"/>
<circle cx="62.7867" cy="108.042" r="4" transform="rotate(-135 62.7867 108.042)" fill="white"/>
<circle cx="4" cy="86.0001" r="4" transform="rotate(-90 4 86.0001)" fill="white"/>
<circle cx="28" cy="86.0001" r="4" transform="rotate(-90 28 86.0001)" fill="white"/>
<circle cx="52" cy="86.0001" r="4" transform="rotate(-90 52 86.0001)" fill="white"/>
<circle cx="26.0172" cy="28.8457" r="4" transform="rotate(-45 26.0172 28.8457)" fill="white"/>
<circle cx="42.9878" cy="45.8163" r="4" transform="rotate(-45 42.9878 45.8163)" fill="white"/>
<circle cx="59.9583" cy="62.7868" r="4" transform="rotate(-45 59.9583 62.7868)" fill="white"/>
<circle cx="82" cy="4" r="4" fill="white"/>
<circle cx="82" cy="28" r="4" fill="white"/>
<circle cx="82" cy="52" r="4" fill="white"/>
<circle cx="139.154" cy="26.0175" r="4" transform="rotate(45 139.154 26.0175)" fill="white"/>
<circle cx="122.184" cy="42.988" r="4" transform="rotate(45 122.184 42.988)" fill="white"/>
<circle cx="105.213" cy="59.9585" r="4" transform="rotate(45 105.213 59.9585)" fill="white"/>
</svg>
