<svg width="685" height="685" viewBox="0 0 685 685" fill="none" xmlns="http://www.w3.org/2000/svg">
<path opacity="0.0344828" d="M147.158 344.653C124.855 335.674 128.28 303.089 151.962 298.943L232.642 284.822C246.41 282.412 255.781 269.513 253.819 255.675L242.318 174.58C238.942 150.775 268.874 137.448 284.306 155.886L336.875 218.696C345.846 229.414 361.703 231.08 372.706 222.462L437.186 171.954C456.113 157.128 482.621 176.387 474.369 198.969L446.259 275.901C441.462 289.029 447.947 303.595 460.912 308.814L536.893 339.401C559.197 348.38 555.772 380.966 532.089 385.111L451.409 399.233C437.642 401.642 428.27 414.541 430.233 428.38L441.734 509.475C445.11 533.279 415.177 546.606 399.746 528.169L347.176 465.359C338.206 454.641 322.349 452.974 311.346 461.593L246.866 512.1C227.939 526.927 201.431 507.668 209.682 485.085L237.793 408.153C242.59 395.026 236.105 380.46 223.139 375.24L147.158 344.653Z" stroke="white" stroke-width="2"/>
<path opacity="0.0689655" d="M150.66 334.985C128.857 324.851 133.983 292.489 157.85 289.589L236.8 279.996C250.674 278.31 260.708 265.919 259.472 251.998L252.441 172.778C250.316 148.83 280.905 137.088 295.35 156.307L343.133 219.883C351.53 231.056 367.278 233.55 378.717 225.519L443.807 179.821C463.485 166.005 488.948 186.625 479.526 208.745L448.359 281.914C442.882 294.773 448.596 309.658 461.27 315.549L533.391 349.069C555.194 359.203 550.069 391.565 526.201 394.465L447.252 404.058C433.377 405.744 423.343 418.135 424.579 432.057L431.61 511.276C433.735 535.225 403.146 546.967 388.701 527.747L340.918 464.171C332.521 452.998 316.773 450.504 305.334 458.535L240.244 504.234C220.567 518.049 195.103 497.429 204.525 475.309L235.692 402.14C241.17 389.281 235.456 374.396 222.781 368.505L150.66 334.985Z" stroke="white" stroke-width="2"/>
<path opacity="0.103448" d="M154.63 325.689C133.388 314.428 140.2 282.379 164.186 280.732L241.159 275.447C255.103 274.489 265.772 262.641 265.266 248.673L262.477 171.569C261.608 147.542 292.769 137.417 306.189 157.366L349.253 221.384C357.054 232.981 372.649 236.296 384.493 228.875L449.872 187.907C470.246 175.141 494.595 197.065 484.028 218.661L450.119 287.965C443.976 300.519 448.903 315.683 461.252 322.229L529.421 358.365C550.663 369.626 543.851 401.675 519.865 403.322L442.892 408.608C428.948 409.565 418.279 421.414 418.785 435.381L421.574 512.485C422.443 536.512 391.282 546.637 377.862 526.688L334.798 462.67C326.997 451.073 311.402 447.758 299.558 455.18L234.179 496.147C213.805 508.914 189.456 486.989 200.023 465.393L233.932 396.09C240.075 383.535 235.148 368.372 222.799 361.825L154.63 325.689Z" stroke="white" stroke-width="2"/>
<path opacity="0.137931" d="M159.04 316.788C138.416 304.431 146.896 272.782 170.936 272.393L245.705 271.181C259.679 270.955 270.954 259.681 271.18 245.706L272.391 170.938C272.78 146.898 304.429 138.418 316.786 159.042L355.22 223.188C362.403 235.177 377.804 239.304 390.019 232.512L455.376 196.177C476.39 184.494 499.559 207.663 487.876 228.677L451.541 294.034C444.749 306.249 448.876 321.65 460.865 328.834L525.011 367.267C545.635 379.624 537.155 411.273 513.116 411.662L438.347 412.873C424.372 413.1 413.098 424.374 412.872 438.349L411.66 513.117C411.271 537.157 379.622 545.637 367.265 525.013L328.832 460.867C321.649 448.878 306.248 444.751 294.032 451.542L228.675 487.878C207.661 499.56 184.493 476.392 196.175 455.378L232.511 390.021C239.302 377.805 235.176 362.404 223.186 355.221L159.04 316.788Z" stroke="white" stroke-width="2"/>
<path opacity="0.172414" d="M163.859 308.301C143.91 294.881 154.035 263.72 178.062 264.589L250.417 267.207C264.384 267.712 276.233 257.043 277.19 243.1L282.15 170.867C283.797 146.881 315.847 140.069 327.107 161.312L361.018 225.282C367.564 237.63 382.728 242.557 395.282 236.415L460.317 204.594C481.913 194.027 503.837 218.376 491.071 238.75L452.627 300.102C445.205 311.946 448.52 327.541 460.117 335.343L520.192 375.754C540.141 389.174 530.016 420.335 505.989 419.466L433.634 416.848C419.667 416.343 407.818 427.012 406.861 440.955L401.901 513.188C400.254 537.174 368.205 543.986 356.944 522.743L323.033 458.773C316.487 446.425 301.323 441.498 288.769 447.64L223.734 479.461C202.138 490.028 180.214 465.679 192.98 445.305L231.424 383.953C238.846 372.109 235.531 356.513 223.934 348.712L163.859 308.301Z" stroke="white" stroke-width="2"/>
<path opacity="0.206897" d="M169.056 300.246C149.836 285.801 161.578 255.212 185.527 257.337L255.279 263.528C269.201 264.764 281.592 254.73 283.278 240.855L291.724 171.341C294.624 147.473 326.986 142.348 337.12 164.151L366.634 227.653C372.525 240.327 387.41 246.041 400.269 240.564L464.694 213.122C486.814 203.7 507.434 229.163 493.619 248.84L453.381 306.152C445.35 317.591 447.844 333.339 459.017 341.736L514.995 383.809C534.215 398.254 522.473 428.843 498.524 426.717L428.772 420.526C414.85 419.291 402.46 429.325 400.774 443.199L392.327 512.714C389.427 536.582 357.065 541.707 346.931 519.904L317.417 456.402C311.526 443.727 296.641 438.013 283.782 443.491L219.357 470.933C197.237 480.355 176.618 454.892 190.433 435.214L230.67 377.903C238.701 366.464 236.207 350.716 225.034 342.319L169.056 300.246Z" stroke="white" stroke-width="2"/>
<path opacity="0.241379" d="M174.599 292.639C156.161 277.208 169.488 247.276 193.293 250.652L260.273 260.151C274.111 262.113 287.01 252.742 289.42 238.974L301.083 172.337C305.228 148.654 337.814 145.23 346.793 167.533L372.056 230.289C377.276 243.254 391.841 249.739 404.969 244.943L468.51 221.725C491.093 213.474 510.352 239.981 495.526 258.909L453.809 312.165C445.19 323.168 446.857 339.025 457.575 347.996L509.452 391.415C527.89 406.846 514.563 436.779 490.758 433.403L423.779 423.904C409.94 421.941 397.041 431.313 394.632 445.08L382.968 511.717C378.823 535.4 346.237 538.825 337.258 516.521L311.995 453.766C306.776 440.8 292.21 434.315 279.082 439.112L215.541 462.329C192.959 470.581 173.7 444.073 188.526 425.146L230.242 371.889C238.861 360.886 237.194 345.029 226.476 336.059L174.599 292.639Z" stroke="white" stroke-width="2"/>
<path opacity="0.275862" d="M180.455 285.496C162.851 269.121 177.726 239.927 201.321 244.544L265.38 257.079C279.097 259.763 292.468 251.079 295.595 237.457L310.199 173.838C315.578 150.404 348.298 148.689 356.097 171.432L377.271 233.177C381.805 246.398 396.011 253.636 409.372 249.533L471.77 230.37C494.753 223.312 512.598 250.791 496.802 268.917L453.917 318.126C444.734 328.663 445.568 344.585 455.802 354.104L503.596 398.561C521.201 414.936 506.326 444.13 482.73 439.513L418.671 426.977C404.955 424.293 391.583 432.977 388.456 446.599L373.852 510.219C368.473 533.652 335.753 535.367 327.954 512.624L306.78 450.88C302.247 437.659 288.04 430.42 274.68 434.524L212.282 453.686C189.298 460.745 171.453 433.265 187.249 415.14L230.135 365.931C239.318 355.394 238.483 339.472 228.249 329.952L180.455 285.496Z" stroke="white" stroke-width="2"/>
<path opacity="0.310345" d="M186.592 278.824C169.869 261.55 186.251 233.174 209.573 239.02L270.583 254.313C284.14 257.711 297.948 249.739 301.784 236.299L319.045 175.816C325.643 152.696 358.408 152.696 365.006 175.816L382.267 236.299C386.103 249.739 399.911 257.711 413.468 254.313L474.479 239.02C497.8 233.174 514.183 261.55 497.459 278.824L453.71 324.014C443.988 334.055 443.988 349.999 453.71 360.041L497.459 405.231C514.183 422.505 497.8 450.881 474.479 445.035L413.468 429.742C399.911 426.344 386.103 434.316 382.267 447.756L365.006 508.239C358.408 531.359 325.643 531.359 319.045 508.239L301.784 447.756C297.948 434.316 284.14 426.344 270.583 429.742L209.573 445.035C186.251 450.881 169.869 422.505 186.592 405.231L230.341 360.041C240.063 349.999 240.063 334.055 230.341 324.014L186.592 278.824Z" stroke="white" stroke-width="2"/>
<path opacity="0.344828" d="M192.976 272.635C177.18 254.509 195.025 227.03 218.009 234.088L275.864 251.856C289.224 255.959 303.431 248.721 307.964 235.5L327.597 178.251C335.396 155.508 368.116 157.223 373.495 180.656L387.035 239.644C390.162 253.266 403.534 261.95 417.251 259.266L476.646 247.643C500.241 243.026 515.116 272.22 497.512 288.595L453.197 329.815C442.963 339.334 442.129 355.256 451.312 365.793L491.075 411.42C506.871 429.545 489.026 457.025 466.043 449.966L408.188 432.199C394.827 428.096 380.62 435.334 376.087 448.555L356.455 505.804C348.656 528.547 315.935 526.832 310.556 503.399L297.016 444.411C293.889 430.789 280.517 422.105 266.801 424.789L207.405 436.412C183.81 441.029 168.935 411.835 186.539 395.46L230.854 354.24C241.088 344.72 241.922 328.798 232.739 318.261L192.976 272.635Z" stroke="white" stroke-width="2"/>
<path opacity="0.37931" d="M199.574 266.936C184.748 248.009 204.007 221.501 226.59 229.753L281.204 249.708C294.332 254.505 308.897 248.02 314.117 235.055L335.831 181.115C344.809 158.812 377.395 162.237 381.54 185.92L391.565 243.195C393.975 256.962 406.874 266.334 420.712 264.371L478.282 256.207C502.087 252.831 515.413 282.763 496.976 298.194L452.387 335.514C441.669 344.484 440.002 360.341 448.621 371.344L484.477 417.119C499.303 436.046 480.044 462.554 457.461 454.302L402.847 434.346C389.719 429.55 375.154 436.035 369.934 449L348.22 502.939C339.242 525.243 306.656 521.818 302.511 498.135L292.486 440.86C290.076 427.093 277.177 417.721 263.339 419.684L205.769 427.848C181.964 431.224 168.638 401.292 187.075 385.86L231.664 348.541C242.382 339.57 244.049 323.714 235.43 312.711L199.574 266.936Z" stroke="white" stroke-width="2"/>
<path opacity="0.413793" d="M206.353 261.733C192.538 242.055 213.158 216.592 235.277 226.014L286.586 247.869C299.445 253.347 314.33 247.633 320.221 234.958L343.727 184.384C353.86 162.581 386.222 167.707 389.122 191.574L395.849 246.936C397.535 260.811 409.926 270.845 423.848 269.609L479.399 264.679C503.348 262.553 515.09 293.142 495.87 307.588L451.289 341.095C440.116 349.492 437.622 365.24 445.653 376.679L477.698 422.322C491.513 442 470.894 467.463 448.774 458.041L397.465 436.186C384.606 430.708 369.721 436.422 363.83 449.097L340.325 499.671C330.191 521.474 297.829 516.348 294.929 492.481L288.202 437.118C286.516 423.244 274.125 413.21 260.203 414.446L204.652 419.376C180.703 421.501 168.961 390.912 188.181 376.467L232.763 342.96C243.935 334.563 246.43 318.815 238.399 307.376L206.353 261.733Z" stroke="white" stroke-width="2"/>
<path opacity="0.448276" d="M213.279 257.027C200.512 236.653 222.437 212.304 244.033 222.871L291.993 246.337C304.548 252.48 319.711 247.553 326.258 235.204L351.265 188.029C362.526 166.786 394.575 173.598 396.222 197.585L399.88 250.853C400.837 264.797 412.686 275.465 426.653 274.96L480.012 273.03C504.039 272.16 514.164 303.322 494.215 316.742L449.912 346.543C438.315 354.344 435 369.94 442.422 381.784L470.773 427.028C483.539 447.402 461.615 471.751 440.019 461.184L392.058 437.718C379.504 431.575 364.34 436.502 357.794 448.851L332.786 496.026C321.526 517.269 289.476 510.457 287.829 486.47L284.172 433.202C283.214 419.258 271.366 408.59 257.398 409.095L204.039 411.025C180.012 411.895 169.887 380.733 189.837 367.313L234.139 337.512C245.736 329.711 249.051 314.115 241.63 302.271L213.279 257.027Z" stroke="white" stroke-width="2"/>
<path opacity="0.482759" d="M220.318 252.819C208.635 231.805 231.804 208.637 252.817 220.32L297.407 245.109C309.623 251.901 325.024 247.774 332.207 235.785L358.428 192.021C370.785 171.397 402.434 179.877 402.824 203.917L403.65 254.928C403.876 268.903 415.15 280.177 429.125 280.403L480.136 281.229C504.176 281.619 512.656 313.268 492.032 325.625L448.268 351.846C436.279 359.029 432.152 374.43 438.944 386.646L463.733 431.236C475.416 452.249 452.247 475.418 431.234 463.735L386.644 438.945C374.428 432.154 359.027 436.281 351.844 448.27L325.623 492.033C313.266 512.658 281.617 504.177 281.228 480.138L280.401 429.127C280.175 415.152 268.901 403.878 254.926 403.652L203.915 402.825C179.876 402.436 171.395 370.787 192.02 358.43L235.783 332.209C247.772 325.026 251.899 309.625 245.108 297.409L220.318 252.819Z" stroke="white" stroke-width="2"/>
<path opacity="0.517241" d="M227.438 249.109C216.871 227.513 241.221 205.589 261.594 218.355L302.812 244.183C314.656 251.604 330.251 248.289 338.052 236.692L365.202 196.333C378.621 176.383 409.783 186.508 408.913 210.536L407.155 259.145C406.65 273.113 417.318 284.961 431.262 285.919L479.789 289.251C503.776 290.898 510.588 322.947 489.345 334.208L446.369 356.99C434.02 363.536 429.093 378.7 435.235 391.254L456.613 434.946C467.18 456.542 442.831 478.467 422.457 465.7L381.239 439.872C369.396 432.451 353.8 435.766 345.999 447.363L318.85 487.723C305.43 507.672 274.269 497.547 275.138 473.52L276.897 424.91C277.402 410.943 266.733 399.094 252.79 398.136L204.262 394.804C180.276 393.157 173.464 361.108 194.706 349.847L237.683 327.065C250.032 320.519 254.959 305.356 248.816 292.801L227.438 249.109Z" stroke="white" stroke-width="2"/>
<path opacity="0.551724" d="M234.607 245.893C225.185 223.773 250.648 203.153 270.326 216.968L308.191 243.553C319.629 251.584 335.377 249.089 343.775 237.917L371.571 200.933C386.017 181.713 416.606 193.455 414.48 217.404L410.39 263.488C409.154 277.41 419.188 289.801 433.063 291.487L478.99 297.067C502.858 299.967 507.983 332.329 486.18 342.463L444.225 361.963C431.551 367.854 425.837 382.739 431.314 395.597L449.445 438.162C458.867 460.282 433.403 480.902 413.726 467.086L375.861 440.502C364.422 432.471 348.674 434.965 340.277 446.138L312.48 483.122C298.035 502.342 267.446 490.6 269.572 466.651L273.662 420.567C274.897 406.645 264.863 394.254 250.989 392.568L205.061 386.988C181.194 384.087 176.068 351.726 197.871 341.592L239.827 322.092C252.501 316.201 258.215 301.316 252.738 288.458L234.607 245.893Z" stroke="white" stroke-width="2"/>
<path opacity="0.586207" d="M241.792 243.165C233.541 220.582 260.048 201.323 278.976 216.15L313.527 243.214C324.53 251.833 340.387 250.166 349.357 239.448L377.526 205.791C392.958 187.354 422.89 200.681 419.514 224.486L413.351 267.94C411.389 281.778 420.761 294.677 434.528 297.087L477.76 304.654C501.443 308.799 504.868 341.385 482.564 350.364L441.85 366.754C428.885 371.973 422.4 386.539 427.196 399.666L442.259 440.89C450.511 463.473 424.003 482.731 405.076 467.905L370.524 440.841C359.522 432.222 343.665 433.889 334.694 444.607L306.525 478.264C291.094 496.701 261.161 483.374 264.537 459.569L270.7 416.115C272.662 402.277 263.291 389.378 249.523 386.968L206.291 379.401C182.609 375.256 179.184 342.67 201.487 333.691L242.201 317.301C255.167 312.082 261.652 297.516 256.855 284.388L241.792 243.165Z" stroke="white" stroke-width="2"/>
<path opacity="0.62069" d="M248.963 240.918C241.905 217.935 269.384 200.089 287.51 215.886L318.806 243.16C329.342 252.343 345.265 251.508 354.784 241.274L383.058 210.878C399.433 193.274 428.627 208.149 424.01 231.744L416.037 272.485C413.353 286.201 422.037 299.573 435.659 302.7L476.12 311.988C499.554 317.367 501.268 350.087 478.526 357.886L439.257 371.352C426.036 375.886 418.798 390.092 422.901 403.453L435.088 443.137C442.147 466.12 414.667 483.965 396.542 468.169L365.246 440.895C354.709 431.712 338.787 432.546 329.267 442.78L300.994 473.177C284.619 490.781 255.424 475.906 260.042 452.311L268.014 411.57C270.698 397.854 262.014 384.482 248.392 381.355L207.931 372.067C184.498 366.688 182.783 333.968 205.526 326.169L244.794 312.703C258.015 308.169 265.253 293.963 261.15 280.602L248.963 240.918Z" stroke="white" stroke-width="2"/>
<path opacity="0.655172" d="M256.089 239.143C250.244 215.821 278.619 199.439 295.893 216.162L324.012 243.384C334.053 253.106 349.998 253.106 360.039 243.384L388.158 216.162C405.432 199.439 433.808 215.821 427.962 239.143L418.446 277.105C415.048 290.663 423.02 304.471 436.46 308.306L474.094 319.047C497.214 325.645 497.214 358.41 474.094 365.008L436.46 375.748C423.02 379.584 415.048 393.392 418.446 406.949L427.962 444.912C433.808 468.233 405.432 484.616 388.158 467.892L360.039 440.67C349.998 430.949 334.053 430.949 324.012 440.67L295.893 467.892C278.619 484.616 250.244 468.233 256.089 444.912L265.605 406.949C269.003 393.392 261.031 379.584 247.591 375.748L209.957 365.008C186.837 358.41 186.837 325.645 209.957 319.047L247.591 308.306C261.031 304.471 269.003 290.663 265.605 277.105L256.089 239.143Z" stroke="white" stroke-width="2"/>
<path opacity="0.689655" d="M263.142 237.822C258.525 214.227 287.719 199.351 304.094 216.956L329.131 243.873C338.65 254.106 354.572 254.941 365.109 245.758L392.823 221.606C410.948 205.81 438.427 223.655 431.369 246.638L420.577 281.78C416.474 295.14 423.712 309.347 436.933 313.88L471.707 325.805C494.449 333.604 492.734 366.324 469.301 371.703L433.472 379.928C419.85 383.055 411.166 396.426 413.85 410.143L420.91 446.22C425.527 469.815 396.333 484.69 379.958 467.086L354.92 440.169C345.401 429.935 329.479 429.101 318.942 438.283L291.229 462.436C273.103 478.232 245.624 460.387 252.682 437.403L263.474 402.262C267.577 388.901 260.339 374.695 247.118 370.161L212.345 358.237C189.602 350.438 191.317 317.717 214.75 312.338L250.579 304.114C264.202 300.987 272.886 287.615 270.201 273.899L263.142 237.822Z" stroke="white" stroke-width="2"/>
<path opacity="0.724138" d="M270.092 236.955C266.716 213.151 296.648 199.824 312.08 218.261L334.149 244.629C343.119 255.347 358.976 257.014 369.979 248.395L397.048 227.192C415.976 212.366 442.483 231.625 434.232 254.207L422.431 286.504C417.634 299.631 424.119 314.197 437.085 319.416L468.982 332.257C491.285 341.236 487.86 373.822 464.178 377.967L430.308 383.895C416.54 386.305 407.169 399.204 409.131 413.042L413.959 447.086C417.335 470.891 387.403 484.218 371.971 465.781L349.902 439.412C340.932 428.694 325.075 427.028 314.072 435.646L287.003 456.85C268.076 471.676 241.568 452.417 249.82 429.835L261.62 397.538C266.417 384.41 259.932 369.845 246.967 364.625L215.069 351.785C192.766 342.806 196.191 310.22 219.874 306.075L253.744 300.147C267.511 297.737 276.883 284.838 274.92 271L270.092 236.955Z" stroke="white" stroke-width="2"/>
<path opacity="0.758621" d="M276.913 236.523C274.787 212.574 305.376 200.832 319.821 220.052L339.053 245.639C347.45 256.812 363.198 259.306 374.637 251.275L400.834 232.883C420.511 219.068 445.974 239.687 436.552 261.807L424.009 291.256C418.531 304.114 424.245 318.999 436.92 324.89L465.946 338.381C487.749 348.515 482.624 380.877 458.757 383.777L426.981 387.638C413.107 389.324 403.073 401.715 404.309 415.637L407.138 447.52C409.264 471.469 378.675 483.211 364.23 463.991L344.998 438.404C336.601 427.231 320.853 424.737 309.414 432.768L283.217 451.16C263.54 464.975 238.077 444.355 247.499 422.236L260.042 392.787C265.52 379.928 259.806 365.043 247.131 359.152L218.105 345.661C196.302 335.528 201.427 303.166 225.294 300.266L257.07 296.405C270.944 294.719 280.978 282.328 279.742 268.406L276.913 236.523Z" stroke="white" stroke-width="2"/>
<path opacity="0.793103" d="M283.579 236.506C282.709 212.479 313.871 202.354 327.291 222.304L343.83 246.891C351.631 258.488 367.227 261.803 379.07 254.382L404.181 238.647C424.554 225.881 448.903 247.805 438.337 269.401L425.313 296.019C419.17 308.573 424.097 323.737 436.446 330.283L462.628 344.162C483.871 355.422 477.058 387.472 453.072 389.119L423.509 391.149C409.565 392.106 398.896 403.955 399.402 417.922L400.473 447.536C401.342 471.563 370.181 481.688 356.761 461.739L340.221 437.151C332.42 425.554 316.825 422.239 304.981 429.661L279.871 445.395C259.497 458.162 235.148 436.237 245.715 414.641L258.739 388.024C264.881 375.469 259.954 360.305 247.605 353.759L221.424 339.88C200.181 328.62 206.993 296.57 230.98 294.923L260.543 292.893C274.487 291.936 285.155 280.087 284.65 266.12L283.579 236.506Z" stroke="white" stroke-width="2"/>
<path opacity="0.827586" d="M290.065 236.89C290.454 212.85 322.103 204.37 334.46 224.994L348.469 248.375C355.652 260.365 371.053 264.491 383.269 257.7L407.091 244.456C428.105 232.773 451.274 255.942 439.591 276.955L426.347 300.778C419.555 312.994 423.682 328.395 435.671 335.578L459.052 349.587C479.677 361.944 471.196 393.593 447.157 393.982L419.904 394.424C405.929 394.65 394.655 405.924 394.428 419.899L393.987 447.152C393.597 471.192 361.949 479.672 349.592 459.048L335.583 435.667C328.399 423.677 312.998 419.551 300.783 426.342L276.96 439.586C255.946 451.269 232.778 428.1 244.46 407.087L257.705 383.264C264.496 371.048 260.369 355.648 248.38 348.464L224.999 334.455C204.375 322.098 212.855 290.449 236.895 290.06L264.148 289.618C278.123 289.392 289.397 278.118 289.623 264.143L290.065 236.89Z" stroke="white" stroke-width="2"/>
<path opacity="0.862069" d="M296.348 237.654C297.995 213.668 330.044 206.856 341.305 228.098L352.958 250.081C359.504 262.43 374.668 267.357 387.222 261.214L409.571 250.279C431.167 239.713 453.091 264.062 440.325 284.435L427.114 305.519C419.693 317.362 423.008 332.958 434.604 340.759L455.249 354.646C475.198 368.066 465.073 399.227 441.046 398.358L416.182 397.459C402.214 396.953 390.365 407.622 389.408 421.566L387.704 446.388C386.057 470.374 354.007 477.187 342.747 455.944L331.093 433.961C324.547 421.612 309.384 416.685 296.829 422.828L274.48 433.763C252.884 444.33 230.96 419.98 243.726 399.607L256.937 378.523C264.359 366.68 261.044 351.084 249.447 343.283L228.802 329.396C208.853 315.976 218.978 284.815 243.005 285.684L267.87 286.584C281.837 287.089 293.686 276.42 294.643 262.476L296.348 237.654Z" stroke="white" stroke-width="2"/>
<path opacity="0.896552" d="M302.407 238.779C305.307 214.911 337.669 209.786 347.802 231.589L357.287 251.997C363.178 264.671 378.063 270.385 390.922 264.908L411.626 256.089C433.746 246.667 454.366 272.13 440.551 291.807L427.62 310.226C419.589 321.665 422.083 337.413 433.256 345.81L451.246 359.331C470.465 373.776 458.723 404.365 434.774 402.239L412.358 400.25C398.436 399.014 386.045 409.048 384.359 422.923L381.645 445.263C378.745 469.13 346.383 474.256 336.249 452.453L326.764 432.045C320.873 419.37 305.988 413.657 293.129 419.134L272.425 427.953C250.305 437.375 229.685 411.912 243.501 392.234L256.432 373.816C264.463 362.377 261.969 346.629 250.796 338.232L232.806 324.711C213.586 310.266 225.328 279.677 249.277 281.802L271.693 283.792C285.615 285.028 298.006 274.994 299.692 261.119L302.407 238.779Z" stroke="white" stroke-width="2"/>
<path opacity="0.931035" d="M308.221 240.243C312.366 216.56 344.952 213.135 353.931 235.438L361.447 254.111C366.667 267.076 381.232 273.561 394.36 268.764L413.266 261.856C435.849 253.605 455.107 280.112 440.281 299.04L427.869 314.886C419.251 325.889 420.917 341.745 431.635 350.716L447.071 363.635C465.508 379.066 452.181 408.999 428.376 405.623L408.448 402.796C394.609 400.834 381.71 410.205 379.301 423.973L375.83 443.8C371.685 467.483 339.099 470.907 330.121 448.604L322.604 429.932C317.384 416.966 302.819 410.481 289.691 415.278L270.785 422.186C248.203 430.438 228.944 403.93 243.77 385.003L256.182 369.157C264.801 358.154 263.134 342.297 252.416 333.327L236.981 320.408C218.543 304.976 231.87 275.044 255.675 278.42L275.604 281.246C289.442 283.209 302.341 273.837 304.751 260.07L308.221 240.243Z" stroke="white" stroke-width="2"/>
<path opacity="0.965517" d="M313.773 242.023C319.152 218.589 351.872 216.875 359.671 239.617L365.43 256.41C369.963 269.631 384.17 276.869 397.53 272.766L414.501 267.554C437.484 260.496 455.329 287.975 439.533 306.101L427.869 319.484C418.687 330.021 419.521 345.943 429.755 355.462L442.753 367.553C460.358 383.928 445.483 413.122 421.887 408.505L404.466 405.096C390.749 402.412 377.377 411.095 374.25 424.718L370.279 442.02C364.9 465.454 332.179 467.168 324.38 444.426L318.622 427.633C314.088 414.412 299.882 407.174 286.521 411.277L269.551 416.489C246.567 423.547 228.722 396.068 244.518 377.942L256.182 364.559C265.365 354.022 264.53 338.1 254.296 328.581L241.298 316.49C223.693 300.115 238.569 270.921 262.164 275.538L279.586 278.947C293.302 281.631 306.674 272.948 309.801 259.325L313.773 242.023Z" stroke="white" stroke-width="2"/>
<path d="M319.045 244.095C325.643 220.976 358.408 220.976 365.006 244.095L369.226 258.881C373.062 272.321 386.87 280.293 400.427 276.895L415.342 273.157C438.663 267.311 455.046 295.686 438.322 312.96L427.627 324.008C417.906 334.049 417.906 349.993 427.627 360.035L438.322 371.082C455.046 388.356 438.663 416.732 415.342 410.886L400.427 407.148C386.87 403.749 373.062 411.721 369.226 425.161L365.006 439.947C358.408 463.067 325.643 463.067 319.045 439.947L314.825 425.161C310.99 411.721 297.182 403.749 283.624 407.148L268.71 410.886C245.388 416.732 229.006 388.356 245.729 371.082L256.424 360.035C266.146 349.993 266.146 334.049 256.424 324.008L245.729 312.96C229.006 295.686 245.388 267.311 268.71 273.157L283.624 276.895C297.182 280.293 310.99 272.321 314.825 258.881L319.045 244.095Z" stroke="white" stroke-width="2"/>
</svg>
