<svg width="10000" height="10000" viewBox="0 0 10000 10000" fill="none" xmlns="http://www.w3.org/2000/svg">
<g clip-path="url(#clip0_2104_208)">
<rect width="10000" height="10000" fill="#101010"/>
<path d="M0 -68C147.044 -68 147.044 94 294.089 94C441.133 94 441.133 -68 588.178 -68C735.222 -68 735.222 94 882.267 94C1029.31 94 1029.31 -68 1176.36 -68C1323.4 -68 1323.48 94 1470.52 94C1617.56 94 1617.56 -68 1764.61 -68C1911.65 -68 1911.65 94 2058.77 94C2205.89 94 2205.82 -68 2352.86 -68C2499.91 -68 2499.91 94 2646.95 94C2794 94 2793.99 -68 2941.04 -68C3088.08 -68 3088.16 94 3235.2 94C3382.25 94 3382.25 -68 3529.29 -68C3676.34 -68 3676.34 94 3823.38 94C3970.43 94 3970.43 -68 4117.47 -68C4264.52 -68 4264.52 94 4411.56 94C4558.6 94 4558.6 -68 4705.65 -68C4852.69 -68 4852.69 94 4999.74 94C5146.78 94 5146.78 -68 5293.83 -68C5440.87 -68 5440.95 94 5587.99 94C5735.03 94 5735.03 -68 5882.08 -68C6029.12 -68 6029.12 94 6176.24 94C6323.36 94 6323.29 -68 6470.33 -68C6617.38 -68 6617.38 94 6764.42 94C6911.47 94 6911.54 -68 7058.58 -68C7205.63 -68 7205.63 94 7352.67 94C7499.72 94 7499.79 -68 7646.84 -68C7793.88 -68 7793.88 94 7941 94C8088.12 94 8088.05 -68 8235.09 -68C8382.13 -68 8382.14 94 8529.18 94C8676.22 94 8676.3 -68 8823.34 -68C8970.39 -68 8970.46 94 9117.51 94C9264.55 94 9264.55 -68 9411.67 -68C9558.79 -68 9558.72 94 9705.84 94C9852.96 94 9852.96 -68 10000 -68" stroke="#2A2A2A" stroke-width="7" stroke-miterlimit="10"/>
<path d="M0 3484C147.044 3484 147.044 3646 294.089 3646C441.133 3646 441.133 3484 588.178 3484C735.222 3484 735.222 3646 882.267 3646C1029.31 3646 1029.31 3484 1176.36 3484C1323.4 3484 1323.48 3646 1470.52 3646C1617.56 3646 1617.56 3484 1764.61 3484C1911.65 3484 1911.65 3646 2058.77 3646C2205.89 3646 2205.82 3484 2352.86 3484C2499.91 3484 2499.91 3646 2646.95 3646C2794 3646 2793.99 3484 2941.04 3484C3088.08 3484 3088.16 3646 3235.2 3646C3382.25 3646 3382.25 3484 3529.29 3484C3676.34 3484 3676.34 3646 3823.38 3646C3970.43 3646 3970.43 3484 4117.47 3484C4264.52 3484 4264.52 3646 4411.56 3646C4558.6 3646 4558.6 3484 4705.65 3484C4852.69 3484 4852.69 3646 4999.74 3646C5146.78 3646 5146.78 3484 5293.83 3484C5440.87 3484 5440.95 3646 5587.99 3646C5735.03 3646 5735.03 3484 5882.08 3484C6029.12 3484 6029.12 3646 6176.24 3646C6323.36 3646 6323.29 3484 6470.33 3484C6617.38 3484 6617.38 3646 6764.42 3646C6911.47 3646 6911.54 3484 7058.58 3484C7205.63 3484 7205.63 3646 7352.67 3646C7499.72 3646 7499.79 3484 7646.84 3484C7793.88 3484 7793.88 3646 7941 3646C8088.12 3646 8088.05 3484 8235.09 3484C8382.13 3484 8382.14 3646 8529.18 3646C8676.22 3646 8676.3 3484 8823.34 3484C8970.39 3484 8970.46 3646 9117.51 3646C9264.55 3646 9264.55 3484 9411.67 3484C9558.79 3484 9558.72 3646 9705.84 3646C9852.96 3646 9852.96 3484 10000 3484" stroke="#2A2A2A" stroke-width="7" stroke-miterlimit="10"/>
<path d="M0 1708C147.044 1708 147.044 1870 294.089 1870C441.133 1870 441.133 1708 588.178 1708C735.222 1708 735.222 1870 882.267 1870C1029.31 1870 1029.31 1708 1176.36 1708C1323.4 1708 1323.48 1870 1470.52 1870C1617.56 1870 1617.56 1708 1764.61 1708C1911.65 1708 1911.65 1870 2058.77 1870C2205.89 1870 2205.82 1708 2352.86 1708C2499.91 1708 2499.91 1870 2646.95 1870C2794 1870 2793.99 1708 2941.04 1708C3088.08 1708 3088.16 1870 3235.2 1870C3382.25 1870 3382.25 1708 3529.29 1708C3676.34 1708 3676.34 1870 3823.38 1870C3970.43 1870 3970.43 1708 4117.47 1708C4264.52 1708 4264.52 1870 4411.56 1870C4558.6 1870 4558.6 1708 4705.65 1708C4852.69 1708 4852.69 1870 4999.74 1870C5146.78 1870 5146.78 1708 5293.83 1708C5440.87 1708 5440.95 1870 5587.99 1870C5735.03 1870 5735.03 1708 5882.08 1708C6029.12 1708 6029.12 1870 6176.24 1870C6323.36 1870 6323.29 1708 6470.33 1708C6617.38 1708 6617.38 1870 6764.42 1870C6911.47 1870 6911.54 1708 7058.58 1708C7205.63 1708 7205.63 1870 7352.67 1870C7499.72 1870 7499.79 1708 7646.84 1708C7793.88 1708 7793.88 1870 7941 1870C8088.12 1870 8088.05 1708 8235.09 1708C8382.13 1708 8382.14 1870 8529.18 1870C8676.22 1870 8676.3 1708 8823.34 1708C8970.39 1708 8970.46 1870 9117.51 1870C9264.55 1870 9264.55 1708 9411.67 1708C9558.79 1708 9558.72 1870 9705.84 1870C9852.96 1870 9852.96 1708 10000 1708" stroke="#2A2A2A" stroke-width="7" stroke-miterlimit="10"/>
<path d="M0 5260C147.044 5260 147.044 5422 294.089 5422C441.133 5422 441.133 5260 588.178 5260C735.222 5260 735.222 5422 882.267 5422C1029.31 5422 1029.31 5260 1176.36 5260C1323.4 5260 1323.48 5422 1470.52 5422C1617.56 5422 1617.56 5260 1764.61 5260C1911.65 5260 1911.65 5422 2058.77 5422C2205.89 5422 2205.82 5260 2352.86 5260C2499.91 5260 2499.91 5422 2646.95 5422C2794 5422 2793.99 5260 2941.04 5260C3088.08 5260 3088.16 5422 3235.2 5422C3382.25 5422 3382.25 5260 3529.29 5260C3676.34 5260 3676.34 5422 3823.38 5422C3970.43 5422 3970.43 5260 4117.47 5260C4264.52 5260 4264.52 5422 4411.56 5422C4558.6 5422 4558.6 5260 4705.65 5260C4852.69 5260 4852.69 5422 4999.74 5422C5146.78 5422 5146.78 5260 5293.83 5260C5440.87 5260 5440.95 5422 5587.99 5422C5735.03 5422 5735.03 5260 5882.08 5260C6029.12 5260 6029.12 5422 6176.24 5422C6323.36 5422 6323.29 5260 6470.33 5260C6617.38 5260 6617.38 5422 6764.42 5422C6911.47 5422 6911.54 5260 7058.58 5260C7205.63 5260 7205.63 5422 7352.67 5422C7499.72 5422 7499.79 5260 7646.84 5260C7793.88 5260 7793.88 5422 7941 5422C8088.12 5422 8088.05 5260 8235.09 5260C8382.13 5260 8382.14 5422 8529.18 5422C8676.22 5422 8676.3 5260 8823.34 5260C8970.39 5260 8970.46 5422 9117.51 5422C9264.55 5422 9264.55 5260 9411.67 5260C9558.79 5260 9558.72 5422 9705.84 5422C9852.96 5422 9852.96 5260 10000 5260" stroke="#2A2A2A" stroke-width="7" stroke-miterlimit="10"/>
<path d="M0 8590C147.044 8590 147.044 8752 294.089 8752C441.133 8752 441.133 8590 588.178 8590C735.222 8590 735.222 8752 882.267 8752C1029.31 8752 1029.31 8590 1176.36 8590C1323.4 8590 1323.48 8752 1470.52 8752C1617.56 8752 1617.56 8590 1764.61 8590C1911.65 8590 1911.65 8752 2058.77 8752C2205.89 8752 2205.82 8590 2352.86 8590C2499.91 8590 2499.91 8752 2646.95 8752C2794 8752 2793.99 8590 2941.04 8590C3088.08 8590 3088.16 8752 3235.2 8752C3382.25 8752 3382.25 8590 3529.29 8590C3676.34 8590 3676.34 8752 3823.38 8752C3970.43 8752 3970.43 8590 4117.47 8590C4264.52 8590 4264.52 8752 4411.56 8752C4558.6 8752 4558.6 8590 4705.65 8590C4852.69 8590 4852.69 8752 4999.74 8752C5146.78 8752 5146.78 8590 5293.83 8590C5440.87 8590 5440.95 8752 5587.99 8752C5735.03 8752 5735.03 8590 5882.08 8590C6029.12 8590 6029.12 8752 6176.24 8752C6323.36 8752 6323.29 8590 6470.33 8590C6617.38 8590 6617.38 8752 6764.42 8752C6911.47 8752 6911.54 8590 7058.58 8590C7205.63 8590 7205.63 8752 7352.67 8752C7499.72 8752 7499.79 8590 7646.84 8590C7793.88 8590 7793.88 8752 7941 8752C8088.12 8752 8088.05 8590 8235.09 8590C8382.13 8590 8382.14 8752 8529.18 8752C8676.22 8752 8676.3 8590 8823.34 8590C8970.39 8590 8970.46 8752 9117.51 8752C9264.55 8752 9264.55 8590 9411.67 8590C9558.79 8590 9558.72 8752 9705.84 8752C9852.96 8752 9852.96 8590 10000 8590" stroke="#2A2A2A" stroke-width="7" stroke-miterlimit="10"/>
<path d="M0 820C147.044 820 147.044 982 294.089 982C441.133 982 441.133 820 588.178 820C735.222 820 735.222 982 882.267 982C1029.31 982 1029.31 820 1176.36 820C1323.4 820 1323.48 982 1470.52 982C1617.56 982 1617.56 820 1764.61 820C1911.65 820 1911.65 982 2058.77 982C2205.89 982 2205.82 820 2352.86 820C2499.91 820 2499.91 982 2646.95 982C2794 982 2793.99 820 2941.04 820C3088.08 820 3088.16 982 3235.2 982C3382.25 982 3382.25 820 3529.29 820C3676.34 820 3676.34 982 3823.38 982C3970.43 982 3970.43 820 4117.47 820C4264.52 820 4264.52 982 4411.56 982C4558.6 982 4558.6 820 4705.65 820C4852.69 820 4852.69 982 4999.74 982C5146.78 982 5146.78 820 5293.83 820C5440.87 820 5440.95 982 5587.99 982C5735.03 982 5735.03 820 5882.08 820C6029.12 820 6029.12 982 6176.24 982C6323.36 982 6323.29 820 6470.33 820C6617.38 820 6617.38 982 6764.42 982C6911.47 982 6911.54 820 7058.58 820C7205.63 820 7205.63 982 7352.67 982C7499.72 982 7499.79 820 7646.84 820C7793.88 820 7793.88 982 7941 982C8088.12 982 8088.05 820 8235.09 820C8382.13 820 8382.14 982 8529.18 982C8676.22 982 8676.3 820 8823.34 820C8970.39 820 8970.46 982 9117.51 982C9264.55 982 9264.55 820 9411.67 820C9558.79 820 9558.72 982 9705.84 982C9852.96 982 9852.96 820 10000 820" stroke="#2A2A2A" stroke-width="7" stroke-miterlimit="10"/>
<path d="M0 4372C147.044 4372 147.044 4534 294.089 4534C441.133 4534 441.133 4372 588.178 4372C735.222 4372 735.222 4534 882.267 4534C1029.31 4534 1029.31 4372 1176.36 4372C1323.4 4372 1323.48 4534 1470.52 4534C1617.56 4534 1617.56 4372 1764.61 4372C1911.65 4372 1911.65 4534 2058.77 4534C2205.89 4534 2205.82 4372 2352.86 4372C2499.91 4372 2499.91 4534 2646.95 4534C2794 4534 2793.99 4372 2941.04 4372C3088.08 4372 3088.16 4534 3235.2 4534C3382.25 4534 3382.25 4372 3529.29 4372C3676.34 4372 3676.34 4534 3823.38 4534C3970.43 4534 3970.43 4372 4117.47 4372C4264.52 4372 4264.52 4534 4411.56 4534C4558.6 4534 4558.6 4372 4705.65 4372C4852.69 4372 4852.69 4534 4999.74 4534C5146.78 4534 5146.78 4372 5293.83 4372C5440.87 4372 5440.95 4534 5587.99 4534C5735.03 4534 5735.03 4372 5882.08 4372C6029.12 4372 6029.12 4534 6176.24 4534C6323.36 4534 6323.29 4372 6470.33 4372C6617.38 4372 6617.38 4534 6764.42 4534C6911.47 4534 6911.54 4372 7058.58 4372C7205.63 4372 7205.63 4534 7352.67 4534C7499.72 4534 7499.79 4372 7646.84 4372C7793.88 4372 7793.88 4534 7941 4534C8088.12 4534 8088.05 4372 8235.09 4372C8382.13 4372 8382.14 4534 8529.18 4534C8676.22 4534 8676.3 4372 8823.34 4372C8970.39 4372 8970.46 4534 9117.51 4534C9264.55 4534 9264.55 4372 9411.67 4372C9558.79 4372 9558.72 4534 9705.84 4534C9852.96 4534 9852.96 4372 10000 4372" stroke="#2A2A2A" stroke-width="7" stroke-miterlimit="10"/>
<path d="M0 7702C147.044 7702 147.044 7864 294.089 7864C441.133 7864 441.133 7702 588.178 7702C735.222 7702 735.222 7864 882.267 7864C1029.31 7864 1029.31 7702 1176.36 7702C1323.4 7702 1323.48 7864 1470.52 7864C1617.56 7864 1617.56 7702 1764.61 7702C1911.65 7702 1911.65 7864 2058.77 7864C2205.89 7864 2205.82 7702 2352.86 7702C2499.91 7702 2499.91 7864 2646.95 7864C2794 7864 2793.99 7702 2941.04 7702C3088.08 7702 3088.16 7864 3235.2 7864C3382.25 7864 3382.25 7702 3529.29 7702C3676.34 7702 3676.34 7864 3823.38 7864C3970.43 7864 3970.43 7702 4117.47 7702C4264.52 7702 4264.52 7864 4411.56 7864C4558.6 7864 4558.6 7702 4705.65 7702C4852.69 7702 4852.69 7864 4999.74 7864C5146.78 7864 5146.78 7702 5293.83 7702C5440.87 7702 5440.95 7864 5587.99 7864C5735.03 7864 5735.03 7702 5882.08 7702C6029.12 7702 6029.12 7864 6176.24 7864C6323.36 7864 6323.29 7702 6470.33 7702C6617.38 7702 6617.38 7864 6764.42 7864C6911.47 7864 6911.54 7702 7058.58 7702C7205.63 7702 7205.63 7864 7352.67 7864C7499.72 7864 7499.79 7702 7646.84 7702C7793.88 7702 7793.88 7864 7941 7864C8088.12 7864 8088.05 7702 8235.09 7702C8382.13 7702 8382.14 7864 8529.18 7864C8676.22 7864 8676.3 7702 8823.34 7702C8970.39 7702 8970.46 7864 9117.51 7864C9264.55 7864 9264.55 7702 9411.67 7702C9558.79 7702 9558.72 7864 9705.84 7864C9852.96 7864 9852.96 7702 10000 7702" stroke="#2A2A2A" stroke-width="7" stroke-miterlimit="10"/>
<path d="M0 2596C147.044 2596 147.044 2758 294.089 2758C441.133 2758 441.133 2596 588.178 2596C735.222 2596 735.222 2758 882.267 2758C1029.31 2758 1029.31 2596 1176.36 2596C1323.4 2596 1323.48 2758 1470.52 2758C1617.56 2758 1617.56 2596 1764.61 2596C1911.65 2596 1911.65 2758 2058.77 2758C2205.89 2758 2205.82 2596 2352.86 2596C2499.91 2596 2499.91 2758 2646.95 2758C2794 2758 2793.99 2596 2941.04 2596C3088.08 2596 3088.16 2758 3235.2 2758C3382.25 2758 3382.25 2596 3529.29 2596C3676.34 2596 3676.34 2758 3823.38 2758C3970.43 2758 3970.43 2596 4117.47 2596C4264.52 2596 4264.52 2758 4411.56 2758C4558.6 2758 4558.6 2596 4705.65 2596C4852.69 2596 4852.69 2758 4999.74 2758C5146.78 2758 5146.78 2596 5293.83 2596C5440.87 2596 5440.95 2758 5587.99 2758C5735.03 2758 5735.03 2596 5882.08 2596C6029.12 2596 6029.12 2758 6176.24 2758C6323.36 2758 6323.29 2596 6470.33 2596C6617.38 2596 6617.38 2758 6764.42 2758C6911.47 2758 6911.54 2596 7058.58 2596C7205.63 2596 7205.63 2758 7352.67 2758C7499.72 2758 7499.79 2596 7646.84 2596C7793.88 2596 7793.88 2758 7941 2758C8088.12 2758 8088.05 2596 8235.09 2596C8382.13 2596 8382.14 2758 8529.18 2758C8676.22 2758 8676.3 2596 8823.34 2596C8970.39 2596 8970.46 2758 9117.51 2758C9264.55 2758 9264.55 2596 9411.67 2596C9558.79 2596 9558.72 2758 9705.84 2758C9852.96 2758 9852.96 2596 10000 2596" stroke="#2A2A2A" stroke-width="7" stroke-miterlimit="10"/>
<path d="M0 6148C147.044 6148 147.044 6310 294.089 6310C441.133 6310 441.133 6148 588.178 6148C735.222 6148 735.222 6310 882.267 6310C1029.31 6310 1029.31 6148 1176.36 6148C1323.4 6148 1323.48 6310 1470.52 6310C1617.56 6310 1617.56 6148 1764.61 6148C1911.65 6148 1911.65 6310 2058.77 6310C2205.89 6310 2205.82 6148 2352.86 6148C2499.91 6148 2499.91 6310 2646.95 6310C2794 6310 2793.99 6148 2941.04 6148C3088.08 6148 3088.16 6310 3235.2 6310C3382.25 6310 3382.25 6148 3529.29 6148C3676.34 6148 3676.34 6310 3823.38 6310C3970.43 6310 3970.43 6148 4117.47 6148C4264.52 6148 4264.52 6310 4411.56 6310C4558.6 6310 4558.6 6148 4705.65 6148C4852.69 6148 4852.69 6310 4999.74 6310C5146.78 6310 5146.78 6148 5293.83 6148C5440.87 6148 5440.95 6310 5587.99 6310C5735.03 6310 5735.03 6148 5882.08 6148C6029.12 6148 6029.12 6310 6176.24 6310C6323.36 6310 6323.29 6148 6470.33 6148C6617.38 6148 6617.38 6310 6764.42 6310C6911.47 6310 6911.54 6148 7058.58 6148C7205.63 6148 7205.63 6310 7352.67 6310C7499.72 6310 7499.79 6148 7646.84 6148C7793.88 6148 7793.88 6310 7941 6310C8088.12 6310 8088.05 6148 8235.09 6148C8382.13 6148 8382.14 6310 8529.18 6310C8676.22 6310 8676.3 6148 8823.34 6148C8970.39 6148 8970.46 6310 9117.51 6310C9264.55 6310 9264.55 6148 9411.67 6148C9558.79 6148 9558.72 6310 9705.84 6310C9852.96 6310 9852.96 6148 10000 6148" stroke="#2A2A2A" stroke-width="7" stroke-miterlimit="10"/>
<path d="M0 9478C147.044 9478 147.044 9640 294.089 9640C441.133 9640 441.133 9478 588.178 9478C735.222 9478 735.222 9640 882.267 9640C1029.31 9640 1029.31 9478 1176.36 9478C1323.4 9478 1323.48 9640 1470.52 9640C1617.56 9640 1617.56 9478 1764.61 9478C1911.65 9478 1911.65 9640 2058.77 9640C2205.89 9640 2205.82 9478 2352.86 9478C2499.91 9478 2499.91 9640 2646.95 9640C2794 9640 2793.99 9478 2941.04 9478C3088.08 9478 3088.16 9640 3235.2 9640C3382.25 9640 3382.25 9478 3529.29 9478C3676.34 9478 3676.34 9640 3823.38 9640C3970.43 9640 3970.43 9478 4117.47 9478C4264.52 9478 4264.52 9640 4411.56 9640C4558.6 9640 4558.6 9478 4705.65 9478C4852.69 9478 4852.69 9640 4999.74 9640C5146.78 9640 5146.78 9478 5293.83 9478C5440.87 9478 5440.95 9640 5587.99 9640C5735.03 9640 5735.03 9478 5882.08 9478C6029.12 9478 6029.12 9640 6176.24 9640C6323.36 9640 6323.29 9478 6470.33 9478C6617.38 9478 6617.38 9640 6764.42 9640C6911.47 9640 6911.54 9478 7058.58 9478C7205.63 9478 7205.63 9640 7352.67 9640C7499.72 9640 7499.79 9478 7646.84 9478C7793.88 9478 7793.88 9640 7941 9640C8088.12 9640 8088.05 9478 8235.09 9478C8382.13 9478 8382.14 9640 8529.18 9640C8676.22 9640 8676.3 9478 8823.34 9478C8970.39 9478 8970.46 9640 9117.51 9640C9264.55 9640 9264.55 9478 9411.67 9478C9558.79 9478 9558.72 9640 9705.84 9640C9852.96 9640 9852.96 9478 10000 9478" stroke="#2A2A2A" stroke-width="7" stroke-miterlimit="10"/>
<path d="M0 376C147.044 376 147.044 538 294.089 538C441.133 538 441.133 376 588.178 376C735.222 376 735.222 538 882.267 538C1029.31 538 1029.31 376 1176.36 376C1323.4 376 1323.48 538 1470.52 538C1617.56 538 1617.56 376 1764.61 376C1911.65 376 1911.65 538 2058.77 538C2205.89 538 2205.82 376 2352.86 376C2499.91 376 2499.91 538 2646.95 538C2794 538 2793.99 376 2941.04 376C3088.08 376 3088.16 538 3235.2 538C3382.25 538 3382.25 376 3529.29 376C3676.34 376 3676.34 538 3823.38 538C3970.43 538 3970.43 376 4117.47 376C4264.52 376 4264.52 538 4411.56 538C4558.6 538 4558.6 376 4705.65 376C4852.69 376 4852.69 538 4999.74 538C5146.78 538 5146.78 376 5293.83 376C5440.87 376 5440.95 538 5587.99 538C5735.03 538 5735.03 376 5882.08 376C6029.12 376 6029.12 538 6176.24 538C6323.36 538 6323.29 376 6470.33 376C6617.38 376 6617.38 538 6764.42 538C6911.47 538 6911.54 376 7058.58 376C7205.63 376 7205.63 538 7352.67 538C7499.72 538 7499.79 376 7646.84 376C7793.88 376 7793.88 538 7941 538C8088.12 538 8088.05 376 8235.09 376C8382.13 376 8382.14 538 8529.18 538C8676.22 538 8676.3 376 8823.34 376C8970.39 376 8970.46 538 9117.51 538C9264.55 538 9264.55 376 9411.67 376C9558.79 376 9558.72 538 9705.84 538C9852.96 538 9852.96 376 10000 376" stroke="#2A2A2A" stroke-width="7" stroke-miterlimit="10"/>
<path d="M0 3928C147.044 3928 147.044 4090 294.089 4090C441.133 4090 441.133 3928 588.178 3928C735.222 3928 735.222 4090 882.267 4090C1029.31 4090 1029.31 3928 1176.36 3928C1323.4 3928 1323.48 4090 1470.52 4090C1617.56 4090 1617.56 3928 1764.61 3928C1911.65 3928 1911.65 4090 2058.77 4090C2205.89 4090 2205.82 3928 2352.86 3928C2499.91 3928 2499.91 4090 2646.95 4090C2794 4090 2793.99 3928 2941.04 3928C3088.08 3928 3088.16 4090 3235.2 4090C3382.25 4090 3382.25 3928 3529.29 3928C3676.34 3928 3676.34 4090 3823.38 4090C3970.43 4090 3970.43 3928 4117.47 3928C4264.52 3928 4264.52 4090 4411.56 4090C4558.6 4090 4558.6 3928 4705.65 3928C4852.69 3928 4852.69 4090 4999.74 4090C5146.78 4090 5146.78 3928 5293.83 3928C5440.87 3928 5440.95 4090 5587.99 4090C5735.03 4090 5735.03 3928 5882.08 3928C6029.12 3928 6029.12 4090 6176.24 4090C6323.36 4090 6323.29 3928 6470.33 3928C6617.38 3928 6617.38 4090 6764.42 4090C6911.47 4090 6911.54 3928 7058.58 3928C7205.63 3928 7205.63 4090 7352.67 4090C7499.72 4090 7499.79 3928 7646.84 3928C7793.88 3928 7793.88 4090 7941 4090C8088.12 4090 8088.05 3928 8235.09 3928C8382.13 3928 8382.14 4090 8529.18 4090C8676.22 4090 8676.3 3928 8823.34 3928C8970.39 3928 8970.46 4090 9117.51 4090C9264.55 4090 9264.55 3928 9411.67 3928C9558.79 3928 9558.72 4090 9705.84 4090C9852.96 4090 9852.96 3928 10000 3928" stroke="#2A2A2A" stroke-width="7" stroke-miterlimit="10"/>
<path d="M0 7258C147.044 7258 147.044 7420 294.089 7420C441.133 7420 441.133 7258 588.178 7258C735.222 7258 735.222 7420 882.267 7420C1029.31 7420 1029.31 7258 1176.36 7258C1323.4 7258 1323.48 7420 1470.52 7420C1617.56 7420 1617.56 7258 1764.61 7258C1911.65 7258 1911.65 7420 2058.77 7420C2205.89 7420 2205.82 7258 2352.86 7258C2499.91 7258 2499.91 7420 2646.95 7420C2794 7420 2793.99 7258 2941.04 7258C3088.08 7258 3088.16 7420 3235.2 7420C3382.25 7420 3382.25 7258 3529.29 7258C3676.34 7258 3676.34 7420 3823.38 7420C3970.43 7420 3970.43 7258 4117.47 7258C4264.52 7258 4264.52 7420 4411.56 7420C4558.6 7420 4558.6 7258 4705.65 7258C4852.69 7258 4852.69 7420 4999.74 7420C5146.78 7420 5146.78 7258 5293.83 7258C5440.87 7258 5440.95 7420 5587.99 7420C5735.03 7420 5735.03 7258 5882.08 7258C6029.12 7258 6029.12 7420 6176.24 7420C6323.36 7420 6323.29 7258 6470.33 7258C6617.38 7258 6617.38 7420 6764.42 7420C6911.47 7420 6911.54 7258 7058.58 7258C7205.63 7258 7205.63 7420 7352.67 7420C7499.72 7420 7499.79 7258 7646.84 7258C7793.88 7258 7793.88 7420 7941 7420C8088.12 7420 8088.05 7258 8235.09 7258C8382.13 7258 8382.14 7420 8529.18 7420C8676.22 7420 8676.3 7258 8823.34 7258C8970.39 7258 8970.46 7420 9117.51 7420C9264.55 7420 9264.55 7258 9411.67 7258C9558.79 7258 9558.72 7420 9705.84 7420C9852.96 7420 9852.96 7258 10000 7258" stroke="#2A2A2A" stroke-width="7" stroke-miterlimit="10"/>
<path d="M0 2152C147.044 2152 147.044 2314 294.089 2314C441.133 2314 441.133 2152 588.178 2152C735.222 2152 735.222 2314 882.267 2314C1029.31 2314 1029.31 2152 1176.36 2152C1323.4 2152 1323.48 2314 1470.52 2314C1617.56 2314 1617.56 2152 1764.61 2152C1911.65 2152 1911.65 2314 2058.77 2314C2205.89 2314 2205.82 2152 2352.86 2152C2499.91 2152 2499.91 2314 2646.95 2314C2794 2314 2793.99 2152 2941.04 2152C3088.08 2152 3088.16 2314 3235.2 2314C3382.25 2314 3382.25 2152 3529.29 2152C3676.34 2152 3676.34 2314 3823.38 2314C3970.43 2314 3970.43 2152 4117.47 2152C4264.52 2152 4264.52 2314 4411.56 2314C4558.6 2314 4558.6 2152 4705.65 2152C4852.69 2152 4852.69 2314 4999.74 2314C5146.78 2314 5146.78 2152 5293.83 2152C5440.87 2152 5440.95 2314 5587.99 2314C5735.03 2314 5735.03 2152 5882.08 2152C6029.12 2152 6029.12 2314 6176.24 2314C6323.36 2314 6323.29 2152 6470.33 2152C6617.38 2152 6617.38 2314 6764.42 2314C6911.47 2314 6911.54 2152 7058.58 2152C7205.63 2152 7205.63 2314 7352.67 2314C7499.72 2314 7499.79 2152 7646.84 2152C7793.88 2152 7793.88 2314 7941 2314C8088.12 2314 8088.05 2152 8235.09 2152C8382.13 2152 8382.14 2314 8529.18 2314C8676.22 2314 8676.3 2152 8823.34 2152C8970.39 2152 8970.46 2314 9117.51 2314C9264.55 2314 9264.55 2152 9411.67 2152C9558.79 2152 9558.72 2314 9705.84 2314C9852.96 2314 9852.96 2152 10000 2152" stroke="#2A2A2A" stroke-width="7" stroke-miterlimit="10"/>
<path d="M0 5704C147.044 5704 147.044 5866 294.089 5866C441.133 5866 441.133 5704 588.178 5704C735.222 5704 735.222 5866 882.267 5866C1029.31 5866 1029.31 5704 1176.36 5704C1323.4 5704 1323.48 5866 1470.52 5866C1617.56 5866 1617.56 5704 1764.61 5704C1911.65 5704 1911.65 5866 2058.77 5866C2205.89 5866 2205.82 5704 2352.86 5704C2499.91 5704 2499.91 5866 2646.95 5866C2794 5866 2793.99 5704 2941.04 5704C3088.08 5704 3088.16 5866 3235.2 5866C3382.25 5866 3382.25 5704 3529.29 5704C3676.34 5704 3676.34 5866 3823.38 5866C3970.43 5866 3970.43 5704 4117.47 5704C4264.52 5704 4264.52 5866 4411.56 5866C4558.6 5866 4558.6 5704 4705.65 5704C4852.69 5704 4852.69 5866 4999.74 5866C5146.78 5866 5146.78 5704 5293.83 5704C5440.87 5704 5440.95 5866 5587.99 5866C5735.03 5866 5735.03 5704 5882.08 5704C6029.12 5704 6029.12 5866 6176.24 5866C6323.36 5866 6323.29 5704 6470.33 5704C6617.38 5704 6617.38 5866 6764.42 5866C6911.47 5866 6911.54 5704 7058.58 5704C7205.63 5704 7205.63 5866 7352.67 5866C7499.72 5866 7499.79 5704 7646.84 5704C7793.88 5704 7793.88 5866 7941 5866C8088.12 5866 8088.05 5704 8235.09 5704C8382.13 5704 8382.14 5866 8529.18 5866C8676.22 5866 8676.3 5704 8823.34 5704C8970.39 5704 8970.46 5866 9117.51 5866C9264.55 5866 9264.55 5704 9411.67 5704C9558.79 5704 9558.72 5866 9705.84 5866C9852.96 5866 9852.96 5704 10000 5704" stroke="#2A2A2A" stroke-width="7" stroke-miterlimit="10"/>
<path d="M0 9034C147.044 9034 147.044 9196 294.089 9196C441.133 9196 441.133 9034 588.178 9034C735.222 9034 735.222 9196 882.267 9196C1029.31 9196 1029.31 9034 1176.36 9034C1323.4 9034 1323.48 9196 1470.52 9196C1617.56 9196 1617.56 9034 1764.61 9034C1911.65 9034 1911.65 9196 2058.77 9196C2205.89 9196 2205.82 9034 2352.86 9034C2499.91 9034 2499.91 9196 2646.95 9196C2794 9196 2793.99 9034 2941.04 9034C3088.08 9034 3088.16 9196 3235.2 9196C3382.25 9196 3382.25 9034 3529.29 9034C3676.34 9034 3676.34 9196 3823.38 9196C3970.43 9196 3970.43 9034 4117.47 9034C4264.52 9034 4264.52 9196 4411.56 9196C4558.6 9196 4558.6 9034 4705.65 9034C4852.69 9034 4852.69 9196 4999.74 9196C5146.78 9196 5146.78 9034 5293.83 9034C5440.87 9034 5440.95 9196 5587.99 9196C5735.03 9196 5735.03 9034 5882.08 9034C6029.12 9034 6029.12 9196 6176.24 9196C6323.36 9196 6323.29 9034 6470.33 9034C6617.38 9034 6617.38 9196 6764.42 9196C6911.47 9196 6911.54 9034 7058.58 9034C7205.63 9034 7205.63 9196 7352.67 9196C7499.72 9196 7499.79 9034 7646.84 9034C7793.88 9034 7793.88 9196 7941 9196C8088.12 9196 8088.05 9034 8235.09 9034C8382.13 9034 8382.14 9196 8529.18 9196C8676.22 9196 8676.3 9034 8823.34 9034C8970.39 9034 8970.46 9196 9117.51 9196C9264.55 9196 9264.55 9034 9411.67 9034C9558.79 9034 9558.72 9196 9705.84 9196C9852.96 9196 9852.96 9034 10000 9034" stroke="#2A2A2A" stroke-width="7" stroke-miterlimit="10"/>
<path d="M0 1264C147.044 1264 147.044 1426 294.089 1426C441.133 1426 441.133 1264 588.178 1264C735.222 1264 735.222 1426 882.267 1426C1029.31 1426 1029.31 1264 1176.36 1264C1323.4 1264 1323.48 1426 1470.52 1426C1617.56 1426 1617.56 1264 1764.61 1264C1911.65 1264 1911.65 1426 2058.77 1426C2205.89 1426 2205.82 1264 2352.86 1264C2499.91 1264 2499.91 1426 2646.95 1426C2794 1426 2793.99 1264 2941.04 1264C3088.08 1264 3088.16 1426 3235.2 1426C3382.25 1426 3382.25 1264 3529.29 1264C3676.34 1264 3676.34 1426 3823.38 1426C3970.43 1426 3970.43 1264 4117.47 1264C4264.52 1264 4264.52 1426 4411.56 1426C4558.6 1426 4558.6 1264 4705.65 1264C4852.69 1264 4852.69 1426 4999.74 1426C5146.78 1426 5146.78 1264 5293.83 1264C5440.87 1264 5440.95 1426 5587.99 1426C5735.03 1426 5735.03 1264 5882.08 1264C6029.12 1264 6029.12 1426 6176.24 1426C6323.36 1426 6323.29 1264 6470.33 1264C6617.38 1264 6617.38 1426 6764.42 1426C6911.47 1426 6911.54 1264 7058.58 1264C7205.63 1264 7205.63 1426 7352.67 1426C7499.72 1426 7499.79 1264 7646.84 1264C7793.88 1264 7793.88 1426 7941 1426C8088.12 1426 8088.05 1264 8235.09 1264C8382.13 1264 8382.14 1426 8529.18 1426C8676.22 1426 8676.3 1264 8823.34 1264C8970.39 1264 8970.46 1426 9117.51 1426C9264.55 1426 9264.55 1264 9411.67 1264C9558.79 1264 9558.72 1426 9705.84 1426C9852.96 1426 9852.96 1264 10000 1264" stroke="#2A2A2A" stroke-width="7" stroke-miterlimit="10"/>
<path d="M0 4816C147.044 4816 147.044 4978 294.089 4978C441.133 4978 441.133 4816 588.178 4816C735.222 4816 735.222 4978 882.267 4978C1029.31 4978 1029.31 4816 1176.36 4816C1323.4 4816 1323.48 4978 1470.52 4978C1617.56 4978 1617.56 4816 1764.61 4816C1911.65 4816 1911.65 4978 2058.77 4978C2205.89 4978 2205.82 4816 2352.86 4816C2499.91 4816 2499.91 4978 2646.95 4978C2794 4978 2793.99 4816 2941.04 4816C3088.08 4816 3088.16 4978 3235.2 4978C3382.25 4978 3382.25 4816 3529.29 4816C3676.34 4816 3676.34 4978 3823.38 4978C3970.43 4978 3970.43 4816 4117.47 4816C4264.52 4816 4264.52 4978 4411.56 4978C4558.6 4978 4558.6 4816 4705.65 4816C4852.69 4816 4852.69 4978 4999.74 4978C5146.78 4978 5146.78 4816 5293.83 4816C5440.87 4816 5440.95 4978 5587.99 4978C5735.03 4978 5735.03 4816 5882.08 4816C6029.12 4816 6029.12 4978 6176.24 4978C6323.36 4978 6323.29 4816 6470.33 4816C6617.38 4816 6617.38 4978 6764.42 4978C6911.47 4978 6911.54 4816 7058.58 4816C7205.63 4816 7205.63 4978 7352.67 4978C7499.72 4978 7499.79 4816 7646.84 4816C7793.88 4816 7793.88 4978 7941 4978C8088.12 4978 8088.05 4816 8235.09 4816C8382.13 4816 8382.14 4978 8529.18 4978C8676.22 4978 8676.3 4816 8823.34 4816C8970.39 4816 8970.46 4978 9117.51 4978C9264.55 4978 9264.55 4816 9411.67 4816C9558.79 4816 9558.72 4978 9705.84 4978C9852.96 4978 9852.96 4816 10000 4816" stroke="#2A2A2A" stroke-width="7" stroke-miterlimit="10"/>
<path d="M0 8146C147.044 8146 147.044 8308 294.089 8308C441.133 8308 441.133 8146 588.178 8146C735.222 8146 735.222 8308 882.267 8308C1029.31 8308 1029.31 8146 1176.36 8146C1323.4 8146 1323.48 8308 1470.52 8308C1617.56 8308 1617.56 8146 1764.61 8146C1911.65 8146 1911.65 8308 2058.77 8308C2205.89 8308 2205.82 8146 2352.86 8146C2499.91 8146 2499.91 8308 2646.95 8308C2794 8308 2793.99 8146 2941.04 8146C3088.08 8146 3088.16 8308 3235.2 8308C3382.25 8308 3382.25 8146 3529.29 8146C3676.34 8146 3676.34 8308 3823.38 8308C3970.43 8308 3970.43 8146 4117.47 8146C4264.52 8146 4264.52 8308 4411.56 8308C4558.6 8308 4558.6 8146 4705.65 8146C4852.69 8146 4852.69 8308 4999.74 8308C5146.78 8308 5146.78 8146 5293.83 8146C5440.87 8146 5440.95 8308 5587.99 8308C5735.03 8308 5735.03 8146 5882.08 8146C6029.12 8146 6029.12 8308 6176.24 8308C6323.36 8308 6323.29 8146 6470.33 8146C6617.38 8146 6617.38 8308 6764.42 8308C6911.47 8308 6911.54 8146 7058.58 8146C7205.63 8146 7205.63 8308 7352.67 8308C7499.72 8308 7499.79 8146 7646.84 8146C7793.88 8146 7793.88 8308 7941 8308C8088.12 8308 8088.05 8146 8235.09 8146C8382.13 8146 8382.14 8308 8529.18 8308C8676.22 8308 8676.3 8146 8823.34 8146C8970.39 8146 8970.46 8308 9117.51 8308C9264.55 8308 9264.55 8146 9411.67 8146C9558.79 8146 9558.72 8308 9705.84 8308C9852.96 8308 9852.96 8146 10000 8146" stroke="#2A2A2A" stroke-width="7" stroke-miterlimit="10"/>
<path d="M0 3040C147.044 3040 147.044 3202 294.089 3202C441.133 3202 441.133 3040 588.178 3040C735.222 3040 735.222 3202 882.267 3202C1029.31 3202 1029.31 3040 1176.36 3040C1323.4 3040 1323.48 3202 1470.52 3202C1617.56 3202 1617.56 3040 1764.61 3040C1911.65 3040 1911.65 3202 2058.77 3202C2205.89 3202 2205.82 3040 2352.86 3040C2499.91 3040 2499.91 3202 2646.95 3202C2794 3202 2793.99 3040 2941.04 3040C3088.08 3040 3088.16 3202 3235.2 3202C3382.25 3202 3382.25 3040 3529.29 3040C3676.34 3040 3676.34 3202 3823.38 3202C3970.43 3202 3970.43 3040 4117.47 3040C4264.52 3040 4264.52 3202 4411.56 3202C4558.6 3202 4558.6 3040 4705.65 3040C4852.69 3040 4852.69 3202 4999.74 3202C5146.78 3202 5146.78 3040 5293.83 3040C5440.87 3040 5440.95 3202 5587.99 3202C5735.03 3202 5735.03 3040 5882.08 3040C6029.12 3040 6029.12 3202 6176.24 3202C6323.36 3202 6323.29 3040 6470.33 3040C6617.38 3040 6617.38 3202 6764.42 3202C6911.47 3202 6911.54 3040 7058.58 3040C7205.63 3040 7205.63 3202 7352.67 3202C7499.72 3202 7499.79 3040 7646.84 3040C7793.88 3040 7793.88 3202 7941 3202C8088.12 3202 8088.05 3040 8235.09 3040C8382.13 3040 8382.14 3202 8529.18 3202C8676.22 3202 8676.3 3040 8823.34 3040C8970.39 3040 8970.46 3202 9117.51 3202C9264.55 3202 9264.55 3040 9411.67 3040C9558.79 3040 9558.72 3202 9705.84 3202C9852.96 3202 9852.96 3040 10000 3040" stroke="#2A2A2A" stroke-width="7" stroke-miterlimit="10"/>
<path d="M0 6592C147.044 6592 147.044 6754 294.089 6754C441.133 6754 441.133 6592 588.178 6592C735.222 6592 735.222 6754 882.267 6754C1029.31 6754 1029.31 6592 1176.36 6592C1323.4 6592 1323.48 6754 1470.52 6754C1617.56 6754 1617.56 6592 1764.61 6592C1911.65 6592 1911.65 6754 2058.77 6754C2205.89 6754 2205.82 6592 2352.86 6592C2499.91 6592 2499.91 6754 2646.95 6754C2794 6754 2793.99 6592 2941.04 6592C3088.08 6592 3088.16 6754 3235.2 6754C3382.25 6754 3382.25 6592 3529.29 6592C3676.34 6592 3676.34 6754 3823.38 6754C3970.43 6754 3970.43 6592 4117.47 6592C4264.52 6592 4264.52 6754 4411.56 6754C4558.6 6754 4558.6 6592 4705.65 6592C4852.69 6592 4852.69 6754 4999.74 6754C5146.78 6754 5146.78 6592 5293.83 6592C5440.87 6592 5440.95 6754 5587.99 6754C5735.03 6754 5735.03 6592 5882.08 6592C6029.12 6592 6029.12 6754 6176.24 6754C6323.36 6754 6323.29 6592 6470.33 6592C6617.38 6592 6617.38 6754 6764.42 6754C6911.47 6754 6911.54 6592 7058.58 6592C7205.63 6592 7205.63 6754 7352.67 6754C7499.72 6754 7499.79 6592 7646.84 6592C7793.88 6592 7793.88 6754 7941 6754C8088.12 6754 8088.05 6592 8235.09 6592C8382.13 6592 8382.14 6754 8529.18 6754C8676.22 6754 8676.3 6592 8823.34 6592C8970.39 6592 8970.46 6754 9117.51 6754C9264.55 6754 9264.55 6592 9411.67 6592C9558.79 6592 9558.72 6754 9705.84 6754C9852.96 6754 9852.96 6592 10000 6592" stroke="#2A2A2A" stroke-width="7" stroke-miterlimit="10"/>
<path d="M0 9922C147.044 9922 147.044 10084 294.089 10084C441.133 10084 441.133 9922 588.178 9922C735.222 9922 735.222 10084 882.267 10084C1029.31 10084 1029.31 9922 1176.36 9922C1323.4 9922 1323.48 10084 1470.52 10084C1617.56 10084 1617.56 9922 1764.61 9922C1911.65 9922 1911.65 10084 2058.77 10084C2205.89 10084 2205.82 9922 2352.86 9922C2499.91 9922 2499.91 10084 2646.95 10084C2794 10084 2793.99 9922 2941.04 9922C3088.08 9922 3088.16 10084 3235.2 10084C3382.25 10084 3382.25 9922 3529.29 9922C3676.34 9922 3676.34 10084 3823.38 10084C3970.43 10084 3970.43 9922 4117.47 9922C4264.52 9922 4264.52 10084 4411.56 10084C4558.6 10084 4558.6 9922 4705.65 9922C4852.69 9922 4852.69 10084 4999.74 10084C5146.78 10084 5146.78 9922 5293.83 9922C5440.87 9922 5440.95 10084 5587.99 10084C5735.03 10084 5735.03 9922 5882.08 9922C6029.12 9922 6029.12 10084 6176.24 10084C6323.36 10084 6323.29 9922 6470.33 9922C6617.38 9922 6617.38 10084 6764.42 10084C6911.47 10084 6911.54 9922 7058.58 9922C7205.63 9922 7205.63 10084 7352.67 10084C7499.72 10084 7499.79 9922 7646.84 9922C7793.88 9922 7793.88 10084 7941 10084C8088.12 10084 8088.05 9922 8235.09 9922C8382.13 9922 8382.14 10084 8529.18 10084C8676.22 10084 8676.3 9922 8823.34 9922C8970.39 9922 8970.46 10084 9117.51 10084C9264.55 10084 9264.55 9922 9411.67 9922C9558.79 9922 9558.72 10084 9705.84 10084C9852.96 10084 9852.96 9922 10000 9922" stroke="#2A2A2A" stroke-width="7" stroke-miterlimit="10"/>
<path d="M0 154C147.044 154 147.044 316 294.089 316C441.133 316 441.133 154 588.178 154C735.222 154 735.222 316 882.267 316C1029.31 316 1029.31 154 1176.36 154C1323.4 154 1323.48 316 1470.52 316C1617.56 316 1617.56 154 1764.61 154C1911.65 154 1911.65 316 2058.77 316C2205.89 316 2205.82 154 2352.86 154C2499.91 154 2499.91 316 2646.95 316C2794 316 2793.99 154 2941.04 154C3088.08 154 3088.16 316 3235.2 316C3382.25 316 3382.25 154 3529.29 154C3676.34 154 3676.34 316 3823.38 316C3970.43 316 3970.43 154 4117.47 154C4264.52 154 4264.52 316 4411.56 316C4558.6 316 4558.6 154 4705.65 154C4852.69 154 4852.69 316 4999.74 316C5146.78 316 5146.78 154 5293.83 154C5440.87 154 5440.95 316 5587.99 316C5735.03 316 5735.03 154 5882.08 154C6029.12 154 6029.12 316 6176.24 316C6323.36 316 6323.29 154 6470.33 154C6617.38 154 6617.38 316 6764.42 316C6911.47 316 6911.54 154 7058.58 154C7205.63 154 7205.63 316 7352.67 316C7499.72 316 7499.79 154 7646.84 154C7793.88 154 7793.88 316 7941 316C8088.12 316 8088.05 154 8235.09 154C8382.14 154 8382.14 316 8529.18 316C8676.23 316 8676.3 154 8823.34 154C8970.39 154 8970.46 316 9117.51 316C9264.55 316 9264.55 154 9411.67 154C9558.79 154 9558.72 316 9705.84 316C9852.96 316 9852.96 154 10000 154" stroke="#2A2A2A" stroke-width="7" stroke-miterlimit="10"/>
<path d="M0 3706C147.044 3706 147.044 3868 294.089 3868C441.133 3868 441.133 3706 588.178 3706C735.222 3706 735.222 3868 882.267 3868C1029.31 3868 1029.31 3706 1176.36 3706C1323.4 3706 1323.48 3868 1470.52 3868C1617.56 3868 1617.56 3706 1764.61 3706C1911.65 3706 1911.65 3868 2058.77 3868C2205.89 3868 2205.82 3706 2352.86 3706C2499.91 3706 2499.91 3868 2646.95 3868C2794 3868 2793.99 3706 2941.04 3706C3088.08 3706 3088.16 3868 3235.2 3868C3382.25 3868 3382.25 3706 3529.29 3706C3676.34 3706 3676.34 3868 3823.38 3868C3970.43 3868 3970.43 3706 4117.47 3706C4264.52 3706 4264.52 3868 4411.56 3868C4558.6 3868 4558.6 3706 4705.65 3706C4852.69 3706 4852.69 3868 4999.74 3868C5146.78 3868 5146.78 3706 5293.83 3706C5440.87 3706 5440.95 3868 5587.99 3868C5735.03 3868 5735.03 3706 5882.08 3706C6029.12 3706 6029.12 3868 6176.24 3868C6323.36 3868 6323.29 3706 6470.33 3706C6617.38 3706 6617.38 3868 6764.42 3868C6911.47 3868 6911.54 3706 7058.58 3706C7205.63 3706 7205.63 3868 7352.67 3868C7499.72 3868 7499.79 3706 7646.84 3706C7793.88 3706 7793.88 3868 7941 3868C8088.12 3868 8088.05 3706 8235.09 3706C8382.13 3706 8382.14 3868 8529.18 3868C8676.22 3868 8676.3 3706 8823.34 3706C8970.39 3706 8970.46 3868 9117.51 3868C9264.55 3868 9264.55 3706 9411.67 3706C9558.79 3706 9558.72 3868 9705.84 3868C9852.96 3868 9852.96 3706 10000 3706" stroke="#2A2A2A" stroke-width="7" stroke-miterlimit="10"/>
<path d="M0 7036C147.044 7036 147.044 7198 294.089 7198C441.133 7198 441.133 7036 588.178 7036C735.222 7036 735.222 7198 882.267 7198C1029.31 7198 1029.31 7036 1176.36 7036C1323.4 7036 1323.48 7198 1470.52 7198C1617.56 7198 1617.56 7036 1764.61 7036C1911.65 7036 1911.65 7198 2058.77 7198C2205.89 7198 2205.82 7036 2352.86 7036C2499.91 7036 2499.91 7198 2646.95 7198C2794 7198 2793.99 7036 2941.04 7036C3088.08 7036 3088.16 7198 3235.2 7198C3382.25 7198 3382.25 7036 3529.29 7036C3676.34 7036 3676.34 7198 3823.38 7198C3970.43 7198 3970.43 7036 4117.47 7036C4264.52 7036 4264.52 7198 4411.56 7198C4558.6 7198 4558.6 7036 4705.65 7036C4852.69 7036 4852.69 7198 4999.74 7198C5146.78 7198 5146.78 7036 5293.83 7036C5440.87 7036 5440.95 7198 5587.99 7198C5735.03 7198 5735.03 7036 5882.08 7036C6029.12 7036 6029.12 7198 6176.24 7198C6323.36 7198 6323.29 7036 6470.33 7036C6617.38 7036 6617.38 7198 6764.42 7198C6911.47 7198 6911.54 7036 7058.58 7036C7205.63 7036 7205.63 7198 7352.67 7198C7499.72 7198 7499.79 7036 7646.84 7036C7793.88 7036 7793.88 7198 7941 7198C8088.12 7198 8088.05 7036 8235.09 7036C8382.13 7036 8382.14 7198 8529.18 7198C8676.22 7198 8676.3 7036 8823.34 7036C8970.39 7036 8970.46 7198 9117.51 7198C9264.55 7198 9264.55 7036 9411.67 7036C9558.79 7036 9558.72 7198 9705.84 7198C9852.96 7198 9852.96 7036 10000 7036" stroke="#2A2A2A" stroke-width="7" stroke-miterlimit="10"/>
<path d="M0 1930C147.044 1930 147.044 2092 294.089 2092C441.133 2092 441.133 1930 588.178 1930C735.222 1930 735.222 2092 882.267 2092C1029.31 2092 1029.31 1930 1176.36 1930C1323.4 1930 1323.48 2092 1470.52 2092C1617.56 2092 1617.56 1930 1764.61 1930C1911.65 1930 1911.65 2092 2058.77 2092C2205.89 2092 2205.82 1930 2352.86 1930C2499.91 1930 2499.91 2092 2646.95 2092C2794 2092 2793.99 1930 2941.04 1930C3088.08 1930 3088.16 2092 3235.2 2092C3382.25 2092 3382.25 1930 3529.29 1930C3676.34 1930 3676.34 2092 3823.38 2092C3970.43 2092 3970.43 1930 4117.47 1930C4264.52 1930 4264.52 2092 4411.56 2092C4558.6 2092 4558.6 1930 4705.65 1930C4852.69 1930 4852.69 2092 4999.74 2092C5146.78 2092 5146.78 1930 5293.83 1930C5440.87 1930 5440.95 2092 5587.99 2092C5735.03 2092 5735.03 1930 5882.08 1930C6029.12 1930 6029.12 2092 6176.24 2092C6323.36 2092 6323.29 1930 6470.33 1930C6617.38 1930 6617.38 2092 6764.42 2092C6911.47 2092 6911.54 1930 7058.58 1930C7205.63 1930 7205.63 2092 7352.67 2092C7499.72 2092 7499.79 1930 7646.84 1930C7793.88 1930 7793.88 2092 7941 2092C8088.12 2092 8088.05 1930 8235.09 1930C8382.13 1930 8382.14 2092 8529.18 2092C8676.22 2092 8676.3 1930 8823.34 1930C8970.39 1930 8970.46 2092 9117.51 2092C9264.55 2092 9264.55 1930 9411.67 1930C9558.79 1930 9558.72 2092 9705.84 2092C9852.96 2092 9852.96 1930 10000 1930" stroke="#2A2A2A" stroke-width="7" stroke-miterlimit="10"/>
<path d="M0 5482C147.044 5482 147.044 5644 294.089 5644C441.133 5644 441.133 5482 588.178 5482C735.222 5482 735.222 5644 882.267 5644C1029.31 5644 1029.31 5482 1176.36 5482C1323.4 5482 1323.48 5644 1470.52 5644C1617.56 5644 1617.56 5482 1764.61 5482C1911.65 5482 1911.65 5644 2058.77 5644C2205.89 5644 2205.82 5482 2352.86 5482C2499.91 5482 2499.91 5644 2646.95 5644C2794 5644 2793.99 5482 2941.04 5482C3088.08 5482 3088.16 5644 3235.2 5644C3382.25 5644 3382.25 5482 3529.29 5482C3676.34 5482 3676.34 5644 3823.38 5644C3970.43 5644 3970.43 5482 4117.47 5482C4264.52 5482 4264.52 5644 4411.56 5644C4558.6 5644 4558.6 5482 4705.65 5482C4852.69 5482 4852.69 5644 4999.74 5644C5146.78 5644 5146.78 5482 5293.83 5482C5440.87 5482 5440.95 5644 5587.99 5644C5735.03 5644 5735.03 5482 5882.08 5482C6029.12 5482 6029.12 5644 6176.24 5644C6323.36 5644 6323.29 5482 6470.33 5482C6617.38 5482 6617.38 5644 6764.42 5644C6911.47 5644 6911.54 5482 7058.58 5482C7205.63 5482 7205.63 5644 7352.67 5644C7499.72 5644 7499.79 5482 7646.84 5482C7793.88 5482 7793.88 5644 7941 5644C8088.12 5644 8088.05 5482 8235.09 5482C8382.13 5482 8382.14 5644 8529.18 5644C8676.22 5644 8676.3 5482 8823.34 5482C8970.39 5482 8970.46 5644 9117.51 5644C9264.55 5644 9264.55 5482 9411.67 5482C9558.79 5482 9558.72 5644 9705.84 5644C9852.96 5644 9852.96 5482 10000 5482" stroke="#2A2A2A" stroke-width="7" stroke-miterlimit="10"/>
<path d="M0 8812C147.044 8812 147.044 8974 294.089 8974C441.133 8974 441.133 8812 588.178 8812C735.222 8812 735.222 8974 882.267 8974C1029.31 8974 1029.31 8812 1176.36 8812C1323.4 8812 1323.48 8974 1470.52 8974C1617.56 8974 1617.56 8812 1764.61 8812C1911.65 8812 1911.65 8974 2058.77 8974C2205.89 8974 2205.82 8812 2352.86 8812C2499.91 8812 2499.91 8974 2646.95 8974C2794 8974 2793.99 8812 2941.04 8812C3088.08 8812 3088.16 8974 3235.2 8974C3382.25 8974 3382.25 8812 3529.29 8812C3676.34 8812 3676.34 8974 3823.38 8974C3970.43 8974 3970.43 8812 4117.47 8812C4264.52 8812 4264.52 8974 4411.56 8974C4558.6 8974 4558.6 8812 4705.65 8812C4852.69 8812 4852.69 8974 4999.74 8974C5146.78 8974 5146.78 8812 5293.83 8812C5440.87 8812 5440.95 8974 5587.99 8974C5735.03 8974 5735.03 8812 5882.08 8812C6029.12 8812 6029.12 8974 6176.24 8974C6323.36 8974 6323.29 8812 6470.33 8812C6617.38 8812 6617.38 8974 6764.42 8974C6911.47 8974 6911.54 8812 7058.58 8812C7205.63 8812 7205.63 8974 7352.67 8974C7499.72 8974 7499.79 8812 7646.84 8812C7793.88 8812 7793.88 8974 7941 8974C8088.12 8974 8088.05 8812 8235.09 8812C8382.13 8812 8382.14 8974 8529.18 8974C8676.22 8974 8676.3 8812 8823.34 8812C8970.39 8812 8970.46 8974 9117.51 8974C9264.55 8974 9264.55 8812 9411.67 8812C9558.79 8812 9558.72 8974 9705.84 8974C9852.96 8974 9852.96 8812 10000 8812" stroke="#2A2A2A" stroke-width="7" stroke-miterlimit="10"/>
<path d="M0 1042C147.044 1042 147.044 1204 294.089 1204C441.133 1204 441.133 1042 588.178 1042C735.222 1042 735.222 1204 882.267 1204C1029.31 1204 1029.31 1042 1176.36 1042C1323.4 1042 1323.48 1204 1470.52 1204C1617.56 1204 1617.56 1042 1764.61 1042C1911.65 1042 1911.65 1204 2058.77 1204C2205.89 1204 2205.82 1042 2352.86 1042C2499.91 1042 2499.91 1204 2646.95 1204C2794 1204 2793.99 1042 2941.04 1042C3088.08 1042 3088.16 1204 3235.2 1204C3382.25 1204 3382.25 1042 3529.29 1042C3676.34 1042 3676.34 1204 3823.38 1204C3970.43 1204 3970.43 1042 4117.47 1042C4264.52 1042 4264.52 1204 4411.56 1204C4558.6 1204 4558.6 1042 4705.65 1042C4852.69 1042 4852.69 1204 4999.74 1204C5146.78 1204 5146.78 1042 5293.83 1042C5440.87 1042 5440.95 1204 5587.99 1204C5735.03 1204 5735.03 1042 5882.08 1042C6029.12 1042 6029.12 1204 6176.24 1204C6323.36 1204 6323.29 1042 6470.33 1042C6617.38 1042 6617.38 1204 6764.42 1204C6911.47 1204 6911.54 1042 7058.58 1042C7205.63 1042 7205.63 1204 7352.67 1204C7499.72 1204 7499.79 1042 7646.84 1042C7793.88 1042 7793.88 1204 7941 1204C8088.12 1204 8088.05 1042 8235.09 1042C8382.13 1042 8382.14 1204 8529.18 1204C8676.22 1204 8676.3 1042 8823.34 1042C8970.39 1042 8970.46 1204 9117.51 1204C9264.55 1204 9264.55 1042 9411.67 1042C9558.79 1042 9558.72 1204 9705.84 1204C9852.96 1204 9852.96 1042 10000 1042" stroke="#2A2A2A" stroke-width="7" stroke-miterlimit="10"/>
<path d="M0 4594C147.044 4594 147.044 4756 294.089 4756C441.133 4756 441.133 4594 588.178 4594C735.222 4594 735.222 4756 882.267 4756C1029.31 4756 1029.31 4594 1176.36 4594C1323.4 4594 1323.48 4756 1470.52 4756C1617.56 4756 1617.56 4594 1764.61 4594C1911.65 4594 1911.65 4756 2058.77 4756C2205.89 4756 2205.82 4594 2352.86 4594C2499.91 4594 2499.91 4756 2646.95 4756C2794 4756 2793.99 4594 2941.04 4594C3088.08 4594 3088.16 4756 3235.2 4756C3382.25 4756 3382.25 4594 3529.29 4594C3676.34 4594 3676.34 4756 3823.38 4756C3970.43 4756 3970.43 4594 4117.47 4594C4264.52 4594 4264.52 4756 4411.56 4756C4558.6 4756 4558.6 4594 4705.65 4594C4852.69 4594 4852.69 4756 4999.74 4756C5146.78 4756 5146.78 4594 5293.83 4594C5440.87 4594 5440.95 4756 5587.99 4756C5735.03 4756 5735.03 4594 5882.08 4594C6029.12 4594 6029.12 4756 6176.24 4756C6323.36 4756 6323.29 4594 6470.33 4594C6617.38 4594 6617.38 4756 6764.42 4756C6911.47 4756 6911.54 4594 7058.58 4594C7205.63 4594 7205.63 4756 7352.67 4756C7499.72 4756 7499.79 4594 7646.84 4594C7793.88 4594 7793.88 4756 7941 4756C8088.12 4756 8088.05 4594 8235.09 4594C8382.13 4594 8382.14 4756 8529.18 4756C8676.22 4756 8676.3 4594 8823.34 4594C8970.39 4594 8970.46 4756 9117.51 4756C9264.55 4756 9264.55 4594 9411.67 4594C9558.79 4594 9558.72 4756 9705.84 4756C9852.96 4756 9852.96 4594 10000 4594" stroke="#2A2A2A" stroke-width="7" stroke-miterlimit="10"/>
<path d="M0 7924C147.044 7924 147.044 8086 294.089 8086C441.133 8086 441.133 7924 588.178 7924C735.222 7924 735.222 8086 882.267 8086C1029.31 8086 1029.31 7924 1176.36 7924C1323.4 7924 1323.48 8086 1470.52 8086C1617.56 8086 1617.56 7924 1764.61 7924C1911.65 7924 1911.65 8086 2058.77 8086C2205.89 8086 2205.82 7924 2352.86 7924C2499.91 7924 2499.91 8086 2646.95 8086C2794 8086 2793.99 7924 2941.04 7924C3088.08 7924 3088.16 8086 3235.2 8086C3382.25 8086 3382.25 7924 3529.29 7924C3676.34 7924 3676.34 8086 3823.38 8086C3970.43 8086 3970.43 7924 4117.47 7924C4264.52 7924 4264.52 8086 4411.56 8086C4558.6 8086 4558.6 7924 4705.65 7924C4852.69 7924 4852.69 8086 4999.74 8086C5146.78 8086 5146.78 7924 5293.83 7924C5440.87 7924 5440.95 8086 5587.99 8086C5735.03 8086 5735.03 7924 5882.08 7924C6029.12 7924 6029.12 8086 6176.24 8086C6323.36 8086 6323.29 7924 6470.33 7924C6617.38 7924 6617.38 8086 6764.42 8086C6911.47 8086 6911.54 7924 7058.58 7924C7205.63 7924 7205.63 8086 7352.67 8086C7499.72 8086 7499.79 7924 7646.84 7924C7793.88 7924 7793.88 8086 7941 8086C8088.12 8086 8088.05 7924 8235.09 7924C8382.13 7924 8382.14 8086 8529.18 8086C8676.22 8086 8676.3 7924 8823.34 7924C8970.39 7924 8970.46 8086 9117.51 8086C9264.55 8086 9264.55 7924 9411.67 7924C9558.79 7924 9558.72 8086 9705.84 8086C9852.96 8086 9852.96 7924 10000 7924" stroke="#2A2A2A" stroke-width="7" stroke-miterlimit="10"/>
<path d="M0 2818C147.044 2818 147.044 2980 294.089 2980C441.133 2980 441.133 2818 588.178 2818C735.222 2818 735.222 2980 882.267 2980C1029.31 2980 1029.31 2818 1176.36 2818C1323.4 2818 1323.48 2980 1470.52 2980C1617.56 2980 1617.56 2818 1764.61 2818C1911.65 2818 1911.65 2980 2058.77 2980C2205.89 2980 2205.82 2818 2352.86 2818C2499.91 2818 2499.91 2980 2646.95 2980C2794 2980 2793.99 2818 2941.04 2818C3088.08 2818 3088.16 2980 3235.2 2980C3382.25 2980 3382.25 2818 3529.29 2818C3676.34 2818 3676.34 2980 3823.38 2980C3970.43 2980 3970.43 2818 4117.47 2818C4264.52 2818 4264.52 2980 4411.56 2980C4558.6 2980 4558.6 2818 4705.65 2818C4852.69 2818 4852.69 2980 4999.74 2980C5146.78 2980 5146.78 2818 5293.83 2818C5440.87 2818 5440.95 2980 5587.99 2980C5735.03 2980 5735.03 2818 5882.08 2818C6029.12 2818 6029.12 2980 6176.24 2980C6323.36 2980 6323.29 2818 6470.33 2818C6617.38 2818 6617.38 2980 6764.42 2980C6911.47 2980 6911.54 2818 7058.58 2818C7205.63 2818 7205.63 2980 7352.67 2980C7499.72 2980 7499.79 2818 7646.84 2818C7793.88 2818 7793.88 2980 7941 2980C8088.12 2980 8088.05 2818 8235.09 2818C8382.13 2818 8382.14 2980 8529.18 2980C8676.22 2980 8676.3 2818 8823.34 2818C8970.39 2818 8970.46 2980 9117.51 2980C9264.55 2980 9264.55 2818 9411.67 2818C9558.79 2818 9558.72 2980 9705.84 2980C9852.96 2980 9852.96 2818 10000 2818" stroke="#2A2A2A" stroke-width="7" stroke-miterlimit="10"/>
<path d="M0 6370C147.044 6370 147.044 6532 294.089 6532C441.133 6532 441.133 6370 588.178 6370C735.222 6370 735.222 6532 882.267 6532C1029.31 6532 1029.31 6370 1176.36 6370C1323.4 6370 1323.48 6532 1470.52 6532C1617.56 6532 1617.56 6370 1764.61 6370C1911.65 6370 1911.65 6532 2058.77 6532C2205.89 6532 2205.82 6370 2352.86 6370C2499.91 6370 2499.91 6532 2646.95 6532C2794 6532 2793.99 6370 2941.04 6370C3088.08 6370 3088.16 6532 3235.2 6532C3382.25 6532 3382.25 6370 3529.29 6370C3676.34 6370 3676.34 6532 3823.38 6532C3970.43 6532 3970.43 6370 4117.47 6370C4264.52 6370 4264.52 6532 4411.56 6532C4558.6 6532 4558.6 6370 4705.65 6370C4852.69 6370 4852.69 6532 4999.74 6532C5146.78 6532 5146.78 6370 5293.83 6370C5440.87 6370 5440.95 6532 5587.99 6532C5735.03 6532 5735.03 6370 5882.08 6370C6029.12 6370 6029.12 6532 6176.24 6532C6323.36 6532 6323.29 6370 6470.33 6370C6617.38 6370 6617.38 6532 6764.42 6532C6911.47 6532 6911.54 6370 7058.58 6370C7205.63 6370 7205.63 6532 7352.67 6532C7499.72 6532 7499.79 6370 7646.84 6370C7793.88 6370 7793.88 6532 7941 6532C8088.12 6532 8088.05 6370 8235.09 6370C8382.13 6370 8382.14 6532 8529.18 6532C8676.22 6532 8676.3 6370 8823.34 6370C8970.39 6370 8970.46 6532 9117.51 6532C9264.55 6532 9264.55 6370 9411.67 6370C9558.79 6370 9558.72 6532 9705.84 6532C9852.96 6532 9852.96 6370 10000 6370" stroke="#2A2A2A" stroke-width="7" stroke-miterlimit="10"/>
<path d="M0 9700C147.044 9700 147.044 9862 294.089 9862C441.133 9862 441.133 9700 588.178 9700C735.222 9700 735.222 9862 882.267 9862C1029.31 9862 1029.31 9700 1176.36 9700C1323.4 9700 1323.48 9862 1470.52 9862C1617.56 9862 1617.56 9700 1764.61 9700C1911.65 9700 1911.65 9862 2058.77 9862C2205.89 9862 2205.82 9700 2352.86 9700C2499.91 9700 2499.91 9862 2646.95 9862C2794 9862 2793.99 9700 2941.04 9700C3088.08 9700 3088.16 9862 3235.2 9862C3382.25 9862 3382.25 9700 3529.29 9700C3676.34 9700 3676.34 9862 3823.38 9862C3970.43 9862 3970.43 9700 4117.47 9700C4264.52 9700 4264.52 9862 4411.56 9862C4558.6 9862 4558.6 9700 4705.65 9700C4852.69 9700 4852.69 9862 4999.74 9862C5146.78 9862 5146.78 9700 5293.83 9700C5440.87 9700 5440.95 9862 5587.99 9862C5735.03 9862 5735.03 9700 5882.08 9700C6029.12 9700 6029.12 9862 6176.24 9862C6323.36 9862 6323.29 9700 6470.33 9700C6617.38 9700 6617.38 9862 6764.42 9862C6911.47 9862 6911.54 9700 7058.58 9700C7205.63 9700 7205.63 9862 7352.67 9862C7499.72 9862 7499.79 9700 7646.84 9700C7793.88 9700 7793.88 9862 7941 9862C8088.12 9862 8088.05 9700 8235.09 9700C8382.13 9700 8382.14 9862 8529.18 9862C8676.22 9862 8676.3 9700 8823.34 9700C8970.39 9700 8970.46 9862 9117.51 9862C9264.55 9862 9264.55 9700 9411.67 9700C9558.79 9700 9558.72 9862 9705.84 9862C9852.96 9862 9852.96 9700 10000 9700" stroke="#2A2A2A" stroke-width="7" stroke-miterlimit="10"/>
<path d="M0 598C147.044 598 147.044 760 294.089 760C441.133 760 441.133 598 588.178 598C735.222 598 735.222 760 882.267 760C1029.31 760 1029.31 598 1176.36 598C1323.4 598 1323.48 760 1470.52 760C1617.56 760 1617.56 598 1764.61 598C1911.65 598 1911.65 760 2058.77 760C2205.89 760 2205.82 598 2352.86 598C2499.91 598 2499.91 760 2646.95 760C2794 760 2793.99 598 2941.04 598C3088.08 598 3088.16 760 3235.2 760C3382.25 760 3382.25 598 3529.29 598C3676.34 598 3676.34 760 3823.38 760C3970.43 760 3970.43 598 4117.47 598C4264.52 598 4264.52 760 4411.56 760C4558.6 760 4558.6 598 4705.65 598C4852.69 598 4852.69 760 4999.74 760C5146.78 760 5146.78 598 5293.83 598C5440.87 598 5440.95 760 5587.99 760C5735.03 760 5735.03 598 5882.08 598C6029.12 598 6029.12 760 6176.24 760C6323.36 760 6323.29 598 6470.33 598C6617.38 598 6617.38 760 6764.42 760C6911.47 760 6911.54 598 7058.58 598C7205.63 598 7205.63 760 7352.67 760C7499.72 760 7499.79 598 7646.84 598C7793.88 598 7793.88 760 7941 760C8088.12 760 8088.05 598 8235.09 598C8382.13 598 8382.14 760 8529.18 760C8676.22 760 8676.3 598 8823.34 598C8970.39 598 8970.46 760 9117.51 760C9264.55 760 9264.55 598 9411.67 598C9558.79 598 9558.72 760 9705.84 760C9852.96 760 9852.96 598 10000 598" stroke="#2A2A2A" stroke-width="7" stroke-miterlimit="10"/>
<path d="M0 4150C147.044 4150 147.044 4312 294.089 4312C441.133 4312 441.133 4150 588.178 4150C735.222 4150 735.222 4312 882.267 4312C1029.31 4312 1029.31 4150 1176.36 4150C1323.4 4150 1323.48 4312 1470.52 4312C1617.56 4312 1617.56 4150 1764.61 4150C1911.65 4150 1911.65 4312 2058.77 4312C2205.89 4312 2205.82 4150 2352.86 4150C2499.91 4150 2499.91 4312 2646.95 4312C2794 4312 2793.99 4150 2941.04 4150C3088.08 4150 3088.16 4312 3235.2 4312C3382.25 4312 3382.25 4150 3529.29 4150C3676.34 4150 3676.34 4312 3823.38 4312C3970.43 4312 3970.43 4150 4117.47 4150C4264.52 4150 4264.52 4312 4411.56 4312C4558.6 4312 4558.6 4150 4705.65 4150C4852.69 4150 4852.69 4312 4999.74 4312C5146.78 4312 5146.78 4150 5293.83 4150C5440.87 4150 5440.95 4312 5587.99 4312C5735.03 4312 5735.03 4150 5882.08 4150C6029.12 4150 6029.12 4312 6176.24 4312C6323.36 4312 6323.29 4150 6470.33 4150C6617.38 4150 6617.38 4312 6764.42 4312C6911.47 4312 6911.54 4150 7058.58 4150C7205.63 4150 7205.63 4312 7352.67 4312C7499.72 4312 7499.79 4150 7646.84 4150C7793.88 4150 7793.88 4312 7941 4312C8088.12 4312 8088.05 4150 8235.09 4150C8382.13 4150 8382.14 4312 8529.18 4312C8676.22 4312 8676.3 4150 8823.34 4150C8970.39 4150 8970.46 4312 9117.51 4312C9264.55 4312 9264.55 4150 9411.67 4150C9558.79 4150 9558.72 4312 9705.84 4312C9852.96 4312 9852.96 4150 10000 4150" stroke="#2A2A2A" stroke-width="7" stroke-miterlimit="10"/>
<path d="M0 7480C147.044 7480 147.044 7642 294.089 7642C441.133 7642 441.133 7480 588.178 7480C735.222 7480 735.222 7642 882.267 7642C1029.31 7642 1029.31 7480 1176.36 7480C1323.4 7480 1323.48 7642 1470.52 7642C1617.56 7642 1617.56 7480 1764.61 7480C1911.65 7480 1911.65 7642 2058.77 7642C2205.89 7642 2205.82 7480 2352.86 7480C2499.91 7480 2499.91 7642 2646.95 7642C2794 7642 2793.99 7480 2941.04 7480C3088.08 7480 3088.16 7642 3235.2 7642C3382.25 7642 3382.25 7480 3529.29 7480C3676.34 7480 3676.34 7642 3823.38 7642C3970.43 7642 3970.43 7480 4117.47 7480C4264.52 7480 4264.52 7642 4411.56 7642C4558.6 7642 4558.6 7480 4705.65 7480C4852.69 7480 4852.69 7642 4999.74 7642C5146.78 7642 5146.78 7480 5293.83 7480C5440.87 7480 5440.95 7642 5587.99 7642C5735.03 7642 5735.03 7480 5882.08 7480C6029.12 7480 6029.12 7642 6176.24 7642C6323.36 7642 6323.29 7480 6470.33 7480C6617.38 7480 6617.38 7642 6764.42 7642C6911.47 7642 6911.54 7480 7058.58 7480C7205.63 7480 7205.63 7642 7352.67 7642C7499.72 7642 7499.79 7480 7646.84 7480C7793.88 7480 7793.88 7642 7941 7642C8088.12 7642 8088.05 7480 8235.09 7480C8382.13 7480 8382.14 7642 8529.18 7642C8676.22 7642 8676.3 7480 8823.34 7480C8970.39 7480 8970.46 7642 9117.51 7642C9264.55 7642 9264.55 7480 9411.67 7480C9558.79 7480 9558.72 7642 9705.84 7642C9852.96 7642 9852.96 7480 10000 7480" stroke="#2A2A2A" stroke-width="7" stroke-miterlimit="10"/>
<path d="M0 2374C147.044 2374 147.044 2536 294.089 2536C441.133 2536 441.133 2374 588.178 2374C735.222 2374 735.222 2536 882.267 2536C1029.31 2536 1029.31 2374 1176.36 2374C1323.4 2374 1323.48 2536 1470.52 2536C1617.56 2536 1617.56 2374 1764.61 2374C1911.65 2374 1911.65 2536 2058.77 2536C2205.89 2536 2205.82 2374 2352.86 2374C2499.91 2374 2499.91 2536 2646.95 2536C2794 2536 2793.99 2374 2941.04 2374C3088.08 2374 3088.16 2536 3235.2 2536C3382.25 2536 3382.25 2374 3529.29 2374C3676.34 2374 3676.34 2536 3823.38 2536C3970.43 2536 3970.43 2374 4117.47 2374C4264.52 2374 4264.52 2536 4411.56 2536C4558.6 2536 4558.6 2374 4705.65 2374C4852.69 2374 4852.69 2536 4999.74 2536C5146.78 2536 5146.78 2374 5293.83 2374C5440.87 2374 5440.95 2536 5587.99 2536C5735.03 2536 5735.03 2374 5882.08 2374C6029.12 2374 6029.12 2536 6176.24 2536C6323.36 2536 6323.29 2374 6470.33 2374C6617.38 2374 6617.38 2536 6764.42 2536C6911.47 2536 6911.54 2374 7058.58 2374C7205.63 2374 7205.63 2536 7352.67 2536C7499.72 2536 7499.79 2374 7646.84 2374C7793.88 2374 7793.88 2536 7941 2536C8088.12 2536 8088.05 2374 8235.09 2374C8382.13 2374 8382.14 2536 8529.18 2536C8676.22 2536 8676.3 2374 8823.34 2374C8970.39 2374 8970.46 2536 9117.51 2536C9264.55 2536 9264.55 2374 9411.67 2374C9558.79 2374 9558.72 2536 9705.84 2536C9852.96 2536 9852.96 2374 10000 2374" stroke="#2A2A2A" stroke-width="7" stroke-miterlimit="10"/>
<path d="M0 5926C147.044 5926 147.044 6088 294.089 6088C441.133 6088 441.133 5926 588.178 5926C735.222 5926 735.222 6088 882.267 6088C1029.31 6088 1029.31 5926 1176.36 5926C1323.4 5926 1323.48 6088 1470.52 6088C1617.56 6088 1617.56 5926 1764.61 5926C1911.65 5926 1911.65 6088 2058.77 6088C2205.89 6088 2205.82 5926 2352.86 5926C2499.91 5926 2499.91 6088 2646.95 6088C2794 6088 2793.99 5926 2941.04 5926C3088.08 5926 3088.16 6088 3235.2 6088C3382.25 6088 3382.25 5926 3529.29 5926C3676.34 5926 3676.34 6088 3823.38 6088C3970.43 6088 3970.43 5926 4117.47 5926C4264.52 5926 4264.52 6088 4411.56 6088C4558.6 6088 4558.6 5926 4705.65 5926C4852.69 5926 4852.69 6088 4999.74 6088C5146.78 6088 5146.78 5926 5293.83 5926C5440.87 5926 5440.95 6088 5587.99 6088C5735.03 6088 5735.03 5926 5882.08 5926C6029.12 5926 6029.12 6088 6176.24 6088C6323.36 6088 6323.29 5926 6470.33 5926C6617.38 5926 6617.38 6088 6764.42 6088C6911.47 6088 6911.54 5926 7058.58 5926C7205.63 5926 7205.63 6088 7352.67 6088C7499.72 6088 7499.79 5926 7646.84 5926C7793.88 5926 7793.88 6088 7941 6088C8088.12 6088 8088.05 5926 8235.09 5926C8382.13 5926 8382.14 6088 8529.18 6088C8676.22 6088 8676.3 5926 8823.34 5926C8970.39 5926 8970.46 6088 9117.51 6088C9264.55 6088 9264.55 5926 9411.67 5926C9558.79 5926 9558.72 6088 9705.84 6088C9852.96 6088 9852.96 5926 10000 5926" stroke="#2A2A2A" stroke-width="7" stroke-miterlimit="10"/>
<path d="M0 9256C147.044 9256 147.044 9418 294.089 9418C441.133 9418 441.133 9256 588.178 9256C735.222 9256 735.222 9418 882.267 9418C1029.31 9418 1029.31 9256 1176.36 9256C1323.4 9256 1323.48 9418 1470.52 9418C1617.56 9418 1617.56 9256 1764.61 9256C1911.65 9256 1911.65 9418 2058.77 9418C2205.89 9418 2205.82 9256 2352.86 9256C2499.91 9256 2499.91 9418 2646.95 9418C2794 9418 2793.99 9256 2941.04 9256C3088.08 9256 3088.16 9418 3235.2 9418C3382.25 9418 3382.25 9256 3529.29 9256C3676.34 9256 3676.34 9418 3823.38 9418C3970.43 9418 3970.43 9256 4117.47 9256C4264.52 9256 4264.52 9418 4411.56 9418C4558.6 9418 4558.6 9256 4705.65 9256C4852.69 9256 4852.69 9418 4999.74 9418C5146.78 9418 5146.78 9256 5293.83 9256C5440.87 9256 5440.95 9418 5587.99 9418C5735.03 9418 5735.03 9256 5882.08 9256C6029.12 9256 6029.12 9418 6176.24 9418C6323.36 9418 6323.29 9256 6470.33 9256C6617.38 9256 6617.38 9418 6764.42 9418C6911.47 9418 6911.54 9256 7058.58 9256C7205.63 9256 7205.63 9418 7352.67 9418C7499.72 9418 7499.79 9256 7646.84 9256C7793.88 9256 7793.88 9418 7941 9418C8088.12 9418 8088.05 9256 8235.09 9256C8382.13 9256 8382.14 9418 8529.18 9418C8676.22 9418 8676.3 9256 8823.34 9256C8970.39 9256 8970.46 9418 9117.51 9418C9264.55 9418 9264.55 9256 9411.67 9256C9558.79 9256 9558.72 9418 9705.84 9418C9852.96 9418 9852.96 9256 10000 9256" stroke="#2A2A2A" stroke-width="7" stroke-miterlimit="10"/>
<path d="M0 1486C147.044 1486 147.044 1648 294.089 1648C441.133 1648 441.133 1486 588.178 1486C735.222 1486 735.222 1648 882.267 1648C1029.31 1648 1029.31 1486 1176.36 1486C1323.4 1486 1323.48 1648 1470.52 1648C1617.56 1648 1617.56 1486 1764.61 1486C1911.65 1486 1911.65 1648 2058.77 1648C2205.89 1648 2205.82 1486 2352.86 1486C2499.91 1486 2499.91 1648 2646.95 1648C2794 1648 2793.99 1486 2941.04 1486C3088.08 1486 3088.16 1648 3235.2 1648C3382.25 1648 3382.25 1486 3529.29 1486C3676.34 1486 3676.34 1648 3823.38 1648C3970.43 1648 3970.43 1486 4117.47 1486C4264.52 1486 4264.52 1648 4411.56 1648C4558.6 1648 4558.6 1486 4705.65 1486C4852.69 1486 4852.69 1648 4999.74 1648C5146.78 1648 5146.78 1486 5293.83 1486C5440.87 1486 5440.95 1648 5587.99 1648C5735.03 1648 5735.03 1486 5882.08 1486C6029.12 1486 6029.12 1648 6176.24 1648C6323.36 1648 6323.29 1486 6470.33 1486C6617.38 1486 6617.38 1648 6764.42 1648C6911.47 1648 6911.54 1486 7058.58 1486C7205.63 1486 7205.63 1648 7352.67 1648C7499.72 1648 7499.79 1486 7646.84 1486C7793.88 1486 7793.88 1648 7941 1648C8088.12 1648 8088.05 1486 8235.09 1486C8382.13 1486 8382.14 1648 8529.18 1648C8676.22 1648 8676.3 1486 8823.34 1486C8970.39 1486 8970.46 1648 9117.51 1648C9264.55 1648 9264.55 1486 9411.67 1486C9558.79 1486 9558.72 1648 9705.84 1648C9852.96 1648 9852.96 1486 10000 1486" stroke="#2A2A2A" stroke-width="7" stroke-miterlimit="10"/>
<path d="M0 5038C147.044 5038 147.044 5200 294.089 5200C441.133 5200 441.133 5038 588.178 5038C735.222 5038 735.222 5200 882.267 5200C1029.31 5200 1029.31 5038 1176.36 5038C1323.4 5038 1323.48 5200 1470.52 5200C1617.56 5200 1617.56 5038 1764.61 5038C1911.65 5038 1911.65 5200 2058.77 5200C2205.89 5200 2205.82 5038 2352.86 5038C2499.91 5038 2499.91 5200 2646.95 5200C2794 5200 2793.99 5038 2941.04 5038C3088.08 5038 3088.16 5200 3235.2 5200C3382.25 5200 3382.25 5038 3529.29 5038C3676.34 5038 3676.34 5200 3823.38 5200C3970.43 5200 3970.43 5038 4117.47 5038C4264.52 5038 4264.52 5200 4411.56 5200C4558.6 5200 4558.6 5038 4705.65 5038C4852.69 5038 4852.69 5200 4999.74 5200C5146.78 5200 5146.78 5038 5293.83 5038C5440.87 5038 5440.95 5200 5587.99 5200C5735.03 5200 5735.03 5038 5882.08 5038C6029.12 5038 6029.12 5200 6176.24 5200C6323.36 5200 6323.29 5038 6470.33 5038C6617.38 5038 6617.38 5200 6764.42 5200C6911.47 5200 6911.54 5038 7058.58 5038C7205.63 5038 7205.63 5200 7352.67 5200C7499.72 5200 7499.79 5038 7646.84 5038C7793.88 5038 7793.88 5200 7941 5200C8088.12 5200 8088.05 5038 8235.09 5038C8382.13 5038 8382.14 5200 8529.18 5200C8676.22 5200 8676.3 5038 8823.34 5038C8970.39 5038 8970.46 5200 9117.51 5200C9264.55 5200 9264.55 5038 9411.67 5038C9558.79 5038 9558.72 5200 9705.84 5200C9852.96 5200 9852.96 5038 10000 5038" stroke="#2A2A2A" stroke-width="7" stroke-miterlimit="10"/>
<path d="M0 8368C147.044 8368 147.044 8530 294.089 8530C441.133 8530 441.133 8368 588.178 8368C735.222 8368 735.222 8530 882.267 8530C1029.31 8530 1029.31 8368 1176.36 8368C1323.4 8368 1323.48 8530 1470.52 8530C1617.56 8530 1617.56 8368 1764.61 8368C1911.65 8368 1911.65 8530 2058.77 8530C2205.89 8530 2205.82 8368 2352.86 8368C2499.91 8368 2499.91 8530 2646.95 8530C2794 8530 2793.99 8368 2941.04 8368C3088.08 8368 3088.16 8530 3235.2 8530C3382.25 8530 3382.25 8368 3529.29 8368C3676.34 8368 3676.34 8530 3823.38 8530C3970.43 8530 3970.43 8368 4117.47 8368C4264.52 8368 4264.52 8530 4411.56 8530C4558.6 8530 4558.6 8368 4705.65 8368C4852.69 8368 4852.69 8530 4999.74 8530C5146.78 8530 5146.78 8368 5293.83 8368C5440.87 8368 5440.95 8530 5587.99 8530C5735.03 8530 5735.03 8368 5882.08 8368C6029.12 8368 6029.12 8530 6176.24 8530C6323.36 8530 6323.29 8368 6470.33 8368C6617.38 8368 6617.38 8530 6764.42 8530C6911.47 8530 6911.54 8368 7058.58 8368C7205.63 8368 7205.63 8530 7352.67 8530C7499.72 8530 7499.79 8368 7646.84 8368C7793.88 8368 7793.88 8530 7941 8530C8088.12 8530 8088.05 8368 8235.09 8368C8382.13 8368 8382.14 8530 8529.18 8530C8676.22 8530 8676.3 8368 8823.34 8368C8970.39 8368 8970.46 8530 9117.51 8530C9264.55 8530 9264.55 8368 9411.67 8368C9558.79 8368 9558.72 8530 9705.84 8530C9852.96 8530 9852.96 8368 10000 8368" stroke="#2A2A2A" stroke-width="7" stroke-miterlimit="10"/>
<path d="M0 3262C147.044 3262 147.044 3424 294.089 3424C441.133 3424 441.133 3262 588.178 3262C735.222 3262 735.222 3424 882.267 3424C1029.31 3424 1029.31 3262 1176.36 3262C1323.4 3262 1323.48 3424 1470.52 3424C1617.56 3424 1617.56 3262 1764.61 3262C1911.65 3262 1911.65 3424 2058.77 3424C2205.89 3424 2205.82 3262 2352.86 3262C2499.91 3262 2499.91 3424 2646.95 3424C2794 3424 2793.99 3262 2941.04 3262C3088.08 3262 3088.16 3424 3235.2 3424C3382.25 3424 3382.25 3262 3529.29 3262C3676.34 3262 3676.34 3424 3823.38 3424C3970.43 3424 3970.43 3262 4117.47 3262C4264.52 3262 4264.52 3424 4411.56 3424C4558.6 3424 4558.6 3262 4705.65 3262C4852.69 3262 4852.69 3424 4999.74 3424C5146.78 3424 5146.78 3262 5293.83 3262C5440.87 3262 5440.95 3424 5587.99 3424C5735.03 3424 5735.03 3262 5882.08 3262C6029.12 3262 6029.12 3424 6176.24 3424C6323.36 3424 6323.29 3262 6470.33 3262C6617.38 3262 6617.38 3424 6764.42 3424C6911.47 3424 6911.54 3262 7058.58 3262C7205.63 3262 7205.63 3424 7352.67 3424C7499.72 3424 7499.79 3262 7646.84 3262C7793.88 3262 7793.88 3424 7941 3424C8088.12 3424 8088.05 3262 8235.09 3262C8382.13 3262 8382.14 3424 8529.18 3424C8676.22 3424 8676.3 3262 8823.34 3262C8970.39 3262 8970.46 3424 9117.51 3424C9264.55 3424 9264.55 3262 9411.67 3262C9558.79 3262 9558.72 3424 9705.84 3424C9852.96 3424 9852.96 3262 10000 3262" stroke="#2A2A2A" stroke-width="7" stroke-miterlimit="10"/>
<path d="M0 6814C147.044 6814 147.044 6976 294.089 6976C441.133 6976 441.133 6814 588.178 6814C735.222 6814 735.222 6976 882.267 6976C1029.31 6976 1029.31 6814 1176.36 6814C1323.4 6814 1323.48 6976 1470.52 6976C1617.56 6976 1617.56 6814 1764.61 6814C1911.65 6814 1911.65 6976 2058.77 6976C2205.89 6976 2205.82 6814 2352.86 6814C2499.91 6814 2499.91 6976 2646.95 6976C2794 6976 2793.99 6814 2941.04 6814C3088.08 6814 3088.16 6976 3235.2 6976C3382.25 6976 3382.25 6814 3529.29 6814C3676.34 6814 3676.34 6976 3823.38 6976C3970.43 6976 3970.43 6814 4117.47 6814C4264.52 6814 4264.52 6976 4411.56 6976C4558.6 6976 4558.6 6814 4705.65 6814C4852.69 6814 4852.69 6976 4999.74 6976C5146.78 6976 5146.78 6814 5293.83 6814C5440.87 6814 5440.95 6976 5587.99 6976C5735.03 6976 5735.03 6814 5882.08 6814C6029.12 6814 6029.12 6976 6176.24 6976C6323.36 6976 6323.29 6814 6470.33 6814C6617.38 6814 6617.38 6976 6764.42 6976C6911.47 6976 6911.54 6814 7058.58 6814C7205.63 6814 7205.63 6976 7352.67 6976C7499.72 6976 7499.79 6814 7646.84 6814C7793.88 6814 7793.88 6976 7941 6976C8088.12 6976 8088.05 6814 8235.09 6814C8382.13 6814 8382.14 6976 8529.18 6976C8676.22 6976 8676.3 6814 8823.34 6814C8970.39 6814 8970.46 6976 9117.51 6976C9264.55 6976 9264.55 6814 9411.67 6814C9558.79 6814 9558.72 6976 9705.84 6976C9852.96 6976 9852.96 6814 10000 6814" stroke="#2A2A2A" stroke-width="7" stroke-miterlimit="10"/>
</g>
<defs>
<clipPath id="clip0_2104_208">
<rect width="10000" height="10000" fill="white"/>
</clipPath>
</defs>
</svg>
