<svg width="765" height="765" viewBox="0 0 765 765" fill="none" xmlns="http://www.w3.org/2000/svg">
<path d="M263.071 574.819C148.498 574.806 121.133 417.605 192.114 370.184C270.773 317.631 204.785 278.835 222.473 205.024C241.361 126.21 348.844 124.976 348.844 124.976C357.449 124.551 365.825 124.346 374.024 124.346C671.132 124.346 702.199 395.855 542.557 411.386C432.698 422.075 451.058 527.804 303.306 568.96C288.878 572.979 275.47 574.82 263.071 574.819Z" fill="#E5E7F6"/>
<path d="M641.741 268.178C643.478 274.838 644.88 281.583 645.959 288.379C646.092 289.212 647.355 288.859 647.224 288.031C645.265 275.692 642.26 263.494 638.07 251.72C634.065 240.466 628.981 229.412 621.991 219.68C618.485 214.797 614.482 210.26 609.814 206.458C609.165 205.931 608.233 206.854 608.887 207.387C617.522 214.417 623.891 223.873 628.94 233.7" fill="#9FADDE"/>
<path d="M164.51 371.594C153.615 385.581 145.758 401.778 141.254 418.914C136.753 436.042 135.563 454.057 137.909 471.617C139.243 481.604 141.72 491.413 145.351 500.815C145.658 501.608 146.952 501.264 146.64 500.458C140.317 484.082 137.523 466.478 138.159 448.947C138.795 431.415 142.827 413.97 150.092 397.994C154.205 388.949 159.35 380.379 165.455 372.539C165.978 371.869 165.038 370.916 164.51 371.594Z" fill="#9FADDE"/>
<path d="M439.937 492.999C421.797 519.017 397.499 540.617 369.614 555.717C361.691 560.008 353.488 563.762 345.064 566.954C344.266 567.257 344.611 568.551 345.419 568.244C360.425 562.556 374.739 555.111 388.007 546.084C401.204 537.105 413.37 526.607 424.155 514.837C430.264 508.169 435.919 501.092 441.09 493.674C441.585 492.966 440.426 492.297 439.937 492.999Z" fill="#9FADDE"/>
<path d="M165.208 267.32L155.641 257.752L165.208 248.185L174.775 257.752L165.208 267.32ZM165.208 230.264C150.028 230.264 137.721 242.572 137.721 257.752C137.721 272.934 150.028 285.237 165.208 285.237C180.389 285.237 192.696 272.934 192.696 257.752C192.696 242.572 180.389 230.264 165.208 230.264Z" fill="#ED7A16"/>
<path d="M171.81 235.304H165.524V230.264H171.81V235.304Z" fill="#ED7A16"/>
<path d="M171.81 285.237H165.327V280.196H171.81V285.237Z" fill="#ED7A16"/>
<path d="M171.479 267.32L161.911 257.752L171.479 248.185L181.046 257.752L171.479 267.32ZM171.479 230.264C156.297 230.264 143.991 242.572 143.991 257.752C143.991 272.934 156.297 285.237 171.479 285.237C186.659 285.237 198.965 272.934 198.965 257.752C198.965 242.572 186.659 230.264 171.479 230.264Z" fill="#F9AF19"/>
<path d="M171.479 235.081C158.977 235.081 148.807 245.25 148.807 257.752C148.807 270.253 158.977 280.42 171.479 280.42C183.979 280.42 194.15 270.253 194.15 257.752C194.15 245.25 183.979 235.081 171.479 235.081ZM171.479 281.624C158.314 281.624 147.603 270.916 147.603 257.752C147.603 244.587 158.314 233.877 171.479 233.877C184.644 233.877 195.354 244.587 195.354 257.752C195.354 270.916 184.644 281.624 171.479 281.624Z" fill="#ED7A16"/>
<path d="M439.754 577.116L430.186 567.547L439.754 557.981L449.321 567.547L439.754 577.116ZM439.754 540.061C424.574 540.061 412.266 552.367 412.266 567.547C412.266 582.729 424.574 595.033 439.754 595.033C454.935 595.033 467.241 582.729 467.241 567.547C467.241 552.367 454.935 540.061 439.754 540.061Z" fill="#ED7A16"/>
<path d="M446.356 545.101H440.07V540.061H446.356V545.101Z" fill="#ED7A16"/>
<path d="M446.356 595.033H439.873V589.994H446.356V595.033Z" fill="#ED7A16"/>
<path d="M446.024 577.116L436.456 567.547L446.024 557.981L455.592 567.547L446.024 577.116ZM446.024 540.061C430.843 540.061 418.537 552.367 418.537 567.547C418.537 582.729 430.843 595.033 446.024 595.033C461.204 595.033 473.511 582.729 473.511 567.547C473.511 552.367 461.204 540.061 446.024 540.061Z" fill="#F9AF19"/>
<path d="M446.024 544.877C433.523 544.877 423.352 555.047 423.352 567.547C423.352 580.047 433.523 590.216 446.024 590.216C458.526 590.216 468.696 580.047 468.696 567.547C468.696 555.047 458.526 544.877 446.024 544.877ZM446.024 591.421C432.86 591.421 422.148 580.712 422.148 567.547C422.148 554.382 432.86 543.672 446.024 543.672C459.189 543.672 469.899 554.382 469.899 567.547C469.899 580.712 459.189 591.421 446.024 591.421Z" fill="#ED7A16"/>
<path d="M355.59 54.3592L354.753 145.491C354.753 145.491 250.393 141.425 220.718 202.3L220.721 95.9834C220.721 95.9834 220.718 57.9689 355.59 54.3592Z" fill="#CAC3E7"/>
<path d="M344.969 76.2971C344.909 77.1129 344.199 77.7346 343.382 77.672C343.203 77.6613 325.228 76.4468 302.312 79.9313C281.242 83.1347 251.557 91.0767 229.774 110.722C226.32 113.835 223.321 117.136 220.721 120.556V115.801C222.893 113.232 225.249 110.8 227.785 108.514C237.667 99.6038 249.915 92.2804 264.194 86.752C275.58 82.3403 288.278 79.0544 301.935 76.9815C325.165 73.4604 343.408 74.6962 343.592 74.7084C344.41 74.7649 345.025 75.4783 344.969 76.2971Z" fill="white"/>
<path d="M344.969 93.8218C344.917 94.639 344.211 95.2638 343.392 95.2103C343.209 95.2012 324.888 94.1105 302.158 97.7813C281.275 101.154 252.284 109.351 232.746 129.244C227.919 134.157 223.96 139.383 220.721 144.726V139.207C223.66 134.91 226.964 130.884 230.625 127.16C239.526 118.098 251.018 110.627 264.788 104.947C275.758 100.422 288.194 97.0236 301.747 94.8345C324.797 91.1225 343.392 92.2346 343.58 92.2437C344.397 92.2972 345.019 93.0014 344.969 93.8218Z" fill="white"/>
<path d="M344.972 109.915C344.935 110.736 344.24 111.371 343.423 111.339C343.241 111.33 325.076 110.627 302.495 114.681C281.75 118.409 252.918 127.029 233.373 146.931C228.246 152.149 224.085 157.693 220.721 163.333V157.746C223.821 153.139 227.337 148.829 231.251 144.845C240.146 135.79 251.603 128.236 265.3 122.396C276.216 117.744 288.577 114.159 302.035 111.745C324.927 107.644 343.363 108.36 343.547 108.369C344.368 108.401 345.004 109.093 344.972 109.915Z" fill="white"/>
<path d="M344.368 126.836C344.352 127.656 343.67 128.306 342.852 128.292C342.671 128.289 324.494 128 302.013 132.565C281.356 136.756 252.726 146.027 233.637 166.366C228.629 171.7 224.595 177.336 221.36 183.052L221.233 177.469C224.228 172.793 227.646 168.402 231.468 164.331C240.157 155.075 251.441 147.266 265 141.116C275.808 136.217 288.085 132.354 301.486 129.639C324.277 125.017 342.725 125.319 342.91 125.321C343.731 125.338 344.382 126.016 344.368 126.836Z" fill="white"/>
<path d="M250.395 123.764V230.298C250.395 230.298 222.24 223.246 220.718 201.179V95.4073C220.718 95.4073 229.85 119.757 250.395 123.764Z" fill="#9FADDE"/>
<path d="M155.532 166.062V191.662L163.657 187.412V161.811L155.532 166.062ZM154.307 194.909C154.087 194.909 153.867 194.85 153.673 194.732C153.307 194.511 153.083 194.114 153.083 193.686V165.321C153.083 164.865 153.336 164.447 153.739 164.237L164.314 158.704C164.693 158.505 165.15 158.519 165.515 158.742C165.882 158.963 166.106 159.361 166.106 159.788V188.153C166.106 188.608 165.853 189.027 165.449 189.237L154.875 194.77C154.696 194.864 154.502 194.909 154.307 194.909Z" fill="#9FADDE"/>
<path d="M166.106 186.928H192.022V161.013H166.106V186.928ZM193.246 189.376H164.881C164.206 189.376 163.657 188.828 163.657 188.153V159.788C163.657 159.113 164.206 158.565 164.881 158.565H193.246C193.922 158.565 194.471 159.113 194.471 159.788V188.153C194.471 188.828 193.922 189.376 193.246 189.376Z" fill="#9FADDE"/>
<path d="M159.288 192.461H182.371L188.264 189.376H165.182L159.288 192.461ZM182.671 194.909H154.307C153.743 194.909 153.253 194.524 153.118 193.978C152.984 193.431 153.24 192.862 153.739 192.6L164.314 187.068C164.49 186.975 164.684 186.928 164.881 186.928H193.246C193.809 186.928 194.3 187.313 194.434 187.861C194.57 188.408 194.312 188.976 193.812 189.237L183.238 194.77C183.064 194.862 182.869 194.909 182.671 194.909Z" fill="#9FADDE"/>
<path d="M632.148 368.835V394.436L640.273 398.687V373.088L632.148 368.835ZM640.93 401.795L630.356 396.262C629.951 396.051 629.698 395.632 629.698 395.177V366.812C629.698 366.385 629.922 365.988 630.289 365.766C630.655 365.545 631.111 365.529 631.489 365.728L642.065 371.261C642.468 371.472 642.722 371.889 642.722 372.345V400.71C642.722 401.138 642.497 401.536 642.131 401.756C641.937 401.874 641.717 401.934 641.497 401.934C641.303 401.934 641.107 401.888 640.93 401.795Z" fill="#9FADDE"/>
<path d="M629.698 368.038H603.782V393.953H629.698V368.038ZM601.334 395.177V366.812C601.334 366.137 601.883 365.589 602.56 365.589H630.923C631.598 365.589 632.148 366.137 632.148 366.812V395.177C632.148 395.854 631.598 396.401 630.923 396.401H602.56C601.883 396.401 601.334 395.854 601.334 395.177Z" fill="#9FADDE"/>
<path d="M630.622 396.401H607.54L613.435 399.486H636.515L630.622 396.401ZM612.565 401.795L601.991 396.262C601.492 396.002 601.235 395.432 601.37 394.885C601.504 394.338 601.994 393.953 602.56 393.953H630.923C631.121 393.953 631.315 394.001 631.489 394.092L642.065 399.625C642.565 399.885 642.821 400.455 642.685 401.002C642.551 401.549 642.06 401.934 641.497 401.934H613.134C612.937 401.934 612.741 401.886 612.565 401.795Z" fill="#9FADDE"/>
<path d="M455.01 104.391L462.489 120.297L443.664 113.516C438.952 115.894 433.628 117.234 427.988 117.234C408.742 117.234 393.139 101.628 393.139 82.383C393.139 63.1367 408.742 47.5338 427.988 47.5338C447.234 47.5338 462.839 63.1367 462.839 82.383C462.839 90.7268 459.903 98.3908 455.01 104.391Z" fill="#365CB3"/>
<path d="M446.441 81.4191C446.441 83.1269 446.211 84.7783 445.775 86.3456C445.719 86.5564 445.658 86.7657 445.591 86.9719C443.871 92.4361 439.674 96.8036 434.32 98.7574C434.105 98.8368 433.891 98.9117 433.671 98.9789H433.669C431.88 99.5594 429.971 99.8726 427.988 99.8726C426.294 99.8726 424.655 99.6449 423.097 99.2172C422.869 99.1561 422.646 99.0889 422.424 99.0171C419.307 98.0348 416.548 96.2429 414.392 93.8935C414.218 93.7041 414.047 93.5101 413.884 93.3161C411.676 90.7039 410.184 87.4699 409.706 83.9152C409.667 83.6525 409.637 83.3866 409.614 83.1208V83.1193C409.562 82.5602 409.536 81.9919 409.536 81.4191C409.536 74.1904 413.693 67.9303 419.75 64.9072C419.964 64.7987 420.18 64.6934 420.4 64.5971C422.716 63.5492 425.283 62.9671 427.988 62.9671C428.232 62.9671 428.477 62.9717 428.718 62.9824C428.932 62.99 429.147 63.0007 429.36 63.0175C430.959 63.1352 432.499 63.456 433.959 63.9555C434.17 64.0273 434.376 64.1037 434.583 64.1816C439.894 66.2133 444.029 70.6327 445.67 76.1275C445.734 76.3322 445.791 76.5384 445.844 76.7446C445.934 77.0975 446.017 77.4534 446.089 77.8124C446.131 78.0293 446.171 78.2432 446.203 78.4616V78.4632C446.362 79.4271 446.441 80.4124 446.441 81.4191Z" fill="#F9AF19"/>
<path d="M420.4 64.597C420.251 67.9378 419.18 71.2542 417.565 74.1933C415.541 77.8749 412.717 80.9988 409.706 83.915C409.667 83.6523 409.637 83.3865 409.614 83.1207V83.1192C412.284 80.5054 414.78 77.7145 416.673 74.4821C418.378 71.572 419.534 68.2586 419.75 64.907C419.963 64.7986 420.18 64.6932 420.4 64.597Z" fill="#ED7A16"/>
<path d="M445.844 76.7446C442.253 76.8118 438.733 75.3392 436.478 72.3818C434.651 69.985 433.767 66.9313 433.959 63.9555C434.17 64.0273 434.376 64.1037 434.583 64.1816C434.395 68.1289 436.164 72.1923 439.524 74.3982C441.358 75.6004 443.511 76.1565 445.67 76.1275C445.734 76.3322 445.791 76.5384 445.844 76.7446Z" fill="#ED7A16"/>
<path d="M446.203 78.4615C445.256 78.1773 444.266 78.0093 443.269 77.9574C436.504 77.606 429.551 81.6328 425.872 87.2024C423.527 90.7526 422.538 95.0849 423.097 99.217C422.869 99.1559 422.646 99.0887 422.424 99.0169C422.253 97.6115 422.253 96.1848 422.421 94.7702C423.254 87.8089 428.202 82.0254 434.476 79.1764C437.972 77.5892 442.323 76.8941 446.089 77.8122C446.131 78.0292 446.171 78.243 446.203 78.4615Z" fill="#ED7A16"/>
<path d="M445.775 86.3457C445.719 86.5565 445.658 86.7658 445.591 86.972C442.16 86.9735 438.846 88.9258 436.859 91.729C435.38 93.8142 434.604 96.2476 434.32 98.7575C434.104 98.8369 433.891 98.9118 433.671 98.979C433.95 96.1117 434.83 93.3299 436.611 91.0095C438.78 88.1789 442.225 86.2831 445.775 86.3457Z" fill="#ED7A16"/>
<path d="M429.291 66.2974C428.969 69.7605 427.895 73.1517 426.072 76.1199C424.146 79.2652 421.464 81.8362 419.128 84.6683C416.869 87.4134 415.164 90.4473 414.392 93.8936C414.218 93.7041 414.047 93.5102 413.884 93.3162C414.562 90.5481 415.818 87.9833 417.544 85.672C419.802 82.6474 422.599 80.0642 424.762 76.9677C427.621 72.8783 428.966 67.8998 428.718 62.9825C428.932 62.9901 429.147 63.0008 429.36 63.0176C429.415 64.1068 429.39 65.2052 429.291 66.2974Z" fill="#ED7A16"/>
<path d="M444.978 74.2121C445.83 74.2137 446.686 74.2427 447.535 74.2931C448.33 74.3404 449.776 74.2641 450.329 74.9912C451.02 75.8971 449.616 77.2475 449.023 77.7806C448.21 78.5169 447.308 79.186 446.37 79.8138C445.112 80.6586 443.791 81.4301 442.531 82.1877C440.258 83.5534 437.91 84.8014 435.507 85.9288C430.638 88.2111 425.518 89.9648 420.278 91.1808C417.95 91.7261 415.591 92.166 413.218 92.4807C412.894 92.525 412.571 92.5678 412.244 92.606C410.251 92.8427 406.394 93.4508 405.56 90.86C405.166 89.647 406.224 88.5746 407.032 87.8154C407.958 86.9462 408.949 86.129 409.958 85.3484L409.568 82.4948C409.341 82.6643 409.116 82.8354 408.89 83.0096C406.753 84.6609 403.548 86.6865 403.032 89.563C402.505 92.496 405.043 94.7492 407.727 95.2106C409.406 95.4978 411.108 95.2732 412.782 95.0624C413.592 94.96 414.397 94.8485 415.202 94.7248C415.999 94.6026 416.794 94.4681 417.587 94.3215C423.925 93.1391 430.093 91.1548 435.959 88.4861C438.869 87.1616 441.698 85.6615 444.423 83.9919C445.086 83.5855 445.743 83.167 446.393 82.7408C447.104 82.2764 447.809 81.7966 448.504 81.3078C449.689 80.4737 450.888 79.6489 451.794 78.5017C452.72 77.3315 453.363 75.8191 452.81 74.3404C452.263 72.8816 450.859 72.1728 449.396 71.9467C447.515 71.6595 445.581 71.5892 443.647 71.6565L444.978 74.2121Z" fill="#FBFDFB"/>
<path d="M669.389 152.311H563.447C565.831 149.497 577.212 136.757 587.731 136.757C588.53 136.757 589.324 136.83 590.108 136.987C599.462 138.857 603.169 146.448 611.663 146.448C614.431 146.446 617.707 145.641 621.852 143.568C635.015 136.987 641.226 130.571 649.217 130.571C651.463 130.571 653.849 131.079 656.57 132.232C666.062 136.253 668.682 147.335 669.389 152.311Z" fill="#E5E7F6"/>
<path d="M201.777 321.679H95.8362C98.2213 318.864 109.6 306.125 120.12 306.125C120.918 306.125 121.714 306.198 122.498 306.356C131.851 308.226 135.557 315.816 144.052 315.815C146.819 315.815 150.096 315.008 154.24 312.937C167.405 306.354 173.614 299.94 181.605 299.94C183.851 299.94 186.238 300.447 188.958 301.599C198.45 305.619 201.07 316.702 201.777 321.679Z" fill="#E5E7F6"/>
<path d="M601.567 187.215L601.629 231.074L665.126 230.984L665.063 187.124L601.567 187.215Z" fill="#F9AF19"/>
<path d="M601.568 187.217L601.573 190.029L633.359 218.12L665.066 189.936L665.062 187.125L633.358 215.404L601.568 187.217Z" fill="#ED7A16"/>
<path d="M639.463 209.859L663.286 230.985L665.126 230.984L665.124 229.866L640.829 208.32L639.463 209.859Z" fill="#ED7A16"/>
<path d="M601.629 230.106V231.074L603.637 231.073L627.395 209.876L626.027 208.342L601.629 230.106Z" fill="#ED7A16"/>
<path d="M665.065 187.123L633.358 215.404L601.568 187.215L665.065 187.123Z" fill="#F9AF19"/>
<path d="M667.86 197.679H650.662C649.26 197.679 648.123 196.541 648.123 195.139V177.941C648.123 176.539 649.26 175.402 650.662 175.402H667.86C669.264 175.402 670.4 176.539 670.4 177.941V195.139C670.4 196.541 669.264 197.679 667.86 197.679Z" fill="#F03C4F"/>
<path d="M664.857 189.033V192.253H654.984V189.702L659.435 185.583C660.282 184.792 660.404 184.316 660.404 183.894C660.404 183.295 659.999 182.927 659.208 182.927C658.468 182.927 657.764 183.33 657.394 184.071L654.263 182.504C655.16 180.814 656.936 179.653 659.596 179.653C662.516 179.653 664.574 181.167 664.574 183.506C664.574 184.722 664.256 185.813 662.463 187.43L660.703 189.033H664.857Z" fill="white"/>
<path d="M175.27 399.329H139.326C137.013 399.329 135.137 397.455 135.137 395.142V359.196C135.137 356.883 137.013 355.008 139.326 355.008H175.27C177.583 355.008 179.459 356.883 179.459 359.196V395.142C179.459 397.455 177.583 399.329 175.27 399.329Z" fill="#365CB3"/>
<path d="M169.837 368.045C169.763 367.74 169.691 367.431 169.615 367.127C169.348 366.05 168.836 365.101 168.11 364.263C167.589 363.662 166.988 363.151 166.309 362.761C165.371 362.22 164.31 362.451 163.618 363.287C162.382 364.776 161.152 366.273 159.933 367.776C159.183 368.699 159.307 369.964 160.234 370.786C160.899 371.374 161.6 371.922 162.287 372.486L162.554 372.66C160.917 377.067 158.138 380.471 154.148 382.922C153.665 382.521 153.159 382.098 152.651 381.679C152.392 381.462 152.134 381.244 151.866 381.04C151.064 380.426 150.137 380.365 149.302 380.909C149.039 381.08 148.821 381.337 148.617 381.583C147.501 382.93 146.401 384.291 145.282 385.637C144.927 386.065 144.702 386.535 144.624 387.082C144.644 387.282 144.664 387.481 144.684 387.681C144.878 388.02 145.013 388.419 145.279 388.683C145.933 389.334 146.652 389.917 147.509 390.302C148.513 390.756 149.561 391.032 150.66 390.936C151.384 390.872 152.109 390.719 152.811 390.524C154.616 390.02 156.259 389.158 157.807 388.115C159.339 387.082 160.735 385.88 162.017 384.549C163.749 382.754 165.283 380.798 166.676 378.731C167.773 377.099 168.721 375.394 169.336 373.518C169.646 372.574 169.853 371.609 169.919 370.616C169.945 370.217 169.956 369.816 169.973 369.415C169.927 368.959 169.881 368.502 169.837 368.045Z" fill="white"/>
<path d="M149.9 365.919H129.519C128.116 365.919 126.978 364.781 126.978 363.379V342.997C126.978 341.595 128.116 340.457 129.519 340.457H149.9C151.303 340.457 152.44 341.595 152.44 342.997V363.379C152.44 364.781 151.303 365.919 149.9 365.919Z" fill="#F03C4F"/>
<path d="M144.536 355.003C144.536 357.027 142.982 358.988 139.353 358.988C137.798 358.988 136.097 358.647 134.882 357.966L136.178 355.148C137.15 355.714 138.252 355.974 139.207 355.974C140.066 355.974 140.698 355.667 140.698 355.083C140.698 354.598 140.357 354.272 138.98 354.272H135.692L136.259 347.389H143.792V350.272H139.401L139.32 351.39H139.904C143.256 351.39 144.536 352.994 144.536 355.003Z" fill="white"/>
<path d="M625.026 524.539H467.276C462.698 524.539 458.986 520.827 458.986 516.247V428.668C458.986 424.09 462.698 420.379 467.276 420.379H625.026C629.604 420.379 633.315 424.09 633.315 428.668V516.247C633.315 520.827 629.604 524.539 625.026 524.539Z" fill="#CAC3E7"/>
<path d="M546.151 440.027C530.226 440.027 517.27 452.981 517.27 468.907C517.27 484.832 530.226 497.788 546.151 497.788C562.076 497.788 575.032 484.832 575.032 468.907C575.032 452.981 562.076 440.027 546.151 440.027ZM535.133 455.878V481.937C535.133 484.716 538.206 486.393 540.543 484.89L562.161 470.986C564.386 469.556 564.29 466.272 561.982 464.973L540.365 452.816C538.024 451.501 535.133 453.192 535.133 455.878ZM546.151 498.684C529.733 498.684 516.374 485.327 516.374 468.907C516.374 452.488 529.733 439.131 546.151 439.131C562.57 439.131 575.929 452.488 575.929 468.907C575.929 485.327 562.57 498.684 546.151 498.684Z" fill="white"/>
<path d="M618.163 511.719H474.14V509.216H618.163V511.719Z" fill="#9FADDE"/>
<path d="M565.618 511.719H474.14V509.216H565.618V511.719Z" fill="white"/>
<path d="M569.66 509.901C569.66 512.179 567.813 514.024 565.535 514.024C563.259 514.024 561.412 512.179 561.412 509.901C561.412 507.625 563.259 505.78 565.535 505.78C567.813 505.78 569.66 507.625 569.66 509.901Z" fill="white"/>
<path d="M486.767 578.642L486.561 578.624C485.412 578.424 484.778 578.283 484.752 578.277C484.112 578.134 483.709 577.497 483.853 576.855C483.996 576.213 484.635 575.813 485.273 575.954C485.279 575.955 485.884 576.091 486.969 576.279C487.615 576.391 488.05 577.008 487.937 577.656C487.836 578.233 487.334 578.642 486.767 578.642Z" fill="#9FADDE"/>
<path d="M562.365 549.745C562.158 549.745 561.947 549.691 561.756 549.577C561.192 549.237 561.007 548.507 561.346 547.942C561.913 546.998 562.468 546.017 562.992 545.029C563.3 544.448 564.021 544.228 564.602 544.537C565.182 544.846 565.402 545.567 565.094 546.147C564.55 547.171 563.975 548.188 563.387 549.167C563.164 549.538 562.77 549.745 562.365 549.745ZM556.596 557.829C556.324 557.829 556.05 557.737 555.827 557.548C555.326 557.121 555.263 556.371 555.687 555.87C556.402 555.026 557.103 554.149 557.77 553.26C558.166 552.734 558.913 552.63 559.437 553.024C559.962 553.419 560.068 554.166 559.672 554.689C558.977 555.615 558.247 556.529 557.503 557.409C557.268 557.685 556.932 557.829 556.596 557.829ZM549.55 564.83C549.211 564.83 548.872 564.683 548.637 564.404C548.215 563.898 548.282 563.148 548.786 562.726C549.639 562.014 550.481 561.27 551.286 560.513C551.764 560.061 552.517 560.085 552.968 560.563C553.418 561.041 553.395 561.794 552.917 562.245C552.077 563.035 551.202 563.812 550.313 564.553C550.091 564.74 549.819 564.83 549.55 564.83ZM541.407 570.519C540.996 570.519 540.597 570.305 540.377 569.924C540.047 569.356 540.241 568.627 540.809 568.299C541.77 567.741 542.726 567.15 543.652 566.541C544.201 566.18 544.938 566.331 545.299 566.881C545.662 567.43 545.51 568.168 544.961 568.528C543.997 569.162 543.001 569.778 542.002 570.357C541.814 570.467 541.608 570.519 541.407 570.519ZM532.435 574.797C531.958 574.797 531.508 574.509 531.324 574.035C531.089 573.423 531.393 572.735 532.006 572.498C533.051 572.095 534.091 571.663 535.099 571.212C535.701 570.945 536.404 571.214 536.671 571.814C536.94 572.414 536.669 573.117 536.069 573.386C535.024 573.852 533.946 574.301 532.864 574.718C532.722 574.773 532.577 574.797 532.435 574.797ZM522.926 577.714C522.385 577.714 521.896 577.342 521.768 576.794C521.618 576.154 522.015 575.514 522.655 575.364C523.749 575.109 524.843 574.825 525.908 574.525C526.541 574.348 527.198 574.716 527.377 575.347C527.554 575.98 527.186 576.638 526.554 576.815C525.454 577.125 524.326 577.416 523.198 577.68L522.926 577.714ZM513.118 579.382C512.52 579.382 512.003 578.933 511.936 578.323C511.864 577.669 512.335 577.083 512.989 577.009C514.108 576.886 515.233 576.739 516.325 576.574C516.977 576.476 517.582 576.924 517.68 577.573C517.779 578.224 517.332 578.829 516.681 578.928C515.556 579.096 514.402 579.247 513.25 579.376L513.118 579.382ZM496.649 579.761L496.576 579.759C495.426 579.689 494.268 579.599 493.133 579.49C492.479 579.428 491.999 578.847 492.062 578.193C492.125 577.538 492.705 577.061 493.357 577.121C494.466 577.226 495.595 577.315 496.718 577.384C497.375 577.422 497.874 577.985 497.835 578.642C497.797 579.273 497.273 579.761 496.649 579.761ZM503.183 579.944C502.528 579.944 501.997 579.414 501.993 578.758C501.99 578.103 502.52 577.567 503.177 577.564C504.301 577.558 505.436 577.533 506.548 577.489C507.197 577.469 507.758 577.975 507.786 578.63C507.81 579.289 507.3 579.84 506.643 579.867C505.502 579.912 504.341 579.938 503.189 579.944H503.183Z" fill="#9FADDE"/>
<path d="M566.847 540.854C566.693 540.854 566.539 540.823 566.387 540.761C565.781 540.506 565.495 539.809 565.75 539.204C565.976 538.662 566.198 538.115 566.41 537.574C566.649 536.963 567.339 536.662 567.95 536.901C568.564 537.14 568.865 537.829 568.625 538.443C568.407 538.999 568.179 539.565 567.944 540.122C567.753 540.579 567.312 540.854 566.847 540.854Z" fill="#9FADDE"/>
<path d="M194.547 110.618L194.469 110.616C193.302 110.54 192.117 110.485 190.942 110.448C190.285 110.428 189.769 109.878 189.79 109.221C189.81 108.565 190.363 108.047 191.015 108.07C192.214 108.106 193.429 108.163 194.622 108.241C195.277 108.282 195.775 108.849 195.734 109.504C195.693 110.133 195.17 110.618 194.547 110.618ZM180.568 110.639C179.948 110.639 179.425 110.159 179.383 109.532C179.337 108.876 179.832 108.308 180.487 108.262C181.676 108.18 182.89 108.117 184.095 108.077C184.749 108.05 185.304 108.569 185.325 109.228C185.346 109.883 184.832 110.433 184.176 110.456C182.997 110.495 181.811 110.557 180.65 110.636L180.568 110.639ZM204.886 111.841L204.649 111.817C204.635 111.815 203.374 111.56 201.2 111.27C200.549 111.184 200.091 110.586 200.178 109.933C200.265 109.283 200.862 108.826 201.515 108.911C203.777 109.214 205.069 109.475 205.123 109.486C205.767 109.616 206.183 110.245 206.051 110.888C205.937 111.453 205.44 111.841 204.886 111.841ZM170.237 111.93C169.675 111.93 169.174 111.528 169.07 110.955C168.951 110.309 169.377 109.689 170.023 109.568C171.192 109.353 172.394 109.157 173.596 108.986C174.244 108.892 174.849 109.347 174.94 109.996C175.033 110.647 174.581 111.25 173.931 111.342C172.762 111.51 171.592 111.699 170.455 111.91L170.237 111.93ZM160.152 114.483C159.651 114.483 159.185 114.165 159.021 113.664C158.815 113.04 159.156 112.367 159.78 112.162C160.912 111.791 162.081 111.438 163.254 111.116C163.888 110.942 164.542 111.314 164.718 111.948C164.89 112.582 164.519 113.238 163.885 113.41C162.75 113.723 161.618 114.064 160.523 114.424L160.152 114.483ZM150.553 118.486C150.122 118.486 149.707 118.253 149.495 117.845C149.193 117.26 149.421 116.543 150.005 116.241C151.068 115.689 152.171 115.159 153.283 114.664C153.884 114.396 154.586 114.666 154.854 115.266C155.123 115.865 154.852 116.568 154.252 116.837C153.182 117.315 152.121 117.825 151.099 118.354C150.924 118.444 150.737 118.486 150.553 118.486ZM141.789 124.077C141.435 124.077 141.084 123.919 140.85 123.618C140.446 123.098 140.54 122.351 141.057 121.948C142.009 121.207 143.001 120.486 144.006 119.805C144.55 119.435 145.289 119.577 145.659 120.121C146.027 120.665 145.886 121.404 145.342 121.774C144.38 122.428 143.429 123.117 142.519 123.827C142.302 123.995 142.044 124.077 141.789 124.077ZM134.251 131.228C133.976 131.228 133.699 131.133 133.473 130.938C132.977 130.509 132.922 129.757 133.353 129.261C134.145 128.344 134.979 127.443 135.83 126.584C136.293 126.118 137.046 126.114 137.513 126.577C137.98 127.039 137.983 127.793 137.521 128.26C136.707 129.08 135.91 129.942 135.152 130.817C134.917 131.089 134.585 131.228 134.251 131.228ZM128.198 139.68C127.992 139.68 127.782 139.627 127.591 139.514C127.027 139.178 126.841 138.448 127.177 137.882C127.791 136.85 128.446 135.816 129.125 134.812C129.492 134.267 130.232 134.123 130.776 134.491C131.321 134.858 131.465 135.597 131.097 136.142C130.444 137.109 129.813 138.104 129.223 139.098C129 139.473 128.604 139.68 128.198 139.68ZM123.668 149.04C123.528 149.04 123.384 149.014 123.244 148.961C122.63 148.725 122.322 148.038 122.557 147.424C122.988 146.296 123.458 145.166 123.955 144.065C124.226 143.466 124.93 143.198 125.529 143.47C126.128 143.739 126.395 144.445 126.124 145.044C125.646 146.102 125.194 147.189 124.78 148.273C124.599 148.748 124.148 149.04 123.668 149.04ZM120.804 159.034L120.571 159.011C119.926 158.884 119.507 158.258 119.635 157.613C119.87 156.423 120.141 155.231 120.441 154.067C120.605 153.43 121.254 153.048 121.891 153.212C122.527 153.375 122.91 154.025 122.746 154.662C122.457 155.781 122.195 156.93 121.969 158.076C121.857 158.643 121.36 159.034 120.804 159.034ZM119.599 169.365H119.552C118.895 169.339 118.384 168.784 118.409 168.129C118.457 166.918 118.537 165.699 118.645 164.505C118.706 163.85 119.287 163.369 119.938 163.429C120.593 163.488 121.075 164.067 121.015 164.721C120.91 165.874 120.833 167.052 120.788 168.222C120.762 168.862 120.235 169.365 119.599 169.365ZM119.919 179.765C119.315 179.765 118.797 179.306 118.737 178.692C118.618 177.487 118.526 176.271 118.462 175.078C118.427 174.423 118.931 173.862 119.587 173.827C120.246 173.793 120.804 174.296 120.839 174.951C120.9 176.109 120.99 177.289 121.106 178.459C121.17 179.112 120.693 179.694 120.038 179.759L119.919 179.765ZM121.572 190.042C121.025 190.042 120.535 189.665 120.411 189.109C120.149 187.928 119.91 186.734 119.698 185.564C119.581 184.916 120.011 184.297 120.658 184.181C121.306 184.065 121.924 184.493 122.04 185.14C122.246 186.282 122.48 187.444 122.735 188.596C122.877 189.237 122.472 189.873 121.83 190.015L121.572 190.042ZM124.367 200.074C123.869 200.074 123.406 199.761 123.239 199.263C122.856 198.12 122.489 196.963 122.149 195.817C121.962 195.186 122.322 194.524 122.952 194.338C123.582 194.152 124.244 194.511 124.431 195.14C124.763 196.258 125.121 197.39 125.495 198.505C125.704 199.129 125.368 199.802 124.746 200.012L124.367 200.074ZM128.173 209.77C127.72 209.77 127.288 209.51 127.088 209.07C126.599 207.989 126.117 206.872 125.656 205.751C125.407 205.143 125.697 204.448 126.305 204.199C126.913 203.948 127.608 204.238 127.858 204.846C128.308 205.942 128.779 207.032 129.257 208.088C129.528 208.687 129.262 209.393 128.664 209.665C128.504 209.735 128.338 209.77 128.173 209.77ZM131.638 216.594C131.195 216.594 130.808 216.351 130.604 215.993C130.559 215.919 130.419 215.682 130.2 215.291C129.878 214.716 130.082 213.992 130.656 213.67C131.228 213.349 131.953 213.552 132.274 214.125C132.499 214.524 132.633 214.75 132.656 214.788C132.766 214.973 132.827 215.19 132.827 215.404C132.827 216.062 132.295 216.594 131.638 216.594Z" fill="#9FADDE"/>
<path d="M647.67 346.983C647.013 346.983 646.481 346.45 646.481 345.793V311.179H609.719C609.061 311.179 608.529 310.646 608.529 309.989C608.529 309.332 609.061 308.799 609.719 308.799H647.67C648.328 308.799 648.86 309.332 648.86 309.989V345.793C648.86 346.45 648.328 346.983 647.67 346.983Z" fill="#365CB3"/>
<path d="M615.043 309.989C615.043 312.929 612.66 315.312 609.719 315.312C606.779 315.312 604.396 312.929 604.396 309.989C604.396 307.048 606.779 304.665 609.719 304.665C612.66 304.665 615.043 307.048 615.043 309.989Z" fill="#365CB3"/>
<path d="M652.993 309.989C652.993 312.929 650.61 315.312 647.671 315.312C644.731 315.312 642.348 312.929 642.348 309.989C642.348 307.048 644.731 304.665 647.671 304.665C650.61 304.665 652.993 307.048 652.993 309.989Z" fill="#365CB3"/>
<path d="M652.993 345.792C652.993 348.733 650.61 351.116 647.671 351.116C644.731 351.116 642.348 348.733 642.348 345.792C642.348 342.853 644.731 340.469 647.671 340.469C650.61 340.469 652.993 342.853 652.993 345.792Z" fill="#365CB3"/>
<path d="M688.312 345.792C688.312 348.733 685.929 351.116 682.989 351.116C680.049 351.116 677.666 348.733 677.666 345.792C677.666 342.853 680.049 340.469 682.989 340.469C685.929 340.469 688.312 342.853 688.312 345.792Z" fill="#365CB3"/>
<path d="M682.989 346.983H647.67C647.013 346.983 646.481 346.45 646.481 345.793C646.481 345.136 647.013 344.603 647.67 344.603H682.989C683.646 344.603 684.178 345.136 684.178 345.793C684.178 346.45 683.646 346.983 682.989 346.983Z" fill="#365CB3"/>
<path d="M190.232 613.898C189.556 613.898 189.01 613.351 189.01 612.674V574.726C189.01 574.049 189.556 573.502 190.232 573.502H226.036C226.711 573.502 227.258 574.049 227.258 574.726C227.258 575.399 226.711 575.946 226.036 575.946H191.454V612.674C191.454 613.351 190.907 613.898 190.232 613.898Z" fill="#F03C4F"/>
<path d="M190.232 607.352C193.172 607.352 195.555 609.737 195.555 612.675C195.555 615.615 193.172 617.999 190.232 617.999C187.291 617.999 184.908 615.615 184.908 612.675C184.908 609.737 187.291 607.352 190.232 607.352Z" fill="#F03C4F"/>
<path d="M190.232 569.4C193.172 569.4 195.555 571.785 195.555 574.725C195.555 577.665 193.172 580.048 190.232 580.048C187.291 580.048 184.908 577.665 184.908 574.725C184.908 571.785 187.291 569.4 190.232 569.4Z" fill="#F03C4F"/>
<path d="M226.036 569.4C228.976 569.4 231.359 571.785 231.359 574.725C231.359 577.665 228.976 580.048 226.036 580.048C223.097 580.048 220.712 577.665 220.712 574.725C220.712 571.785 223.097 569.4 226.036 569.4Z" fill="#F03C4F"/>
<path d="M226.036 534.082C228.976 534.082 231.359 536.467 231.359 539.407C231.359 542.346 228.976 544.729 226.036 544.729C223.097 544.729 220.712 542.346 220.712 539.407C220.712 536.467 223.097 534.082 226.036 534.082Z" fill="#F03C4F"/>
<path d="M226.036 575.946C225.362 575.946 224.814 575.399 224.814 574.725V539.407C224.814 538.731 225.362 538.185 226.036 538.185C226.711 538.185 227.258 538.731 227.258 539.407V574.725C227.258 575.399 226.711 575.946 226.036 575.946Z" fill="#F03C4F"/>
<path d="M595.971 70.3501C583.669 72.5224 581.909 74.2837 579.737 86.584C577.566 74.2837 575.805 72.5224 563.505 70.3501C575.805 68.1794 577.566 66.4196 579.737 54.1178C581.909 66.4196 583.669 68.1794 595.971 70.3501Z" fill="#F9AF19"/>
<path d="M135.777 550.316C123.475 552.488 121.715 554.248 119.543 566.548C117.372 554.248 115.611 552.488 103.31 550.316C115.611 548.144 117.372 546.384 119.543 534.082C121.715 546.384 123.475 548.144 135.777 550.316Z" fill="#F9AF19"/>
<path d="M685.029 426.29C672.727 428.462 670.967 430.222 668.795 442.523C666.623 430.222 664.863 428.462 652.563 426.29C664.863 424.117 666.623 422.356 668.795 410.057C670.967 422.356 672.727 424.117 685.029 426.29Z" fill="#F9AF19"/>
<path d="M480.163 131.285C479.07 138.898 483.888 145.89 490.927 146.901C497.966 147.913 504.558 142.562 505.651 134.948C506.747 127.334 501.927 120.344 494.888 119.333C487.85 118.322 481.256 123.673 480.163 131.285Z" fill="#151C36"/>
<path d="M343.434 166.449C343.434 166.449 333.831 256.541 360.055 260.062C390.41 264.137 370.387 199.876 362.953 183.952C355.52 168.028 359.174 165.761 343.434 166.449Z" fill="#F57869"/>
<path d="M361.925 180.073C360.5 187.334 354.701 195.954 346.704 196.853C343.788 197.18 340.479 195.977 339.159 193.196C337.991 190.733 338.864 187.82 341.15 186.398C341.932 185.912 342.609 187.172 341.826 187.658C338.478 189.743 340.43 194.172 343.6 195.152C346.33 195.996 349.081 195.017 351.4 193.544C356.275 190.446 359.449 185.284 360.549 179.678C360.728 178.773 362.101 179.177 361.925 180.073Z" fill="#151C36"/>
<path d="M342.974 127.881C342.974 127.881 335.741 120.581 333.53 122.512C331.321 124.442 337.464 129.531 339.382 133.171C341.303 136.812 346.959 145.803 346.959 145.803L342.974 127.881Z" fill="#D43540"/>
<path d="M343.939 174.03C343.939 174.03 338.305 168.809 333.608 163.239C328.909 157.671 321.239 155.406 326.456 152.961C331.673 150.517 339.511 156.55 341.854 155.871C346.081 154.648 344.819 147.493 341.547 135.597C337.253 119.98 340.022 118.572 340.957 119.146C344.541 121.348 345.867 128.941 351.342 140.429C356.815 151.918 357.333 165.773 356.401 173.078C356.401 173.078 349.26 174.545 343.939 174.03Z" fill="#F57869"/>
<path d="M242.176 432.423L222.791 485.353L201.094 482.708L210.937 419.881L242.176 432.423Z" fill="#F57869"/>
<path d="M153.441 508.377C151.251 512.046 151.467 515.12 151.467 515.12L218.139 519.579C219.64 516.661 220.533 513.837 221.063 511.18C222.742 502.832 220.846 496.126 222.948 493.248C228.886 485.095 224.033 481.834 224.033 481.834C222.563 478.873 214.598 483.711 210.401 483.609C206.204 483.506 202.468 474.561 201.362 474.119C200.257 473.679 198.262 482.55 195.146 487.645C192.033 492.733 174.279 495.005 162.558 500.609C157.717 502.921 154.984 505.799 153.441 508.377Z" fill="#365CB3"/>
<path d="M183.819 491.849C186.22 491.758 188.362 492.941 189.654 494.946C190.152 495.721 188.89 496.395 188.394 495.623C187.37 494.035 185.663 493.208 183.791 493.278C182.869 493.314 182.902 491.881 183.819 491.849Z" fill="white"/>
<path d="M180.021 493.289C181.969 493.703 183.677 494.697 185.009 496.173C185.626 496.854 184.584 497.838 183.965 497.151C182.788 495.849 181.341 495.029 179.625 494.664C178.723 494.473 179.124 493.099 180.021 493.289Z" fill="white"/>
<path d="M175.264 494.448C177.247 495.013 178.973 496.052 180.406 497.534C181.045 498.195 180.001 499.178 179.361 498.513C178.099 497.207 176.615 496.32 174.87 495.823C173.982 495.569 174.38 494.195 175.264 494.448Z" fill="white"/>
<path d="M153.441 508.377C151.251 512.046 151.467 515.12 151.467 515.12L218.139 519.579C219.64 516.661 220.533 513.837 221.063 511.18L153.441 508.377Z" fill="white"/>
<path d="M221.302 499.68C210.265 497.722 199.452 503.192 194.313 513.12C193.89 513.94 192.671 513.189 193.093 512.375C198.545 501.84 210.052 496.24 221.696 498.304C222.603 498.466 222.198 499.839 221.302 499.68Z" fill="white"/>
<path d="M197.181 507.286C184.057 506.83 170.932 506.374 157.808 505.921C156.886 505.889 156.915 504.459 157.837 504.489C170.961 504.945 184.086 505.4 197.211 505.855C198.132 505.887 198.102 507.318 197.181 507.286Z" fill="white"/>
<path d="M246.024 260.612C222.177 299.641 196.62 436.132 196.62 436.132L246.784 454.66L290.268 340.788L374.042 379.861C404.061 357.068 409.612 330.926 374.485 299.21C374.485 299.21 312.625 262.775 276.004 252.645C268 250.432 261.204 249.473 256.522 250.423C253.122 251.113 249.594 254.769 246.024 260.612Z" fill="#41BB55"/>
<path d="M246.024 260.612C252.521 268.801 261.777 277.391 271.931 277.237C283.82 277.052 280.397 263.248 276.004 252.645C268 250.432 261.204 249.473 256.522 250.423C253.122 251.113 249.594 254.769 246.024 260.612Z" fill="#288548"/>
<path d="M251.533 446.477L194.15 426.565L189.613 442.479L247.636 462.566L251.533 446.477Z" fill="#288548"/>
<path d="M241.365 442.323L241.481 442.38C241.837 442.513 242.231 442.334 242.366 441.978L287.714 321.166L363.456 357.366C363.798 357.528 364.207 357.384 364.371 357.043C364.534 356.701 364.389 356.293 364.047 356.127L287.632 319.606C287.458 319.524 287.257 319.518 287.08 319.59C286.9 319.661 286.761 319.805 286.694 319.984L241.081 441.497C240.963 441.81 241.09 442.154 241.365 442.323Z" fill="#288548"/>
<path d="M296.826 627.382L281.223 678.58L260.314 672.054L264.488 620.014L296.826 627.382Z" fill="#F57869"/>
<path d="M262.527 653.68C259.603 654.13 257.556 656.796 257.834 659.741C258.143 663.016 257.979 668.398 254.787 673.353C249.686 681.269 227.114 701.794 225.901 713.011C224.688 724.229 245.007 728.312 260.314 712.546C275.62 696.782 284.412 691.93 287.444 682.23C290.475 672.529 287.444 658.879 287.444 658.879L285.018 661.918C285.018 661.918 274.103 665.848 272.588 658.879C271.629 654.47 266.615 653.05 262.527 653.68Z" fill="#365CB3"/>
<path d="M277.941 694.717C277.641 689.861 277.97 685.156 279.645 680.541C281.552 675.297 284.882 670.667 289.223 667.167C289.923 666.602 288.93 665.62 288.235 666.179C283.828 669.732 280.481 674.426 278.468 679.714C276.618 684.571 276.227 689.576 276.543 694.717C276.598 695.611 277.996 695.619 277.941 694.717Z" fill="white"/>
<path d="M277.241 687.92C277.171 688.63 277.123 689.344 277.105 690.061C276.612 690.576 276.115 691.091 275.619 691.603C271.376 695.976 267.02 700.24 262.735 704.572C258.734 708.617 254.946 712.998 250.198 716.202C245.795 719.168 240.317 721.067 234.98 719.999C230.602 719.121 226.757 716.136 225.231 711.895C224.924 711.047 226.272 710.686 226.576 711.524C228.541 716.987 234.552 719.451 240.016 718.786C245.54 718.112 250.294 714.824 254.272 711.128C258.141 707.531 261.72 703.597 265.455 699.861C269.406 695.916 273.394 691.981 277.241 687.92Z" fill="white"/>
<path d="M240.49 689.882C243.954 688.896 247.355 690.761 248.342 694.227C248.586 695.09 249.935 694.722 249.688 693.856C248.493 689.655 244.324 687.337 240.119 688.537C239.256 688.783 239.624 690.13 240.49 689.882Z" fill="white"/>
<path d="M244.521 685.986C247.986 684.998 251.385 686.864 252.372 690.329C252.617 691.193 253.965 690.826 253.719 689.958C252.523 685.757 248.355 683.442 244.15 684.64C243.287 684.885 243.653 686.233 244.521 685.986Z" fill="white"/>
<path d="M248.09 682.061C251.554 681.076 254.955 682.938 255.94 686.406C256.186 687.267 257.533 686.9 257.287 686.034C256.091 681.833 251.924 679.518 247.718 680.713C246.855 680.961 247.222 682.307 248.09 682.061Z" fill="white"/>
<path d="M251.116 678.274C254.579 677.286 257.979 679.149 258.966 682.619C259.212 683.48 260.559 683.113 260.314 682.246C259.117 678.043 254.949 675.729 250.743 676.927C249.882 677.173 250.248 678.52 251.116 678.274Z" fill="white"/>
<path d="M299.726 453.501C297.705 457.118 295.047 464.961 292.033 475.439C277.763 525.045 255.534 633.784 255.534 633.784L307.73 653.32C307.73 653.32 349.463 501.739 355.017 494.856C369.97 476.342 472.354 385.802 472.354 385.802L408.181 325.086C408.181 325.086 326.092 416.323 304.012 447.004C302.104 449.656 300.648 451.852 299.726 453.501Z" fill="#41BB55"/>
<path d="M299.726 453.501C297.705 457.118 295.047 464.961 292.033 475.439C301.4 480.278 317.179 486.603 324.919 479.313C336.778 468.138 313.364 452.543 304.012 447.004C302.104 449.656 300.648 451.853 299.726 453.501Z" fill="#288548"/>
<path d="M384.587 352.172C378.381 359.393 372.172 366.614 365.966 373.838C365.391 374.504 364.457 373.5 365.028 372.836C371.234 365.615 377.443 358.392 383.649 351.17C384.224 350.504 385.159 351.507 384.587 352.172Z" fill="#288548"/>
<path d="M370.691 365.957C366.532 361.938 367.669 355.459 370.373 350.944C373.645 345.479 378.396 340.108 383.716 336.592C384.451 336.107 385.097 337.317 384.366 337.8C379.627 340.932 375.663 345.563 372.481 350.221C369.594 354.448 367.432 360.9 371.691 365.017C372.325 365.631 371.325 366.569 370.691 365.957Z" fill="#288548"/>
<path d="M303.424 638.287L303.615 638.368C303.982 638.46 304.354 638.237 304.446 637.871C304.802 636.453 340.045 496.057 344.184 489.36C348.326 482.657 448.391 392.746 449.4 391.839C449.681 391.585 449.706 391.153 449.452 390.87C449.199 390.588 448.766 390.565 448.484 390.819C444.353 394.529 347.263 481.769 343.018 488.639C338.77 495.514 304.57 631.742 303.117 637.536C303.041 637.834 303.175 638.134 303.424 638.287Z" fill="#288548"/>
<path d="M314.206 644.312L253.946 620.015L249.787 635L309.745 658.88L314.206 644.312Z" fill="#288548"/>
<path d="M569.528 227.35C557.339 260.04 540.563 290.557 525.483 314.631C525.244 315.01 525.006 315.387 524.771 315.764C522.371 319.573 520.02 323.215 517.742 326.673C517.471 327.081 517.208 327.483 516.939 327.884C509.338 339.355 502.573 348.741 497.602 355.381L497.422 355.624C494.112 360.042 491.622 363.216 490.236 364.95C489.844 365.447 489.541 365.822 489.337 366.078C489.124 366.342 489.013 366.476 489.013 366.476L487.038 364.926L487.035 364.923L483.332 362.011L446.522 333.075L445.374 332.172L397.66 294.662L391.602 289.899L391.593 289.891L385.638 285.211L385.58 285.167L385.672 285.188C388.556 285.921 393.098 281.975 398.551 275.112C398.886 274.693 399.223 274.264 399.561 273.819C401.153 271.756 402.816 269.46 404.532 266.974L404.576 266.915L404.649 266.808C405.176 266.042 405.708 265.259 406.247 264.458C412.057 255.811 418.392 245.229 424.607 234.233C424.855 233.793 425.104 233.353 425.351 232.913C426.488 230.9 427.612 228.874 428.734 226.846C428.848 226.638 428.963 226.432 429.074 226.224V226.221C429.311 225.796 429.546 225.371 429.778 224.947C432.525 219.942 435.215 214.944 437.785 210.083C438.026 209.623 438.267 209.167 438.51 208.714C446.599 193.351 453.441 179.533 457.152 171.702C457.457 171.062 457.741 170.459 458.001 169.9C459.001 167.759 459.677 166.244 459.975 165.492C460.341 164.558 461.291 163.866 462.718 163.377C464.644 162.717 467.438 162.436 470.83 162.439C471.349 162.439 471.882 162.448 472.431 162.462C494.518 163.019 537.833 174.018 537.833 174.018C537.833 174.018 546.186 186.277 555.089 201.289C555.441 201.878 555.815 202.477 556.203 203.084C556.463 203.482 556.727 203.889 556.997 204.294C561.69 211.301 568.236 218.98 569.536 224.195C569.661 224.687 569.738 225.159 569.763 225.605C569.799 226.236 569.725 226.823 569.528 227.35Z" fill="#365CB3"/>
<path d="M525.483 314.631C525.244 315.009 525.006 315.387 524.771 315.764C521.063 313.604 517.619 310.943 514.489 307.955C497.851 292.062 492.007 269.339 482.438 249.162C474.942 233.359 462.83 216.626 445.485 211.517V211.514C443.027 210.793 440.458 210.303 437.785 210.083C437.591 210.066 437.393 210.051 437.196 210.039C436.277 209.974 436.274 208.539 437.196 208.603C437.636 208.632 438.076 208.67 438.51 208.714C441.061 208.975 443.547 209.489 445.951 210.227C453.47 212.519 460.24 216.951 465.946 222.469C482.476 238.463 488.269 261.184 497.887 281.344C503.957 294.063 513.071 307.358 525.483 314.631Z" fill="#4473C2"/>
<path d="M509.405 338.862C509.405 338.862 504.779 345.589 497.602 355.381L497.422 355.624C488.635 367.599 476.095 384.068 463.545 398.421C463.545 398.421 455.412 392.707 443.611 383.064C443.224 382.745 442.829 382.423 442.433 382.093C437.496 378.032 431.961 373.318 426.143 368.077C425.715 367.694 425.289 367.304 424.856 366.913C422.713 364.964 420.53 362.949 418.327 360.868C417.891 360.454 417.454 360.036 417.014 359.617C400.942 344.291 383.962 325.659 371.896 306.056C371.545 305.485 371.198 304.915 370.856 304.341C368.773 300.867 366.852 297.364 365.121 293.849C365.121 293.849 373.219 292.639 383.299 286.662C383.749 286.395 384.205 286.12 384.665 285.829C384.987 285.629 385.313 285.425 385.638 285.211L385.672 285.188C389.645 282.605 393.843 279.277 397.913 275.006C398.308 274.594 398.696 274.174 399.086 273.746C400.945 271.697 402.773 269.449 404.532 266.974L404.576 266.915L404.649 266.808C405.189 266.045 405.72 265.262 406.247 264.458L419.255 273.842L420.802 274.956L452.714 297.974L453.977 298.883L476.96 315.46L478.478 316.557L509.405 338.862Z" fill="#365CB3"/>
<path d="M490.236 364.95C489.844 365.447 489.541 365.823 489.337 366.078C488.587 365.662 487.818 365.28 487.038 364.926L487.035 364.923C485.848 364.384 484.629 363.919 483.379 363.522C472.964 360.221 461.365 362.072 453.044 369.322C448.788 373.027 445.54 377.81 443.611 383.065C443.224 382.745 442.829 382.423 442.433 382.093C442.758 381.248 443.12 380.413 443.507 379.592C448.36 369.397 457.952 362.008 469.241 360.699C473.966 360.151 478.789 360.623 483.332 362.011C485.73 362.737 488.052 363.724 490.236 364.95Z" fill="#4473C2"/>
<path d="M517.742 326.673C517.47 327.081 517.208 327.483 516.939 327.884C510.691 321.632 502.272 317.681 493.502 316.366C488.454 315.607 483.408 315.722 478.478 316.557C466.603 318.567 455.419 324.768 446.522 333.075C443.319 336.063 440.414 339.323 437.878 342.762C432.247 350.397 428.304 359.034 426.143 368.077C425.715 367.694 425.289 367.304 424.856 366.913C424.911 366.696 424.966 366.479 425.023 366.262C428.411 353.299 435.614 341.353 445.374 332.172C451.334 326.568 458.242 321.994 465.822 318.841C469.404 317.352 473.146 316.204 476.96 315.46C483.966 314.092 491.22 314.085 498.186 315.847C505.529 317.7 512.381 321.39 517.742 326.673Z" fill="#4473C2"/>
<path d="M460.616 292.751C458.83 295.262 456.55 297.288 453.977 298.883C451.687 300.305 449.171 301.387 446.567 302.155C433.272 306.101 418.378 303.154 405.76 298.223C403.004 297.144 400.308 295.951 397.66 294.662C392.728 292.27 387.966 289.549 383.299 286.662C383.749 286.395 384.205 286.12 384.665 285.829C386.946 287.233 389.256 288.593 391.593 289.891L391.602 289.899C397.332 293.081 403.248 295.896 409.463 298.066C421.629 302.311 436.063 304.663 448.469 300.009C449.952 299.45 451.379 298.771 452.714 297.974C456.519 295.702 459.637 292.461 461.51 288.3C464.049 282.649 464.316 276.158 463.589 270.088C461.42 251.969 449.158 235.71 432.838 227.857C431.607 227.261 430.35 226.714 429.074 226.224V226.221C428.666 226.063 428.257 225.911 427.843 225.769V225.764C427.294 225.089 426.755 224.401 426.228 223.706C427.427 224.078 428.611 224.492 429.778 224.947C431.24 225.518 432.676 226.157 434.08 226.852C441.824 230.703 448.635 236.399 453.921 243.293C460.835 252.317 465.17 263.484 465.355 274.91C465.459 281.103 464.275 287.623 460.616 292.751Z" fill="#4473C2"/>
<path d="M401.347 279.19C421.236 293.038 438.719 310.115 452.998 329.701C453.533 330.434 452.495 331.424 451.955 330.678C437.749 311.198 420.388 294.187 400.6 280.411C399.846 279.887 400.589 278.663 401.347 279.19Z" fill="#151C36"/>
<path d="M515.929 203.455C505.321 208.852 492.338 204.046 487.896 192.962C487.606 192.238 488.683 191.648 488.978 192.381C493.168 202.835 505.286 207.492 515.349 202.373C516.051 202.016 516.636 203.096 515.929 203.455Z" fill="#151C36"/>
<path d="M444.46 185.055C438.823 196.119 434.3 207.699 428.665 218.763C428.264 219.55 427.096 218.83 427.495 218.048C433.131 206.984 437.653 195.404 443.29 184.34C443.69 183.553 444.857 184.273 444.46 185.055Z" fill="#151C36"/>
<path d="M539.492 179.214C539.492 179.214 524.218 204.184 500.648 192.282L504.573 170.46L506.411 160.613L507.695 153.718L534.387 146.486C534.28 159.069 536.139 169.834 539.492 179.214Z" fill="#F57869"/>
<path d="M528.952 157.132C518.187 172.674 507.547 175.341 503.873 174.217L506.411 160.613L528.952 157.132Z" fill="#151C36"/>
<path d="M491.634 114.428C491.634 114.428 485.641 123.861 495.233 134.09L491.634 114.428Z" fill="#151C36"/>
<path d="M536.648 138.779C536.657 139.884 536.61 140.904 536.497 141.874C536.24 144.115 535.655 146.078 534.705 148.101C533.451 150.763 531.566 153.543 528.961 157.208C524.867 162.964 517.938 165.285 511.184 165.476C493.246 165.984 491.307 153.799 492.312 135.292C492.939 123.8 489.538 117.526 492.288 112.995H492.294C492.48 112.784 492.671 112.579 492.864 112.378C497.436 107.55 503.791 104.788 510.439 104.478C511.721 104.42 512.946 104.405 514.122 104.431C514.389 104.428 514.657 104.437 514.918 104.451L515.242 104.463C515.541 104.471 515.833 104.484 516.128 104.507C516.335 104.517 516.546 104.53 516.751 104.549C517.226 104.582 517.687 104.625 518.138 104.672C532.531 106.263 536.323 114.904 537.047 123.512C537.543 129.362 536.616 135.195 536.648 138.779Z" fill="#F57869"/>
<path d="M510.696 132.646C509.473 132.377 508.245 132.97 507.628 134.039C507.162 134.845 505.929 134.089 506.395 133.284C507.347 131.639 509.255 130.851 511.096 131.256C512.005 131.456 511.6 132.843 510.696 132.646Z" fill="#151C36"/>
<path d="M498.686 134.614C497.934 133.511 496.817 133.048 495.508 133.262C494.595 133.41 494.249 132.006 495.169 131.856C497.172 131.531 498.818 132.255 499.958 133.929C500.48 134.696 499.203 135.377 498.686 134.614Z" fill="#151C36"/>
<path d="M517.782 137.613C517.79 138.599 516.267 139.41 514.379 139.427C512.489 139.442 510.951 138.658 510.942 137.675C510.934 136.691 512.457 135.878 514.347 135.863C516.236 135.845 517.775 136.63 517.782 137.613Z" fill="#D43540"/>
<path d="M492.124 139.946C492.757 140.36 493.732 140.617 494.822 140.606C496.709 140.591 498.233 139.78 498.224 138.793C498.215 137.811 496.677 137.028 494.792 137.044C493.753 137.054 492.824 137.303 492.198 137.691L492.124 139.946Z" fill="#D43540"/>
<path d="M508.684 127.102C509.788 126.667 511.392 126.723 511.907 128.015C512.219 128.799 512.973 129.347 513.845 129.094C514.599 128.877 515.242 127.948 514.925 127.154C513.806 124.337 510.685 122.958 507.822 124.08C507.035 124.389 506.492 125.151 506.744 126.022C506.962 126.777 507.888 127.414 508.684 127.102Z" fill="#151C36"/>
<path d="M495.53 128.517C496.422 127.439 497.421 126.964 498.818 127.312C500.781 127.802 501.589 124.767 499.627 124.278C497.216 123.678 494.883 124.391 493.29 126.316C492.01 127.863 494.24 130.075 495.53 128.517Z" fill="#151C36"/>
<path d="M500.788 138.729C501.25 139.013 502.485 139.625 504.342 139.511C504.594 139.496 504.785 139.279 504.77 139.027C504.753 138.776 504.538 138.584 504.286 138.599C503.036 138.675 502.12 138.371 501.608 138.13C503.226 136.272 503.442 133.087 503.452 132.941C503.467 132.689 503.276 132.473 503.024 132.458C502.772 132.441 502.555 132.632 502.54 132.884C502.537 132.919 502.297 136.399 500.564 137.882C500.461 137.972 500.401 138.104 500.406 138.241L500.583 138.593L500.788 138.729Z" fill="#151C36"/>
<path d="M530.257 143.884C532.789 143.9 534.865 143.133 536.497 141.874C536.24 144.115 535.655 146.078 534.705 148.101C532.913 147.236 531.378 145.884 530.257 143.884Z" fill="#151C36"/>
<path d="M533.021 123.421C525.903 125.431 525.298 137.618 521.616 135.558C517.936 133.497 527.553 118.658 518.14 119.264C508.726 119.871 511.41 118.597 507.106 118.944C499.785 119.532 495.262 113.811 492.294 112.995C492.48 112.784 492.671 112.58 492.864 112.378C497.436 107.551 503.791 104.789 510.439 104.479C511.721 104.421 512.946 104.405 514.122 104.431C514.389 104.428 514.657 104.437 514.918 104.451L515.242 104.463C515.541 104.471 515.833 104.485 516.128 104.508C516.335 104.517 516.546 104.531 516.751 104.549C517.221 104.576 517.687 104.619 518.138 104.673C532.531 106.263 536.323 114.905 537.047 123.513C535.927 123.056 534.583 122.979 533.021 123.421Z" fill="#151C36"/>
<path d="M521.619 135.557C525.298 137.615 525.9 125.431 533.023 123.422C534.586 122.979 535.928 123.054 537.047 123.512C537.542 129.361 536.614 135.195 536.646 138.779C536.656 139.853 536.611 140.851 536.503 141.796C539.184 134.343 542.181 125.553 542.784 121.847C542.908 121.099 542.965 120.396 542.963 119.73C542.794 119.55 542.622 119.372 542.444 119.206C541.675 118.46 540.823 117.833 539.906 117.296C538.46 116.455 536.845 115.857 535.156 115.454C529.67 114.13 523.335 114.806 518.858 115.65C522.487 120.239 518.609 133.869 521.619 135.557Z" fill="#151C36"/>
<path d="M497.221 145.044C497.221 145.044 501.418 144.549 509.666 143.626C509.666 143.626 509.205 152.52 503.187 152.538C498.084 152.554 497.221 145.044 497.221 145.044Z" fill="white"/>
<path d="M502.219 155.644C503.58 156.083 505.022 156.073 506.104 155.036C506.65 154.512 505.812 153.687 505.263 154.211C504.49 154.952 503.462 154.81 502.521 154.508C501.8 154.274 501.499 155.414 502.219 155.644Z" fill="#D43540"/>
<path d="M524.526 139.497C523.534 136.625 524.042 133.452 525.684 130.895C527.812 127.583 531.751 122.484 535.57 122.981C541.182 123.711 541.891 128.705 541.384 133.798C540.876 138.894 537.597 145.589 530.591 144.575C527.087 144.066 525.338 141.848 524.526 139.497Z" fill="#F57869"/>
<path d="M531.196 138.536C530.9 136.408 530.742 134.179 531.52 132.128C532.213 130.295 534.236 127.627 536.584 128.376C537.372 128.627 537.899 127.443 537.106 127.189C534.842 126.468 532.704 127.815 531.385 129.645C529.484 132.287 529.482 135.606 529.91 138.696C530.023 139.52 531.311 139.366 531.196 138.536Z" fill="#151C36"/>
<path d="M353.306 247.022C352.775 261.3 364.696 266.32 385.748 253.983C396.912 247.437 407.486 240.178 416.334 233.671C419.403 231.413 422.266 229.244 424.87 227.227C434.679 219.637 440.86 214.201 440.86 214.201L421.16 183.272C421.16 183.272 418.443 185.001 414.099 187.933C411.832 189.465 409.119 191.327 406.114 193.441C386.29 207.399 353.849 232.423 353.306 247.022Z" fill="#F57869"/>
<path d="M375.286 218.638C377.687 226.204 378.808 234.053 378.637 241.989C378.616 242.91 377.186 242.881 377.206 241.96C377.375 234.14 376.26 226.427 373.894 218.972C373.616 218.094 375.008 217.764 375.286 218.638Z" fill="#D43540"/>
<path d="M376.489 223.416C378.729 225.404 380.634 227.663 382.241 230.186C382.736 230.962 381.474 231.636 380.981 230.862C379.438 228.44 377.592 226.3 375.446 224.395C374.759 223.786 375.805 222.81 376.489 223.416Z" fill="#D43540"/>
<path d="M469.742 162.857C467.888 163.138 466.122 163.693 464.455 164.643C463.486 165.202 462.552 165.887 461.658 166.733C460.761 167.581 459.907 168.586 459.089 169.776C458.833 170.146 458.587 170.547 458.354 170.981C458.166 171.322 457.987 171.684 457.808 172.063C457.706 172.28 457.608 172.5 457.506 172.729C454.568 179.511 452.573 191.783 445.951 210.227C445.801 210.652 445.646 211.081 445.485 211.515V211.518C444.511 214.194 443.435 216.996 442.248 219.93C438.979 222.798 436.109 225.194 434.08 226.852C433.62 227.226 433.205 227.561 432.838 227.857C431.633 228.827 430.941 229.366 430.941 229.366C430.188 228.549 429.45 227.707 428.733 226.846C428.433 226.491 428.139 226.131 427.843 225.769V225.764C427.294 225.089 426.755 224.401 426.228 223.706C420.872 216.647 416.557 208.765 413.438 202.251C413.227 201.817 413.025 201.391 412.828 200.97C409.438 193.732 407.625 188.474 407.625 188.474C417.991 180.306 427.875 174.739 436.582 170.949C437.163 170.694 437.737 170.45 438.309 170.213C444.653 167.569 450.325 165.874 455.046 164.787C455.509 164.681 455.962 164.579 456.409 164.483C458.797 163.969 460.916 163.62 462.718 163.377C467.189 162.778 469.737 162.853 469.737 162.853L469.742 162.857Z" fill="#365CB3"/>
<path d="M541.541 119.871C541.541 119.871 574.919 115.928 560.243 106.353C541.44 94.0831 514.918 104.451 514.918 104.451L541.541 119.871Z" fill="#365CB3"/>
<path d="M503.991 109.606C507.294 109.862 511.548 113.262 511.638 116.358C506.609 117.272 501.944 116.491 497.471 114.82C497.471 114.82 499.596 109.267 503.991 109.606ZM490.974 115.153C490.974 115.153 498.25 120.701 521.221 120.587C536.602 120.51 542.963 119.731 542.963 119.731C542.963 119.731 548.076 98.8918 521.267 92.6775C492.656 86.0447 490.974 115.153 490.974 115.153Z" fill="#F03C4F"/>
<path d="M519.168 92.3292C529.108 97.41 536.553 108.865 533.417 120.232C533.232 120.9 532.201 120.601 532.385 119.936C535.402 109.008 528.116 98.105 518.609 93.2442C517.991 92.931 518.555 92.016 519.168 92.3292Z" fill="#151C36"/>
<path d="M512.205 115.959C513.092 117.078 513.358 118.59 512.781 119.914C512.509 120.541 511.475 120.251 511.748 119.62C512.171 118.65 512.092 117.536 511.421 116.694C510.996 116.158 511.774 115.417 512.205 115.959Z" fill="#151C36"/>
<path d="M497.696 115.33C497.207 115.954 496.918 116.65 496.871 117.444C496.829 118.133 495.756 118.114 495.798 117.423C495.856 116.452 496.179 115.538 496.781 114.77C497.201 114.232 498.12 114.785 497.696 115.33Z" fill="#151C36"/>
<path d="M513.367 141.243H490.246C485.582 141.243 481.802 137.462 481.802 132.799V130.761C481.802 126.097 485.582 122.318 490.246 122.318H513.367C518.031 122.318 521.81 126.097 521.81 130.761V132.799C521.81 137.462 518.031 141.243 513.367 141.243Z" fill="#365CB3"/>
<path d="M517.009 128.633V134.927C517.009 136.187 515.989 137.209 514.728 137.209H486.573C485.466 137.209 484.546 136.424 484.335 135.38C484.305 135.235 484.288 135.081 484.288 134.927V128.633C484.288 127.373 485.313 126.352 486.573 126.352H514.728C515.625 126.352 516.403 126.87 516.772 127.628C516.924 127.93 517.009 128.273 517.009 128.633Z" fill="#4473C2"/>
<path d="M516.772 127.628L507.193 137.209H499.717L510.576 126.352H514.728C515.625 126.352 516.403 126.87 516.772 127.628Z" fill="#5B92D4"/>
<path d="M498.635 126.352L487.777 137.209H486.573C485.466 137.209 484.546 136.424 484.335 135.38L493.363 126.352H498.635Z" fill="#5B92D4"/>
<path d="M521.407 125.689C521.407 125.689 527.988 123.121 533.022 123.42C533.022 123.42 529.363 124.465 526.868 129.157L521.81 131.78L521.407 125.689Z" fill="#365CB3"/>
<path d="M548.901 132.91C547.806 140.524 541.213 145.875 534.175 144.864C527.137 143.852 522.316 136.86 523.41 129.248C524.505 121.635 531.097 116.284 538.136 117.295C545.174 118.306 549.993 125.298 548.901 132.91Z" fill="#151C36"/>
<path d="M547.839 132.489C547.104 137.615 542.665 141.219 537.924 140.538C533.185 139.856 529.94 135.148 530.677 130.022C531.411 124.895 535.852 121.291 540.592 121.973C545.332 122.654 548.577 127.362 547.839 132.489Z" fill="#23548F"/>
<path d="M544.685 131.685C544.346 134.044 542.302 135.701 540.122 135.388C537.94 135.075 536.446 132.909 536.787 130.55C537.126 128.19 539.169 126.532 541.348 126.846C543.53 127.159 545.024 129.325 544.685 131.685Z" fill="#151C36"/>
<path d="M536.738 120.975L536.905 120.99C537.754 121.019 538.466 120.356 538.493 119.508C538.533 118.395 539.279 92.2026 525.463 87.1569C519.748 85.0702 513.899 85.5224 508.548 88.4661C504.545 90.6674 502.237 93.4766 502.141 93.5957C501.606 94.2556 501.706 95.2227 502.366 95.7573C503.024 96.2935 503.994 96.1927 504.529 95.5343C504.854 95.1356 512.698 85.7714 524.407 90.0456C536.136 94.3275 535.429 119.151 535.42 119.402C535.395 120.193 535.971 120.867 536.738 120.975Z" fill="#23548F"/>
<path d="M438.309 170.213C438.003 171.291 437.661 172.359 437.288 173.418C432.959 185.623 424.381 195.789 413.438 202.251C413.227 201.817 413.025 201.391 412.828 200.97C417.929 197.974 422.531 194.14 426.39 189.607C431.029 184.155 434.477 177.764 436.582 170.949C437.163 170.694 437.737 170.45 438.309 170.213Z" fill="#4473C2"/>
<path d="M413.826 184.739C418.19 197.149 424.668 208.692 432.982 218.888C433.559 219.597 432.52 220.582 431.935 219.866C423.46 209.469 416.885 197.728 412.435 185.073C412.128 184.206 413.523 183.877 413.826 184.739Z" fill="#151C36"/>
<path d="M502.327 182.944C501.724 182.843 501.26 182.759 500.659 182.637C489.554 180.385 479.436 173.951 473.442 164.215C473.089 163.638 472.75 163.054 472.431 162.462C471.882 162.448 471.349 162.439 470.83 162.439C473.417 167.507 477.22 171.998 481.717 175.543C487.772 180.315 494.624 183.135 502.072 184.36C502.144 183.899 502.314 183.411 502.327 182.944Z" fill="#4473C2"/>
<path d="M556.997 204.293C552.802 206.446 548.531 208.439 544.138 210.181C524.455 217.993 500.534 220.297 482.206 207.77C469.831 199.313 462.319 186.555 457.506 172.729C457.384 172.388 457.269 172.047 457.152 171.702C456.382 169.418 455.683 167.108 455.046 164.787C455.509 164.681 455.962 164.579 456.409 164.483C456.899 166.302 457.426 168.111 458.001 169.899C458.118 170.26 458.233 170.62 458.354 170.981C460.194 176.538 462.481 181.935 465.419 187.024C470.443 195.734 477.374 203.527 486.162 208.559C495.444 213.875 506.295 215.688 516.885 215.097C530.889 214.316 543.866 209.412 556.203 203.084C556.463 203.482 556.727 203.889 556.997 204.293Z" fill="#4473C2"/>
<path d="M449.309 192.696C442.598 204.075 436.326 215.708 430.51 227.57C430.162 228.278 429.117 227.634 429.462 226.928C435.279 215.066 441.55 203.435 448.262 192.056C448.664 191.375 449.712 192.015 449.309 192.696Z" fill="#151C36"/>
<path d="M432.953 265.468C430.669 270.668 426.072 273.629 420.802 274.956C420.148 275.124 419.482 275.265 418.81 275.379C412.177 276.522 405.182 276.168 398.551 275.112C398.343 275.077 398.136 275.045 397.932 275.01L397.913 275.007C398.308 274.594 398.696 274.174 399.086 273.746C399.243 273.775 399.402 273.797 399.561 273.82L399.72 273.846C406.047 274.771 412.849 275.101 419.16 273.861L419.255 273.843C425.474 272.594 430.513 269.115 432.404 262.838C435.403 252.879 431.575 241.749 424.607 234.233C424.855 233.793 425.104 233.353 425.351 232.913C429.204 236.91 432.041 241.847 433.553 247.207C435.212 253.082 435.447 259.792 432.953 265.468Z" fill="#4473C2"/>
<path d="M418.327 360.868C417.891 360.454 417.454 360.036 417.014 359.617C417.084 358.623 417.119 357.618 417.114 356.613C417.09 341.987 410.089 328.385 398.883 319.16C391.069 312.729 381.711 308.465 371.896 306.056C371.545 305.485 371.198 304.915 370.856 304.341C375.006 305.285 379.079 306.554 383.021 308.174C396.837 313.856 408.968 323.939 414.774 337.953C417.753 345.146 419.062 353.133 418.327 360.868Z" fill="#4473C2"/>
<path d="M502.581 167.938C495.728 178.877 485.191 187.047 474.707 194.297C470.023 197.537 465.121 201.056 463.19 206.676C461.455 211.728 463.262 216.881 467.723 219.799C472.8 223.12 479.329 222.397 484.769 220.442C490.276 218.462 495.166 215.181 500.048 212.028C505.21 208.696 510.466 205.526 516.458 203.944C522.774 202.275 529.424 201.921 535.504 199.391C540 197.523 545.595 194.034 545.485 188.548C545.389 183.604 542.508 178.237 538.927 174.922C538.489 174.516 537.829 175.173 538.27 175.581C541.536 178.605 544.12 183.335 544.514 187.803C544.983 193.119 539.942 196.454 535.599 198.348C529.977 200.8 523.792 201.279 517.872 202.637C512.487 203.873 507.64 206.2 502.955 209.085C498.363 211.912 493.967 215.077 489.149 217.524C483.752 220.264 477.178 222.4 471.179 220.433C465.376 218.529 462.041 212.828 464.088 206.924C466.102 201.113 471.457 197.694 476.26 194.352C486.5 187.224 496.686 179.102 503.386 168.407C503.705 167.898 502.899 167.431 502.581 167.938Z" fill="white"/>
<path d="M569.763 225.605C567.072 225.216 564.357 224.97 561.623 224.893C545.004 224.432 527.327 231.213 519.938 247.057C516.691 254.017 516.083 262.055 519.023 269.223C521.856 276.135 527.615 281.81 534.926 283.702C535.82 283.935 535.437 285.319 534.545 285.087C526.357 282.968 520.049 276.39 517.232 268.542C511.369 252.218 522.476 235.18 537.119 228.265C547.431 223.395 558.562 222.671 569.536 224.195C569.661 224.687 569.737 225.159 569.763 225.605Z" fill="#4473C2"/>
<path d="M532.89 280.561C517.031 311.496 498.16 340.857 476.552 368.092C470.535 375.679 464.304 383.094 457.885 390.344C457.274 391.033 456.299 389.985 456.906 389.3C479.806 363.439 500.169 335.364 517.593 305.534C522.522 297.094 527.209 288.513 531.668 279.814C532.09 278.995 533.309 279.745 532.89 280.561Z" fill="#151C36"/>
<path d="M537.479 285.093C537.479 285.093 537.815 289.059 538.504 295.652C538.62 296.763 538.747 297.947 538.884 299.201C540.301 312.23 539.271 332.722 542.981 353.357C547.379 377.804 562.536 382.441 575.339 373.635C588.023 364.908 589.239 328.011 587.38 303.414C586.891 296.925 586.323 291.434 585.906 287.765C585.554 284.658 585.308 282.855 585.308 282.855L537.479 285.093Z" fill="#F57869"/>
<path d="M576.818 372.439C576.818 372.439 556.244 392.036 531.819 383.643C508.749 375.717 455.586 329.684 455.586 329.684L456.595 312.992C456.595 312.992 516.137 333.281 548.606 347.047L576.818 372.439Z" fill="#F57869"/>
<path d="M466.565 322.856C465.842 328.955 460.091 333.091 453.968 332.574C450.739 332.301 447.17 332.299 444.422 333.091C437.829 334.993 430.567 339.068 426.963 339.087C421.648 339.113 425.529 334.893 426.082 334.437C429.624 331.513 435.21 328.32 435.21 328.32C435.21 328.32 423.98 331.462 420.402 334.342C416.824 337.221 412.779 336.351 414.583 331.753C416.387 327.157 428.038 321.119 431.72 320.32C431.72 320.32 424.291 320.471 419.317 324.211C414.342 327.952 412.06 328.624 409.556 328.934C407.054 329.244 406.938 324.182 414.017 319.139C421.097 314.095 425.075 313.939 429.274 313.377C429.274 313.377 425.942 312.532 420.3 312.358C414.657 312.182 409.25 316.964 406.262 315.39C403.206 313.782 409.675 308.548 414.533 307.259C419.391 305.97 422.817 304.619 429.187 305.453C435.557 306.287 441.619 307.306 445.314 308.721C449.009 310.137 462.808 313.444 465.845 318.273C466.618 319.506 466.769 321.125 466.565 322.856Z" fill="#F57869"/>
<path d="M462.037 314.157C466.898 316.95 468.311 322.724 467.671 327.967C467.353 330.565 466.806 334.27 464.654 336.017C463.157 337.233 461.342 337.088 460.103 335.594C459.18 334.485 458.875 333.04 458.563 331.664C458.43 331.08 457.53 331.328 457.665 331.913C458.254 334.51 459.509 338.086 462.833 337.796C466.114 337.51 467.365 333.925 468.014 331.224C469.565 324.794 468.803 316.97 462.509 313.352C461.988 313.055 461.519 313.86 462.037 314.157Z" fill="white"/>
<path d="M455.639 312.399C455.639 312.399 446.481 304.518 442.471 303.764C438.463 303.007 432.814 299.732 432.082 302.38C431.349 305.025 438.405 308.864 438.405 308.864L455.639 312.399Z" fill="#F57869"/>
<path d="M542.593 343.396C547.547 345.311 552.003 348.142 555.847 351.81C556.415 352.352 555.63 353.298 555.057 352.751C551.287 349.152 546.932 346.387 542.071 344.506C541.336 344.222 541.857 343.11 542.593 343.396Z" fill="#D43540"/>
<path d="M546.35 345.284C549.417 343.854 552.689 343.352 556.046 343.752C556.831 343.845 556.62 345.055 555.839 344.962C552.685 344.586 549.659 345.091 546.782 346.433C546.064 346.769 545.638 345.615 546.35 345.284Z" fill="#D43540"/>
<path d="M591.924 293.667C591.924 293.667 581.931 297.08 568.766 299.006H568.763C568.266 299.077 567.767 299.147 567.263 299.214C561.317 300.018 554.793 300.49 548.296 300.207C547.792 300.184 547.291 300.158 546.79 300.123C544.194 299.964 541.61 299.677 539.074 299.234C539.074 299.234 531.605 266.464 534.8 245.718C537.708 226.807 546.752 213.994 559.31 211.556C559.31 211.556 564.871 215.914 571.493 226.619C571.843 227.188 572.198 227.771 572.554 228.378C576.086 234.355 579.846 242.118 583.18 251.95C583.333 252.402 583.483 252.859 583.636 253.319C587.209 264.192 590.249 277.519 591.924 293.667Z" fill="#365CB3"/>
<path d="M572.554 228.378C572.392 229.021 572.206 229.662 572.003 230.296C570.171 236.019 566.927 241.069 562.611 245.232C557.862 249.816 552.201 253.599 548.756 259.37C541.284 271.87 544.796 286.99 548.296 300.207C547.792 300.184 547.291 300.158 546.79 300.123C544.816 292.691 542.939 285.131 542.905 277.405C542.873 271.175 544.06 264.802 547.123 259.321C550.303 253.634 555.535 249.775 560.263 245.466C565.058 241.095 568.746 235.915 570.691 229.678C571.007 228.667 571.276 227.646 571.493 226.62C571.842 227.188 572.198 227.771 572.554 228.378Z" fill="#4473C2"/>
<path d="M583.636 253.319C582.287 254.071 580.987 254.911 579.742 255.835C572.363 261.316 567.215 269.504 565.841 278.618C564.791 285.542 565.859 292.685 568.763 299.007C568.266 299.077 567.767 299.147 567.263 299.214C566.093 296.593 565.231 293.837 564.695 291.007C562.88 281.402 564.825 271.333 570.478 263.313C573.793 258.608 578.17 254.706 583.18 251.95C583.333 252.402 583.483 252.859 583.636 253.319Z" fill="#4473C2"/>
<path d="M589.581 285.412C573.205 291.036 555.714 292.844 538.535 290.692C537.627 290.577 537.649 289.146 538.562 289.261C555.636 291.401 572.97 289.61 589.245 284.021C590.116 283.723 590.446 285.116 589.581 285.412Z" fill="#151C36"/>
<path d="M537.864 296.051L538.189 296.042C538.536 295.945 538.739 295.582 538.642 295.233C531.025 268.29 534.438 243.559 534.473 243.312C534.526 242.954 534.276 242.623 533.917 242.571C533.559 242.519 533.226 242.768 533.176 243.127C533.139 243.376 529.687 268.383 537.38 295.591C537.447 295.829 537.639 296 537.864 296.051Z" fill="#151C36"/>
<path d="M532.641 256.386C532.832 256.431 533.04 256.389 533.202 256.256C533.484 256.027 533.526 255.615 533.296 255.334C530.202 251.542 528.862 246.368 528.85 246.316C528.759 245.966 528.404 245.754 528.052 245.843C527.702 245.931 527.489 246.289 527.579 246.639C527.635 246.862 528.998 252.141 532.281 256.163L532.641 256.386Z" fill="#151C36"/>
</svg>
