<svg width="541" height="578" viewBox="0 0 541 578" fill="none" xmlns="http://www.w3.org/2000/svg">
<path d="M128.673 2L203.278 66.389H240.58L295.757 2L345.493 32.2551L420.098 12.085L412.327 123.796H462.064L476.829 195.943L442.635 275.847L511.8 305.327L539 509.355H392.122L372.693 559.004H265.449L215.712 524.094L101.473 576.071L64.1708 538.834V441.862L26.8683 389.886L64.1708 305.327V220.768L2 195.943V66.389L128.673 2Z" stroke="white" stroke-width="3"/>
<path d="M242.432 265.21L255.924 258.32H273.72L286.135 271.353L289.363 287.624L296.73 290.779L299.627 312.612H283.983L265.194 314.189L253.027 319.752L249.054 315.767V305.39V281.73L242.432 279.074V265.21Z" stroke="white" stroke-width="3"/>
<path d="M137.943 21.7168L207.328 80.8878H243.13L294.539 21.9531L340.927 50.3821L409.918 32.3894L402.868 136.133L449.346 136.376L463.087 203.813L431.635 278.41L494.878 305.622L519.383 493.955L383.081 494.016L364.424 539.907L264.493 540.335L218.43 507.957L112.826 555.782L78.3925 521.011V431.099L43.9595 381.301L78.1378 303.144L77.8832 224.988L20.4948 201.539V81.4178L137.943 21.7168Z" stroke="white" stroke-width="3"/>
<path d="M147.212 41.4341L211.377 95.3871H245.679L293.322 41.9066L336.361 68.5097L399.737 52.6943L393.41 148.471L436.628 148.956L449.344 211.683L420.634 280.974L477.955 305.918L499.767 478.557L374.04 478.678L356.155 520.811L263.538 521.666L221.147 491.821L124.178 535.494L92.6143 503.188V420.337L61.0506 372.717L92.1049 300.962L91.5955 229.208L38.9895 207.136V96.4471L147.212 41.4341Z" stroke="white" stroke-width="3"/>
<path d="M156.482 61.1506L215.427 109.886H248.228L292.104 61.8595L331.796 86.6365L389.556 72.9985L383.951 160.808L423.91 161.536L435.602 219.552L409.634 283.536L461.032 306.213L480.15 463.157L364.999 463.339L347.886 501.713L262.582 502.997L223.865 475.683L135.53 515.206L106.836 485.365V409.574L78.1419 364.132L106.072 298.78L105.308 233.428L57.4844 212.732V111.476L156.482 61.1506Z" stroke="white" stroke-width="3"/>
<path d="M165.751 80.8674L219.477 124.384H250.777L290.886 81.8125L327.23 104.764L379.376 93.3029L374.492 173.145L411.192 174.115L421.86 227.422L398.633 286.099L444.11 306.508L460.533 447.758L355.958 448.001L339.617 482.616L261.627 484.328L226.582 459.546L146.883 494.917L121.058 467.541V398.811L95.2331 355.547L120.039 296.597L119.02 237.648L75.9791 218.329V126.505L165.751 80.8674Z" stroke="white" stroke-width="3"/>
<path d="M175.021 100.585L223.526 138.884H253.326L289.669 101.766L322.663 122.891L369.195 113.608L365.033 185.482L398.474 186.695L408.118 235.292L387.632 288.663L427.187 306.804L440.917 432.36L346.917 432.663L331.347 463.52L260.671 465.659L229.3 443.41L158.235 474.629L135.28 449.719V388.048L112.324 346.963L134.006 294.415L132.733 241.868L94.4739 223.925V141.534L175.021 100.585Z" stroke="white" stroke-width="3"/>
<path d="M184.291 120.302L227.576 153.382H255.875L288.451 121.719L318.097 141.018L359.014 133.912L355.575 197.819L385.756 199.275L394.375 243.162L376.632 291.226L410.264 307.099L421.3 416.961L337.876 417.324L323.078 444.423L259.715 446.99L232.017 427.273L169.587 454.341L149.501 431.895V377.285L129.415 338.378L147.973 292.233L146.445 246.088L112.969 229.522V156.563L184.291 120.302Z" stroke="white" stroke-width="3"/>
<path d="M193.56 140.018L231.626 167.881H258.424L287.233 141.672L313.531 159.145L348.834 154.216L346.116 210.156L373.038 211.855L380.633 251.031L365.631 293.789L393.341 307.394L401.683 401.561L328.835 401.986L314.809 425.326L258.76 428.321L234.735 411.136L180.94 434.052L163.723 414.072V366.522L146.506 329.793L161.94 290.05L160.157 250.308L131.463 235.118V171.591L193.56 140.018Z" stroke="white" stroke-width="3"/>
<path d="M202.83 159.735L235.675 182.38H260.974L286.016 161.625L308.965 177.272L338.653 174.521L336.657 222.493L360.32 224.434L366.89 258.901L354.63 296.351L376.419 307.69L382.067 386.162L319.794 386.647L306.54 406.229L257.804 409.651L237.452 394.998L192.292 413.763L177.945 396.249V355.759L163.598 321.208L175.907 287.868L173.87 254.528L149.958 240.714V186.62L202.83 159.735Z" stroke="white" stroke-width="3"/>
<path d="M212.099 179.452L239.725 196.879H263.523L284.798 181.579L304.399 195.4L328.472 194.826L327.198 234.831L347.602 237.015L353.148 266.771L343.63 298.915L359.496 307.985L362.45 370.763L310.753 371.309L298.271 387.132L256.849 390.983L240.17 378.862L203.644 393.475L192.167 378.426V344.996L180.689 312.624L189.874 285.686L187.582 258.748L168.453 246.311V201.649L212.099 179.452Z" stroke="white" stroke-width="3"/>
<path d="M221.369 199.169L243.775 211.378H266.072L283.58 201.532L299.833 213.527L318.292 215.13L317.74 247.168L334.884 249.594L339.406 274.641L332.629 301.478L342.573 308.281L342.833 355.364L301.712 355.971L290.002 368.035L255.893 372.314L242.888 362.725L214.997 373.187L206.388 360.603V334.233L197.78 304.039L203.842 283.504L201.295 262.968L186.948 251.907V216.678L221.369 199.169Z" stroke="white" stroke-width="3"/>
<path d="M230.639 218.885L247.824 225.876H268.621L282.363 221.485L295.267 231.653L308.111 235.434L308.281 259.505L322.166 262.174L325.663 282.51L321.628 304.041L325.651 308.576L323.217 339.965L292.671 340.632L281.732 348.938L254.938 353.644L245.605 346.588L226.349 352.898L220.61 342.779V323.47L214.871 295.454L217.809 281.321L215.007 267.188L205.442 257.503V231.707L230.639 218.885Z" stroke="white" stroke-width="3"/>
<path d="M239.908 238.603L251.874 240.376H271.17L281.145 241.438L290.701 249.781L297.93 255.739L298.822 271.842L309.448 274.754L311.921 290.381L310.628 306.604L308.728 308.872L303.6 324.566L283.63 325.294L273.463 329.841L253.982 334.976L248.323 330.451L237.701 332.61L234.832 324.956V312.708L231.962 286.87L231.776 279.139L228.72 271.408L223.937 263.1V246.736L239.908 238.603Z" stroke="white" stroke-width="3"/>
</svg>
