<svg width="821" height="332" viewBox="0 0 821 332" fill="none" xmlns="http://www.w3.org/2000/svg">
<mask id="mask0_201_649" style="mask-type:alpha" maskUnits="userSpaceOnUse" x="0" y="0" width="821" height="332">
<rect width="821" height="332" rx="4" fill="#C4C4C4"/>
</mask>
<g mask="url(#mask0_201_649)">
<path d="M812.339 -216.693C790.607 -209.297 747.746 -177.083 750.156 -107.394C753.169 -20.2841 818.913 34.2283 835.349 116.408C847.48 177.062 845.758 328.979 771.797 392.805" stroke="white" stroke-width="3"/>
<path d="M782.737 -198.716C761.005 -191.319 718.144 -159.105 720.554 -89.4169C723.568 -2.3066 789.311 52.2058 805.747 134.385C817.878 195.04 816.156 346.956 742.195 410.782" stroke="white" stroke-width="3"/>
<path d="M752.685 -181.497C730.953 -174.1 688.091 -141.886 690.502 -72.1979C693.515 14.9124 759.259 69.4248 775.695 151.604C787.826 212.259 786.104 364.175 712.143 428.001" stroke="white" stroke-width="3"/>
<path d="M722.213 -165.031C700.481 -157.635 657.62 -125.42 660.03 -55.732C663.043 31.3782 728.787 85.8906 745.223 168.07C757.354 228.725 755.632 380.641 681.671 444.467" stroke="white" stroke-width="3"/>
<path d="M691.329 -149.352C669.597 -141.955 626.736 -109.741 629.146 -40.0528C632.16 47.0574 697.903 101.57 714.339 183.749C726.47 244.404 724.749 396.32 650.787 460.146" stroke="white" stroke-width="3"/>
<path d="M660.031 -134.517C638.299 -127.12 595.438 -94.9061 597.848 -25.2179C600.862 61.8924 666.605 116.405 683.041 198.584C695.172 259.239 693.45 411.155 619.489 474.981" stroke="white" stroke-width="3"/>
<path d="M628.311 -120.607C606.579 -113.211 563.718 -80.9964 566.128 -11.3082C569.142 75.802 634.885 130.314 651.321 212.494C663.452 273.149 661.73 425.065 587.769 488.891" stroke="white" stroke-width="3"/>
<path d="M596.158 -107.728C574.427 -100.332 531.565 -68.1173 533.976 1.57093C536.989 88.6812 602.733 143.194 619.169 225.373C631.3 286.028 629.578 437.944 555.617 501.77" stroke="white" stroke-width="3"/>
<path d="M563.564 -96.0132C541.832 -88.617 498.971 -56.4027 501.381 13.2855C504.395 100.396 570.138 154.908 586.574 237.088C598.705 297.742 596.983 449.659 523.022 513.485" stroke="white" stroke-width="3"/>
<path d="M530.52 -85.6333C508.788 -78.2371 465.927 -46.0228 468.337 23.6654C471.351 110.776 537.094 165.288 553.53 247.468C565.661 308.122 563.939 460.038 489.978 523.865" stroke="white" stroke-width="3"/>
<path d="M497.028 -76.8032C475.296 -69.4071 432.435 -37.1927 434.846 32.4955C437.859 119.606 503.603 174.118 520.039 256.298C532.17 316.952 530.448 468.869 456.486 532.695" stroke="white" stroke-width="3"/>
<path d="M463.108 -69.7964C441.377 -62.4002 398.515 -30.1859 400.926 39.5023C403.939 126.613 469.683 181.125 486.119 263.304C498.25 323.959 496.528 475.875 422.567 539.701" stroke="white" stroke-width="3"/>
<path d="M428.812 -64.9597C407.08 -57.5636 364.219 -25.3492 366.63 44.339C369.643 131.449 435.386 185.962 451.822 268.141C463.953 328.796 462.232 480.712 388.27 544.538" stroke="white" stroke-width="3"/>
<path d="M394.248 -62.728C372.516 -55.3319 329.655 -23.1175 332.066 46.5707C335.079 133.681 400.822 188.193 417.258 270.373C429.389 331.027 427.668 482.944 353.706 546.77" stroke="white" stroke-width="3"/>
<path d="M359.624 -63.636C337.892 -56.2398 295.031 -24.0255 297.442 45.6627C300.455 132.773 366.198 187.285 382.634 269.465C394.765 330.119 393.044 482.036 319.082 545.862" stroke="white" stroke-width="3"/>
<path d="M325.304 -68.3008C303.572 -60.9046 260.711 -28.6903 263.121 40.9979C266.134 128.108 331.878 182.621 348.314 264.8C360.445 325.455 358.723 477.371 284.762 541.197" stroke="white" stroke-width="3"/>
<path d="M291.871 -77.3508C270.139 -69.9547 227.278 -37.7403 229.688 31.9479C232.702 119.058 298.445 173.571 314.881 255.75C327.012 316.405 325.291 468.321 251.329 532.147" stroke="white" stroke-width="3"/>
<path d="M254.401 -93.7046C232.669 -86.3084 189.808 -54.0941 192.219 15.5941C195.232 102.704 260.975 157.217 277.411 239.396C289.542 300.051 287.821 451.967 213.859 515.793" stroke="white" stroke-width="3"/>
<path d="M222.298 -106.705C200.566 -99.3092 157.705 -67.0948 160.115 2.5934C163.128 89.7037 228.872 144.216 245.308 226.396C257.439 287.05 255.717 438.966 181.756 502.793" stroke="white" stroke-width="3"/>
<path d="M189.23 -117.009C167.498 -109.613 124.637 -77.3988 127.047 -7.71056C130.061 79.3997 195.804 133.912 212.24 216.092C224.371 276.746 222.65 428.663 148.688 492.489" stroke="white" stroke-width="3"/>
<path d="M155.425 -124.553C133.693 -117.157 90.8323 -84.9422 93.2429 -15.254C96.2561 71.8562 162 126.369 178.436 208.548C190.567 269.203 188.845 421.119 114.883 484.945" stroke="white" stroke-width="3"/>
<path d="M121.121 -129.337C99.3896 -121.941 56.5284 -89.7264 58.939 -20.0382C61.9522 67.0721 127.696 121.584 144.132 203.764C156.263 264.419 154.541 416.335 80.5796 480.161" stroke="white" stroke-width="3"/>
<path d="M86.5483 -131.422C64.8164 -124.025 21.9553 -91.8111 24.3659 -22.1229C27.3791 64.9873 93.1227 119.5 109.559 201.679C121.69 262.334 119.968 414.25 46.0065 478.076" stroke="white" stroke-width="3"/>
<path d="M51.9162 -130.914C30.1843 -123.518 -12.6769 -91.3035 -10.2663 -21.6153C-7.25302 65.4949 58.4906 120.007 74.9265 202.187C87.0574 262.841 85.3359 414.758 11.3743 478.584" stroke="white" stroke-width="3"/>
<path d="M17.4072 -127.951C-4.32468 -120.555 -47.1858 -88.3402 -44.7752 -18.652C-41.762 68.4583 23.9816 122.971 40.4175 205.15C52.5484 265.805 50.8269 417.721 -23.1346 481.547" stroke="white" stroke-width="3"/>
<path d="M-16.8257 -122.683C-38.5577 -115.287 -81.4188 -83.0728 -79.0082 -13.3846C-75.995 73.7256 -10.2514 128.238 6.18453 210.418C18.3154 271.072 16.5939 422.988 -57.3676 486.815" stroke="white" stroke-width="3"/>
</g>
</svg>
