<svg width="821" height="326" viewBox="0 0 821 326" fill="none" xmlns="http://www.w3.org/2000/svg">
<mask id="mask0_201_614" style="mask-type:alpha" maskUnits="userSpaceOnUse" x="0" y="0" width="821" height="326">
<rect width="821" height="326" fill="#C4C4C4"/>
</mask>
<g mask="url(#mask0_201_614)">
<path d="M1071.33 -79.0488C940.389 -59.242 735.105 -19.158 839.541 107.377C972.443 268.402 1297.21 226.218 1152.97 350.502" stroke="white" stroke-width="3"/>
<path d="M1029.11 -58.851C898.172 -39.0441 692.888 1.0399 797.324 127.575C930.226 288.6 1255 246.416 1110.76 370.7" stroke="white" stroke-width="3"/>
<path d="M985.01 -43.1829C854.073 -23.376 648.788 16.708 753.224 143.243C886.127 304.268 1210.9 262.084 1066.66 386.368" stroke="white" stroke-width="3"/>
<path d="M939.423 -32.5969C808.486 -12.7901 603.201 27.2939 707.638 153.829C840.54 314.854 1165.31 272.67 1021.07 396.954" stroke="white" stroke-width="3"/>
<path d="M892.941 -27.1432C762.005 -7.33637 556.72 32.7477 661.156 159.283C794.059 320.308 1118.83 278.124 974.588 402.408" stroke="white" stroke-width="3"/>
<path d="M846.149 -26.2797C715.213 -6.47285 509.928 33.6112 614.364 160.146C747.266 321.171 1072.04 278.987 927.796 403.271" stroke="white" stroke-width="3"/>
<path d="M799.432 -29.0527C668.495 -9.24592 463.211 30.8381 567.647 157.373C700.549 318.398 1025.32 276.214 881.078 400.498" stroke="white" stroke-width="3"/>
<path d="M752.937 -34.3881C622 -14.5812 416.716 25.5028 521.152 152.038C654.054 313.063 978.825 270.879 834.583 395.163" stroke="white" stroke-width="3"/>
<path d="M706.65 -41.2993C575.713 -21.4925 370.429 18.5915 474.865 145.127C607.767 306.152 932.538 263.968 788.296 388.252" stroke="white" stroke-width="3"/>
<path d="M660.483 -48.9729C529.547 -29.1661 324.262 10.918 428.698 137.453C561.6 298.478 886.372 256.294 742.13 380.578" stroke="white" stroke-width="3"/>
<path d="M614.338 -56.7754C483.402 -36.9686 278.117 3.11546 382.553 129.651C515.455 290.675 840.227 248.491 695.985 372.775" stroke="white" stroke-width="3"/>
<path d="M568.136 -64.229C437.199 -44.4222 231.915 -4.33815 336.351 122.197C469.253 283.222 794.024 241.038 649.782 365.322" stroke="white" stroke-width="3"/>
<path d="M521.826 -70.984C390.889 -51.1772 185.605 -11.0932 290.041 115.442C422.943 276.467 747.714 234.283 603.472 358.567" stroke="white" stroke-width="3"/>
<path d="M475.387 -76.7914C344.451 -56.9846 139.166 -16.9005 243.602 109.635C376.505 270.659 701.276 228.475 557.034 352.759" stroke="white" stroke-width="3"/>
<path d="M428.823 -81.4818C297.886 -61.675 92.6019 -21.591 197.038 104.944C329.94 265.969 654.711 223.785 510.469 348.069" stroke="white" stroke-width="3"/>
<path d="M381.864 -84.9921C250.927 -65.1853 45.6424 -25.1012 150.078 101.434C282.981 262.459 607.752 220.275 463.51 344.559" stroke="white" stroke-width="3"/>
<path d="M335.142 -87.6941C204.205 -67.8873 -1.07957 -27.8032 103.356 98.7319C236.259 259.757 561.03 217.573 416.788 341.857" stroke="white" stroke-width="3"/>
<path d="M288.386 -89.7209C157.449 -69.9141 -47.8356 -29.8301 56.6004 96.705C189.503 257.73 514.274 215.546 370.032 339.83" stroke="white" stroke-width="3"/>
<path d="M241.602 -90.9801C110.666 -71.1733 -94.6187 -31.0892 9.81734 95.4459C142.72 256.471 467.491 214.287 323.249 338.571" stroke="white" stroke-width="3"/>
<path d="M194.804 -91.3557C63.8673 -71.5489 -141.417 -31.4649 -36.9812 95.0703C95.921 256.095 420.692 213.911 276.45 338.195" stroke="white" stroke-width="3"/>
<path d="M148.008 -90.6992C17.0718 -70.8924 -188.213 -30.8084 -83.7767 95.7268C49.1256 256.752 373.897 214.568 229.655 338.852" stroke="white" stroke-width="3"/>
<path d="M101.246 -88.8157C-29.6903 -69.0089 -234.975 -28.9248 -130.539 97.6103C2.36342 258.635 327.135 216.451 182.893 340.735" stroke="white" stroke-width="3"/>
<path d="M54.5679 -85.4413C-76.3687 -65.6345 -281.653 -25.5504 -177.217 100.985C-44.315 262.01 280.456 219.826 136.214 344.11" stroke="white" stroke-width="3"/>
<path d="M8.06097 -80.2065C-122.876 -60.3997 -328.16 -20.3157 -223.724 106.219C-90.8219 267.244 233.949 225.06 89.7074 349.344" stroke="white" stroke-width="3"/>
<path d="M-38.1154 -72.5765C-169.052 -52.7697 -374.337 -12.6857 -269.9 113.849C-136.998 274.874 187.773 232.69 43.531 356.974" stroke="white" stroke-width="3"/>
<path d="M-83.6425 -61.7894C-214.579 -41.9826 -419.864 -1.89858 -315.428 124.637C-182.525 285.661 142.246 243.477 -1.99611 367.761" stroke="white" stroke-width="3"/>
</g>
</svg>
